ISO-10303-21;
HEADER;
/* Generated by software containing ST-Developer
 * from STEP Tools, Inc. (www.steptools.com) 
 */

FILE_DESCRIPTION(
/* description */ (''),
/* implementation_level */ '2;1');

FILE_NAME(
/* name */ 'Sub-gasket.step',
/* time_stamp */ '2025-12-17T17:09:22-05:00',
/* author */ (''),
/* organization */ (''),
/* preprocessor_version */ 'ST-DEVELOPER v20.1',
/* originating_system */ 'Autodesk Translation Framework v14.21.0.0',
/* authorisation */ '');

FILE_SCHEMA (('AUTOMOTIVE_DESIGN { 1 0 10303 214 3 1 1 }'));
ENDSEC;

DATA;
#10=MECHANICAL_DESIGN_GEOMETRIC_PRESENTATION_REPRESENTATION('',(#13),#755);
#11=SHAPE_REPRESENTATION_RELATIONSHIP('SRR','None',#762,#12);
#12=ADVANCED_BREP_SHAPE_REPRESENTATION('',(#14),#754);
#13=STYLED_ITEM('',(#772),#14);
#14=MANIFOLD_SOLID_BREP('Corps1',#439);
#15=FACE_BOUND('',#78,.T.);
#16=FACE_BOUND('',#79,.T.);
#17=FACE_BOUND('',#80,.T.);
#18=FACE_BOUND('',#81,.T.);
#19=FACE_BOUND('',#82,.T.);
#20=FACE_BOUND('',#84,.T.);
#21=FACE_BOUND('',#85,.T.);
#22=FACE_BOUND('',#86,.T.);
#23=FACE_BOUND('',#87,.T.);
#24=FACE_BOUND('',#88,.T.);
#25=PLANE('',#456);
#26=PLANE('',#460);
#27=PLANE('',#464);
#28=PLANE('',#468);
#29=PLANE('',#481);
#30=PLANE('',#485);
#31=PLANE('',#489);
#32=PLANE('',#493);
#33=PLANE('',#497);
#34=PLANE('',#498);
#35=FACE_OUTER_BOUND('',#57,.T.);
#36=FACE_OUTER_BOUND('',#58,.T.);
#37=FACE_OUTER_BOUND('',#59,.T.);
#38=FACE_OUTER_BOUND('',#60,.T.);
#39=FACE_OUTER_BOUND('',#61,.T.);
#40=FACE_OUTER_BOUND('',#62,.T.);
#41=FACE_OUTER_BOUND('',#63,.T.);
#42=FACE_OUTER_BOUND('',#64,.T.);
#43=FACE_OUTER_BOUND('',#65,.T.);
#44=FACE_OUTER_BOUND('',#66,.T.);
#45=FACE_OUTER_BOUND('',#67,.T.);
#46=FACE_OUTER_BOUND('',#68,.T.);
#47=FACE_OUTER_BOUND('',#69,.T.);
#48=FACE_OUTER_BOUND('',#70,.T.);
#49=FACE_OUTER_BOUND('',#71,.T.);
#50=FACE_OUTER_BOUND('',#72,.T.);
#51=FACE_OUTER_BOUND('',#73,.T.);
#52=FACE_OUTER_BOUND('',#74,.T.);
#53=FACE_OUTER_BOUND('',#75,.T.);
#54=FACE_OUTER_BOUND('',#76,.T.);
#55=FACE_OUTER_BOUND('',#77,.T.);
#56=FACE_OUTER_BOUND('',#83,.T.);
#57=EDGE_LOOP('',(#285,#286,#287,#288));
#58=EDGE_LOOP('',(#289,#290,#291,#292));
#59=EDGE_LOOP('',(#293,#294,#295,#296));
#60=EDGE_LOOP('',(#297,#298,#299,#300));
#61=EDGE_LOOP('',(#301,#302,#303,#304));
#62=EDGE_LOOP('',(#305,#306,#307,#308));
#63=EDGE_LOOP('',(#309,#310,#311,#312));
#64=EDGE_LOOP('',(#313,#314,#315,#316));
#65=EDGE_LOOP('',(#317,#318,#319,#320));
#66=EDGE_LOOP('',(#321,#322,#323,#324));
#67=EDGE_LOOP('',(#325,#326,#327,#328));
#68=EDGE_LOOP('',(#329,#330,#331,#332));
#69=EDGE_LOOP('',(#333,#334,#335,#336));
#70=EDGE_LOOP('',(#337,#338,#339,#340));
#71=EDGE_LOOP('',(#341,#342,#343,#344));
#72=EDGE_LOOP('',(#345,#346,#347,#348));
#73=EDGE_LOOP('',(#349,#350,#351,#352));
#74=EDGE_LOOP('',(#353,#354,#355,#356));
#75=EDGE_LOOP('',(#357,#358,#359,#360));
#76=EDGE_LOOP('',(#361,#362,#363,#364));
#77=EDGE_LOOP('',(#365,#366,#367,#368,#369,#370,#371,#372));
#78=EDGE_LOOP('',(#373,#374,#375,#376,#377,#378,#379,#380));
#79=EDGE_LOOP('',(#381));
#80=EDGE_LOOP('',(#382));
#81=EDGE_LOOP('',(#383));
#82=EDGE_LOOP('',(#384));
#83=EDGE_LOOP('',(#385,#386,#387,#388,#389,#390,#391,#392));
#84=EDGE_LOOP('',(#393,#394,#395,#396,#397,#398,#399,#400));
#85=EDGE_LOOP('',(#401));
#86=EDGE_LOOP('',(#402));
#87=EDGE_LOOP('',(#403));
#88=EDGE_LOOP('',(#404));
#89=LINE('',#635,#125);
#90=LINE('',#638,#126);
#91=LINE('',#641,#127);
#92=LINE('',#643,#128);
#93=LINE('',#644,#129);
#94=LINE('',#649,#130);
#95=LINE('',#653,#131);
#96=LINE('',#655,#132);
#97=LINE('',#656,#133);
#98=LINE('',#661,#134);
#99=LINE('',#665,#135);
#100=LINE('',#667,#136);
#101=LINE('',#668,#137);
#102=LINE('',#674,#138);
#103=LINE('',#676,#139);
#104=LINE('',#677,#140);
#105=LINE('',#682,#141);
#106=LINE('',#688,#142);
#107=LINE('',#694,#143);
#108=LINE('',#700,#144);
#109=LINE('',#705,#145);
#110=LINE('',#707,#146);
#111=LINE('',#709,#147);
#112=LINE('',#710,#148);
#113=LINE('',#716,#149);
#114=LINE('',#719,#150);
#115=LINE('',#721,#151);
#116=LINE('',#722,#152);
#117=LINE('',#728,#153);
#118=LINE('',#731,#154);
#119=LINE('',#733,#155);
#120=LINE('',#734,#156);
#121=LINE('',#740,#157);
#122=LINE('',#743,#158);
#123=LINE('',#745,#159);
#124=LINE('',#746,#160);
#125=VECTOR('',#505,10.);
#126=VECTOR('',#508,10.);
#127=VECTOR('',#511,10.);
#128=VECTOR('',#512,10.);
#129=VECTOR('',#513,10.);
#130=VECTOR('',#518,10.);
#131=VECTOR('',#523,10.);
#132=VECTOR('',#524,10.);
#133=VECTOR('',#525,10.);
#134=VECTOR('',#530,10.);
#135=VECTOR('',#535,10.);
#136=VECTOR('',#536,10.);
#137=VECTOR('',#537,10.);
#138=VECTOR('',#544,10.);
#139=VECTOR('',#547,10.);
#140=VECTOR('',#548,10.);
#141=VECTOR('',#553,2.25);
#142=VECTOR('',#560,2.25);
#143=VECTOR('',#567,1.8);
#144=VECTOR('',#574,1.8);
#145=VECTOR('',#579,10.);
#146=VECTOR('',#580,10.);
#147=VECTOR('',#581,10.);
#148=VECTOR('',#582,10.);
#149=VECTOR('',#589,10.);
#150=VECTOR('',#592,10.);
#151=VECTOR('',#593,10.);
#152=VECTOR('',#594,10.);
#153=VECTOR('',#601,10.);
#154=VECTOR('',#604,10.);
#155=VECTOR('',#605,10.);
#156=VECTOR('',#606,10.);
#157=VECTOR('',#613,10.);
#158=VECTOR('',#616,10.);
#159=VECTOR('',#617,10.);
#160=VECTOR('',#618,10.);
#161=CIRCLE('',#454,2.);
#162=CIRCLE('',#455,2.);
#163=CIRCLE('',#458,2.);
#164=CIRCLE('',#459,2.);
#165=CIRCLE('',#462,2.);
#166=CIRCLE('',#463,2.);
#167=CIRCLE('',#466,2.);
#168=CIRCLE('',#467,2.);
#169=CIRCLE('',#470,2.1);
#170=CIRCLE('',#471,2.1);
#171=CIRCLE('',#473,2.1);
#172=CIRCLE('',#474,2.1);
#173=CIRCLE('',#476,1.8);
#174=CIRCLE('',#477,1.8);
#175=CIRCLE('',#479,1.8);
#176=CIRCLE('',#480,1.8);
#177=CIRCLE('',#483,4.5);
#178=CIRCLE('',#484,4.5);
#179=CIRCLE('',#487,4.5);
#180=CIRCLE('',#488,4.5);
#181=CIRCLE('',#491,4.5);
#182=CIRCLE('',#492,4.5);
#183=CIRCLE('',#495,4.5);
#184=CIRCLE('',#496,4.5);
#185=VERTEX_POINT('',#631);
#186=VERTEX_POINT('',#632);
#187=VERTEX_POINT('',#634);
#188=VERTEX_POINT('',#636);
#189=VERTEX_POINT('',#640);
#190=VERTEX_POINT('',#642);
#191=VERTEX_POINT('',#646);
#192=VERTEX_POINT('',#648);
#193=VERTEX_POINT('',#652);
#194=VERTEX_POINT('',#654);
#195=VERTEX_POINT('',#658);
#196=VERTEX_POINT('',#660);
#197=VERTEX_POINT('',#664);
#198=VERTEX_POINT('',#666);
#199=VERTEX_POINT('',#670);
#200=VERTEX_POINT('',#672);
#201=VERTEX_POINT('',#679);
#202=VERTEX_POINT('',#681);
#203=VERTEX_POINT('',#685);
#204=VERTEX_POINT('',#687);
#205=VERTEX_POINT('',#691);
#206=VERTEX_POINT('',#693);
#207=VERTEX_POINT('',#697);
#208=VERTEX_POINT('',#699);
#209=VERTEX_POINT('',#703);
#210=VERTEX_POINT('',#704);
#211=VERTEX_POINT('',#706);
#212=VERTEX_POINT('',#708);
#213=VERTEX_POINT('',#712);
#214=VERTEX_POINT('',#714);
#215=VERTEX_POINT('',#718);
#216=VERTEX_POINT('',#720);
#217=VERTEX_POINT('',#724);
#218=VERTEX_POINT('',#726);
#219=VERTEX_POINT('',#730);
#220=VERTEX_POINT('',#732);
#221=VERTEX_POINT('',#736);
#222=VERTEX_POINT('',#738);
#223=VERTEX_POINT('',#742);
#224=VERTEX_POINT('',#744);
#225=EDGE_CURVE('',#185,#186,#161,.T.);
#226=EDGE_CURVE('',#186,#187,#89,.T.);
#227=EDGE_CURVE('',#187,#188,#162,.T.);
#228=EDGE_CURVE('',#188,#185,#90,.T.);
#229=EDGE_CURVE('',#186,#189,#91,.F.);
#230=EDGE_CURVE('',#190,#189,#92,.T.);
#231=EDGE_CURVE('',#187,#190,#93,.F.);
#232=EDGE_CURVE('',#189,#191,#163,.T.);
#233=EDGE_CURVE('',#191,#192,#94,.T.);
#234=EDGE_CURVE('',#192,#190,#164,.T.);
#235=EDGE_CURVE('',#191,#193,#95,.F.);
#236=EDGE_CURVE('',#194,#193,#96,.T.);
#237=EDGE_CURVE('',#192,#194,#97,.F.);
#238=EDGE_CURVE('',#193,#195,#165,.T.);
#239=EDGE_CURVE('',#195,#196,#98,.T.);
#240=EDGE_CURVE('',#196,#194,#166,.T.);
#241=EDGE_CURVE('',#195,#197,#99,.F.);
#242=EDGE_CURVE('',#198,#197,#100,.T.);
#243=EDGE_CURVE('',#196,#198,#101,.F.);
#244=EDGE_CURVE('',#199,#198,#167,.T.);
#245=EDGE_CURVE('',#197,#200,#168,.T.);
#246=EDGE_CURVE('',#200,#199,#102,.T.);
#247=EDGE_CURVE('',#199,#188,#103,.F.);
#248=EDGE_CURVE('',#200,#185,#104,.F.);
#249=EDGE_CURVE('',#201,#201,#169,.F.);
#250=EDGE_CURVE('',#201,#202,#105,.T.);
#251=EDGE_CURVE('',#202,#202,#170,.F.);
#252=EDGE_CURVE('',#203,#203,#171,.F.);
#253=EDGE_CURVE('',#203,#204,#106,.T.);
#254=EDGE_CURVE('',#204,#204,#172,.F.);
#255=EDGE_CURVE('',#205,#205,#173,.T.);
#256=EDGE_CURVE('',#205,#206,#107,.T.);
#257=EDGE_CURVE('',#206,#206,#174,.T.);
#258=EDGE_CURVE('',#207,#207,#175,.T.);
#259=EDGE_CURVE('',#207,#208,#108,.T.);
#260=EDGE_CURVE('',#208,#208,#176,.T.);
#261=EDGE_CURVE('',#209,#210,#109,.T.);
#262=EDGE_CURVE('',#210,#211,#110,.T.);
#263=EDGE_CURVE('',#212,#211,#111,.T.);
#264=EDGE_CURVE('',#209,#212,#112,.T.);
#265=EDGE_CURVE('',#209,#213,#177,.T.);
#266=EDGE_CURVE('',#214,#212,#178,.T.);
#267=EDGE_CURVE('',#213,#214,#113,.T.);
#268=EDGE_CURVE('',#215,#213,#114,.T.);
#269=EDGE_CURVE('',#216,#214,#115,.T.);
#270=EDGE_CURVE('',#215,#216,#116,.T.);
#271=EDGE_CURVE('',#215,#217,#179,.T.);
#272=EDGE_CURVE('',#218,#216,#180,.T.);
#273=EDGE_CURVE('',#217,#218,#117,.T.);
#274=EDGE_CURVE('',#219,#217,#118,.T.);
#275=EDGE_CURVE('',#220,#218,#119,.T.);
#276=EDGE_CURVE('',#219,#220,#120,.T.);
#277=EDGE_CURVE('',#219,#221,#181,.T.);
#278=EDGE_CURVE('',#222,#220,#182,.T.);
#279=EDGE_CURVE('',#221,#222,#121,.T.);
#280=EDGE_CURVE('',#223,#221,#122,.T.);
#281=EDGE_CURVE('',#224,#222,#123,.T.);
#282=EDGE_CURVE('',#223,#224,#124,.T.);
#283=EDGE_CURVE('',#223,#210,#183,.T.);
#284=EDGE_CURVE('',#211,#224,#184,.T.);
#285=ORIENTED_EDGE('',*,*,#225,.T.);
#286=ORIENTED_EDGE('',*,*,#226,.T.);
#287=ORIENTED_EDGE('',*,*,#227,.T.);
#288=ORIENTED_EDGE('',*,*,#228,.T.);
#289=ORIENTED_EDGE('',*,*,#226,.F.);
#290=ORIENTED_EDGE('',*,*,#229,.T.);
#291=ORIENTED_EDGE('',*,*,#230,.F.);
#292=ORIENTED_EDGE('',*,*,#231,.F.);
#293=ORIENTED_EDGE('',*,*,#232,.T.);
#294=ORIENTED_EDGE('',*,*,#233,.T.);
#295=ORIENTED_EDGE('',*,*,#234,.T.);
#296=ORIENTED_EDGE('',*,*,#230,.T.);
#297=ORIENTED_EDGE('',*,*,#233,.F.);
#298=ORIENTED_EDGE('',*,*,#235,.T.);
#299=ORIENTED_EDGE('',*,*,#236,.F.);
#300=ORIENTED_EDGE('',*,*,#237,.F.);
#301=ORIENTED_EDGE('',*,*,#238,.T.);
#302=ORIENTED_EDGE('',*,*,#239,.T.);
#303=ORIENTED_EDGE('',*,*,#240,.T.);
#304=ORIENTED_EDGE('',*,*,#236,.T.);
#305=ORIENTED_EDGE('',*,*,#239,.F.);
#306=ORIENTED_EDGE('',*,*,#241,.T.);
#307=ORIENTED_EDGE('',*,*,#242,.F.);
#308=ORIENTED_EDGE('',*,*,#243,.F.);
#309=ORIENTED_EDGE('',*,*,#244,.T.);
#310=ORIENTED_EDGE('',*,*,#242,.T.);
#311=ORIENTED_EDGE('',*,*,#245,.T.);
#312=ORIENTED_EDGE('',*,*,#246,.T.);
#313=ORIENTED_EDGE('',*,*,#228,.F.);
#314=ORIENTED_EDGE('',*,*,#247,.F.);
#315=ORIENTED_EDGE('',*,*,#246,.F.);
#316=ORIENTED_EDGE('',*,*,#248,.T.);
#317=ORIENTED_EDGE('',*,*,#249,.F.);
#318=ORIENTED_EDGE('',*,*,#250,.T.);
#319=ORIENTED_EDGE('',*,*,#251,.T.);
#320=ORIENTED_EDGE('',*,*,#250,.F.);
#321=ORIENTED_EDGE('',*,*,#252,.F.);
#322=ORIENTED_EDGE('',*,*,#253,.T.);
#323=ORIENTED_EDGE('',*,*,#254,.T.);
#324=ORIENTED_EDGE('',*,*,#253,.F.);
#325=ORIENTED_EDGE('',*,*,#255,.F.);
#326=ORIENTED_EDGE('',*,*,#256,.T.);
#327=ORIENTED_EDGE('',*,*,#257,.T.);
#328=ORIENTED_EDGE('',*,*,#256,.F.);
#329=ORIENTED_EDGE('',*,*,#258,.F.);
#330=ORIENTED_EDGE('',*,*,#259,.T.);
#331=ORIENTED_EDGE('',*,*,#260,.T.);
#332=ORIENTED_EDGE('',*,*,#259,.F.);
#333=ORIENTED_EDGE('',*,*,#261,.T.);
#334=ORIENTED_EDGE('',*,*,#262,.T.);
#335=ORIENTED_EDGE('',*,*,#263,.F.);
#336=ORIENTED_EDGE('',*,*,#264,.F.);
#337=ORIENTED_EDGE('',*,*,#265,.F.);
#338=ORIENTED_EDGE('',*,*,#264,.T.);
#339=ORIENTED_EDGE('',*,*,#266,.F.);
#340=ORIENTED_EDGE('',*,*,#267,.F.);
#341=ORIENTED_EDGE('',*,*,#268,.T.);
#342=ORIENTED_EDGE('',*,*,#267,.T.);
#343=ORIENTED_EDGE('',*,*,#269,.F.);
#344=ORIENTED_EDGE('',*,*,#270,.F.);
#345=ORIENTED_EDGE('',*,*,#271,.F.);
#346=ORIENTED_EDGE('',*,*,#270,.T.);
#347=ORIENTED_EDGE('',*,*,#272,.F.);
#348=ORIENTED_EDGE('',*,*,#273,.F.);
#349=ORIENTED_EDGE('',*,*,#274,.T.);
#350=ORIENTED_EDGE('',*,*,#273,.T.);
#351=ORIENTED_EDGE('',*,*,#275,.F.);
#352=ORIENTED_EDGE('',*,*,#276,.F.);
#353=ORIENTED_EDGE('',*,*,#277,.F.);
#354=ORIENTED_EDGE('',*,*,#276,.T.);
#355=ORIENTED_EDGE('',*,*,#278,.F.);
#356=ORIENTED_EDGE('',*,*,#279,.F.);
#357=ORIENTED_EDGE('',*,*,#280,.T.);
#358=ORIENTED_EDGE('',*,*,#279,.T.);
#359=ORIENTED_EDGE('',*,*,#281,.F.);
#360=ORIENTED_EDGE('',*,*,#282,.F.);
#361=ORIENTED_EDGE('',*,*,#283,.F.);
#362=ORIENTED_EDGE('',*,*,#282,.T.);
#363=ORIENTED_EDGE('',*,*,#284,.F.);
#364=ORIENTED_EDGE('',*,*,#262,.F.);
#365=ORIENTED_EDGE('',*,*,#284,.T.);
#366=ORIENTED_EDGE('',*,*,#281,.T.);
#367=ORIENTED_EDGE('',*,*,#278,.T.);
#368=ORIENTED_EDGE('',*,*,#275,.T.);
#369=ORIENTED_EDGE('',*,*,#272,.T.);
#370=ORIENTED_EDGE('',*,*,#269,.T.);
#371=ORIENTED_EDGE('',*,*,#266,.T.);
#372=ORIENTED_EDGE('',*,*,#263,.T.);
#373=ORIENTED_EDGE('',*,*,#247,.T.);
#374=ORIENTED_EDGE('',*,*,#227,.F.);
#375=ORIENTED_EDGE('',*,*,#231,.T.);
#376=ORIENTED_EDGE('',*,*,#234,.F.);
#377=ORIENTED_EDGE('',*,*,#237,.T.);
#378=ORIENTED_EDGE('',*,*,#240,.F.);
#379=ORIENTED_EDGE('',*,*,#243,.T.);
#380=ORIENTED_EDGE('',*,*,#244,.F.);
#381=ORIENTED_EDGE('',*,*,#258,.T.);
#382=ORIENTED_EDGE('',*,*,#255,.T.);
#383=ORIENTED_EDGE('',*,*,#252,.T.);
#384=ORIENTED_EDGE('',*,*,#249,.T.);
#385=ORIENTED_EDGE('',*,*,#283,.T.);
#386=ORIENTED_EDGE('',*,*,#261,.F.);
#387=ORIENTED_EDGE('',*,*,#265,.T.);
#388=ORIENTED_EDGE('',*,*,#268,.F.);
#389=ORIENTED_EDGE('',*,*,#271,.T.);
#390=ORIENTED_EDGE('',*,*,#274,.F.);
#391=ORIENTED_EDGE('',*,*,#277,.T.);
#392=ORIENTED_EDGE('',*,*,#280,.F.);
#393=ORIENTED_EDGE('',*,*,#232,.F.);
#394=ORIENTED_EDGE('',*,*,#229,.F.);
#395=ORIENTED_EDGE('',*,*,#225,.F.);
#396=ORIENTED_EDGE('',*,*,#248,.F.);
#397=ORIENTED_EDGE('',*,*,#245,.F.);
#398=ORIENTED_EDGE('',*,*,#241,.F.);
#399=ORIENTED_EDGE('',*,*,#238,.F.);
#400=ORIENTED_EDGE('',*,*,#235,.F.);
#401=ORIENTED_EDGE('',*,*,#260,.F.);
#402=ORIENTED_EDGE('',*,*,#257,.F.);
#403=ORIENTED_EDGE('',*,*,#254,.F.);
#404=ORIENTED_EDGE('',*,*,#251,.F.);
#405=CYLINDRICAL_SURFACE('',#453,2.);
#406=CYLINDRICAL_SURFACE('',#457,2.);
#407=CYLINDRICAL_SURFACE('',#461,2.);
#408=CYLINDRICAL_SURFACE('',#465,2.);
#409=CYLINDRICAL_SURFACE('',#469,2.1);
#410=CYLINDRICAL_SURFACE('',#472,2.1);
#411=CYLINDRICAL_SURFACE('',#475,1.8);
#412=CYLINDRICAL_SURFACE('',#478,1.8);
#413=CYLINDRICAL_SURFACE('',#482,4.5);
#414=CYLINDRICAL_SURFACE('',#486,4.5);
#415=CYLINDRICAL_SURFACE('',#490,4.5);
#416=CYLINDRICAL_SURFACE('',#494,4.5);
#417=ADVANCED_FACE('',(#35),#405,.F.);
#418=ADVANCED_FACE('',(#36),#25,.T.);
#419=ADVANCED_FACE('',(#37),#406,.F.);
#420=ADVANCED_FACE('',(#38),#26,.T.);
#421=ADVANCED_FACE('',(#39),#407,.F.);
#422=ADVANCED_FACE('',(#40),#27,.T.);
#423=ADVANCED_FACE('',(#41),#408,.F.);
#424=ADVANCED_FACE('',(#42),#28,.T.);
#425=ADVANCED_FACE('',(#43),#409,.F.);
#426=ADVANCED_FACE('',(#44),#410,.F.);
#427=ADVANCED_FACE('',(#45),#411,.F.);
#428=ADVANCED_FACE('',(#46),#412,.F.);
#429=ADVANCED_FACE('',(#47),#29,.T.);
#430=ADVANCED_FACE('',(#48),#413,.T.);
#431=ADVANCED_FACE('',(#49),#30,.T.);
#432=ADVANCED_FACE('',(#50),#414,.T.);
#433=ADVANCED_FACE('',(#51),#31,.T.);
#434=ADVANCED_FACE('',(#52),#415,.T.);
#435=ADVANCED_FACE('',(#53),#32,.T.);
#436=ADVANCED_FACE('',(#54),#416,.T.);
#437=ADVANCED_FACE('',(#55,#15,#16,#17,#18,#19),#33,.T.);
#438=ADVANCED_FACE('',(#56,#20,#21,#22,#23,#24),#34,.F.);
#439=CLOSED_SHELL('',(#417,#418,#419,#420,#421,#422,#423,#424,#425,#426,
#427,#428,#429,#430,#431,#432,#433,#434,#435,#436,#437,#438));
#440=DERIVED_UNIT_ELEMENT(#442,1.);
#441=DERIVED_UNIT_ELEMENT(#757,-3.);
#442=(
MASS_UNIT()
NAMED_UNIT(*)
SI_UNIT(.KILO.,.GRAM.)
);
#443=DERIVED_UNIT((#440,#441));
#444=MEASURE_REPRESENTATION_ITEM('density measure',
POSITIVE_RATIO_MEASURE(7850.),#443);
#445=PROPERTY_DEFINITION_REPRESENTATION(#450,#447);
#446=PROPERTY_DEFINITION_REPRESENTATION(#451,#448);
#447=REPRESENTATION('material name',(#449),#754);
#448=REPRESENTATION('density',(#444),#754);
#449=DESCRIPTIVE_REPRESENTATION_ITEM('Acier','Acier');
#450=PROPERTY_DEFINITION('material property','material name',#764);
#451=PROPERTY_DEFINITION('material property','density of part',#764);
#452=AXIS2_PLACEMENT_3D('',#629,#499,#500);
#453=AXIS2_PLACEMENT_3D('',#630,#501,#502);
#454=AXIS2_PLACEMENT_3D('',#633,#503,#504);
#455=AXIS2_PLACEMENT_3D('',#637,#506,#507);
#456=AXIS2_PLACEMENT_3D('',#639,#509,#510);
#457=AXIS2_PLACEMENT_3D('',#645,#514,#515);
#458=AXIS2_PLACEMENT_3D('',#647,#516,#517);
#459=AXIS2_PLACEMENT_3D('',#650,#519,#520);
#460=AXIS2_PLACEMENT_3D('',#651,#521,#522);
#461=AXIS2_PLACEMENT_3D('',#657,#526,#527);
#462=AXIS2_PLACEMENT_3D('',#659,#528,#529);
#463=AXIS2_PLACEMENT_3D('',#662,#531,#532);
#464=AXIS2_PLACEMENT_3D('',#663,#533,#534);
#465=AXIS2_PLACEMENT_3D('',#669,#538,#539);
#466=AXIS2_PLACEMENT_3D('',#671,#540,#541);
#467=AXIS2_PLACEMENT_3D('',#673,#542,#543);
#468=AXIS2_PLACEMENT_3D('',#675,#545,#546);
#469=AXIS2_PLACEMENT_3D('',#678,#549,#550);
#470=AXIS2_PLACEMENT_3D('',#680,#551,#552);
#471=AXIS2_PLACEMENT_3D('',#683,#554,#555);
#472=AXIS2_PLACEMENT_3D('',#684,#556,#557);
#473=AXIS2_PLACEMENT_3D('',#686,#558,#559);
#474=AXIS2_PLACEMENT_3D('',#689,#561,#562);
#475=AXIS2_PLACEMENT_3D('',#690,#563,#564);
#476=AXIS2_PLACEMENT_3D('',#692,#565,#566);
#477=AXIS2_PLACEMENT_3D('',#695,#568,#569);
#478=AXIS2_PLACEMENT_3D('',#696,#570,#571);
#479=AXIS2_PLACEMENT_3D('',#698,#572,#573);
#480=AXIS2_PLACEMENT_3D('',#701,#575,#576);
#481=AXIS2_PLACEMENT_3D('',#702,#577,#578);
#482=AXIS2_PLACEMENT_3D('',#711,#583,#584);
#483=AXIS2_PLACEMENT_3D('',#713,#585,#586);
#484=AXIS2_PLACEMENT_3D('',#715,#587,#588);
#485=AXIS2_PLACEMENT_3D('',#717,#590,#591);
#486=AXIS2_PLACEMENT_3D('',#723,#595,#596);
#487=AXIS2_PLACEMENT_3D('',#725,#597,#598);
#488=AXIS2_PLACEMENT_3D('',#727,#599,#600);
#489=AXIS2_PLACEMENT_3D('',#729,#602,#603);
#490=AXIS2_PLACEMENT_3D('',#735,#607,#608);
#491=AXIS2_PLACEMENT_3D('',#737,#609,#610);
#492=AXIS2_PLACEMENT_3D('',#739,#611,#612);
#493=AXIS2_PLACEMENT_3D('',#741,#614,#615);
#494=AXIS2_PLACEMENT_3D('',#747,#619,#620);
#495=AXIS2_PLACEMENT_3D('',#748,#621,#622);
#496=AXIS2_PLACEMENT_3D('',#749,#623,#624);
#497=AXIS2_PLACEMENT_3D('',#750,#625,#626);
#498=AXIS2_PLACEMENT_3D('',#751,#627,#628);
#499=DIRECTION('axis',(0.,0.,1.));
#500=DIRECTION('refdir',(1.,0.,0.));
#501=DIRECTION('center_axis',(0.,0.,1.));
#502=DIRECTION('ref_axis',(0.707106781186548,-0.707106781186548,0.));
#503=DIRECTION('center_axis',(0.,0.,-1.));
#504=DIRECTION('ref_axis',(0.707106781186548,-0.707106781186548,0.));
#505=DIRECTION('',(0.,0.,1.));
#506=DIRECTION('center_axis',(0.,0.,1.));
#507=DIRECTION('ref_axis',(0.707106781186548,-0.707106781186548,0.));
#508=DIRECTION('',(0.,0.,-1.));
#509=DIRECTION('center_axis',(-6.83214169000096E-17,1.,0.));
#510=DIRECTION('ref_axis',(-1.,-6.83214169000096E-17,0.));
#511=DIRECTION('',(1.,6.83214169000096E-17,0.));
#512=DIRECTION('',(0.,0.,-1.));
#513=DIRECTION('',(1.,6.83214169000096E-17,0.));
#514=DIRECTION('center_axis',(0.,0.,1.));
#515=DIRECTION('ref_axis',(-0.707106781186547,-0.707106781186548,0.));
#516=DIRECTION('center_axis',(0.,0.,-1.));
#517=DIRECTION('ref_axis',(-0.707106781186547,-0.707106781186548,0.));
#518=DIRECTION('',(0.,0.,1.));
#519=DIRECTION('center_axis',(0.,0.,1.));
#520=DIRECTION('ref_axis',(-0.707106781186547,-0.707106781186548,0.));
#521=DIRECTION('center_axis',(1.,0.,0.));
#522=DIRECTION('ref_axis',(0.,1.,0.));
#523=DIRECTION('',(0.,-1.,0.));
#524=DIRECTION('',(0.,0.,-1.));
#525=DIRECTION('',(0.,-1.,0.));
#526=DIRECTION('center_axis',(0.,0.,1.));
#527=DIRECTION('ref_axis',(-0.707106781186548,0.707106781186548,0.));
#528=DIRECTION('center_axis',(0.,0.,-1.));
#529=DIRECTION('ref_axis',(-0.707106781186548,0.707106781186548,0.));
#530=DIRECTION('',(0.,0.,1.));
#531=DIRECTION('center_axis',(0.,0.,1.));
#532=DIRECTION('ref_axis',(-0.707106781186548,0.707106781186548,0.));
#533=DIRECTION('center_axis',(0.,-1.,0.));
#534=DIRECTION('ref_axis',(1.,0.,0.));
#535=DIRECTION('',(-1.,0.,0.));
#536=DIRECTION('',(0.,0.,-1.));
#537=DIRECTION('',(-1.,0.,0.));
#538=DIRECTION('center_axis',(0.,0.,-1.));
#539=DIRECTION('ref_axis',(0.707106781186548,0.707106781186547,0.));
#540=DIRECTION('center_axis',(0.,0.,1.));
#541=DIRECTION('ref_axis',(0.707106781186548,0.707106781186547,0.));
#542=DIRECTION('center_axis',(0.,0.,-1.));
#543=DIRECTION('ref_axis',(0.707106781186548,0.707106781186547,0.));
#544=DIRECTION('',(0.,0.,1.));
#545=DIRECTION('center_axis',(-1.,-1.36642833800019E-16,0.));
#546=DIRECTION('ref_axis',(1.36642833800019E-16,-1.,0.));
#547=DIRECTION('',(-1.36642833800019E-16,1.,0.));
#548=DIRECTION('',(-1.36642833800019E-16,1.,0.));
#549=DIRECTION('center_axis',(0.,0.,1.));
#550=DIRECTION('ref_axis',(1.,0.,0.));
#551=DIRECTION('center_axis',(0.,0.,1.));
#552=DIRECTION('ref_axis',(1.,0.,0.));
#553=DIRECTION('',(0.,0.,-1.));
#554=DIRECTION('center_axis',(0.,0.,1.));
#555=DIRECTION('ref_axis',(1.,0.,0.));
#556=DIRECTION('center_axis',(0.,0.,1.));
#557=DIRECTION('ref_axis',(1.,0.,0.));
#558=DIRECTION('center_axis',(0.,0.,1.));
#559=DIRECTION('ref_axis',(1.,0.,0.));
#560=DIRECTION('',(0.,0.,-1.));
#561=DIRECTION('center_axis',(0.,0.,1.));
#562=DIRECTION('ref_axis',(1.,0.,0.));
#563=DIRECTION('center_axis',(0.,0.,1.));
#564=DIRECTION('ref_axis',(1.,0.,0.));
#565=DIRECTION('center_axis',(0.,0.,-1.));
#566=DIRECTION('ref_axis',(1.,0.,0.));
#567=DIRECTION('',(0.,0.,-1.));
#568=DIRECTION('center_axis',(0.,0.,-1.));
#569=DIRECTION('ref_axis',(1.,0.,0.));
#570=DIRECTION('center_axis',(0.,0.,1.));
#571=DIRECTION('ref_axis',(1.,0.,0.));
#572=DIRECTION('center_axis',(0.,0.,-1.));
#573=DIRECTION('ref_axis',(1.,0.,0.));
#574=DIRECTION('',(0.,0.,-1.));
#575=DIRECTION('center_axis',(0.,0.,-1.));
#576=DIRECTION('ref_axis',(1.,0.,0.));
#577=DIRECTION('center_axis',(-1.,0.,0.));
#578=DIRECTION('ref_axis',(0.,-1.,0.));
#579=DIRECTION('',(0.,-1.,0.));
#580=DIRECTION('',(0.,0.,1.));
#581=DIRECTION('',(0.,-1.,0.));
#582=DIRECTION('',(0.,0.,1.));
#583=DIRECTION('center_axis',(0.,0.,1.));
#584=DIRECTION('ref_axis',(-0.707106781186548,0.707106781186548,0.));
#585=DIRECTION('center_axis',(0.,0.,-1.));
#586=DIRECTION('ref_axis',(-0.707106781186548,0.707106781186548,0.));
#587=DIRECTION('center_axis',(0.,0.,1.));
#588=DIRECTION('ref_axis',(-0.707106781186548,0.707106781186548,0.));
#589=DIRECTION('',(0.,0.,1.));
#590=DIRECTION('center_axis',(0.,1.,0.));
#591=DIRECTION('ref_axis',(-1.,0.,0.));
#592=DIRECTION('',(-1.,0.,0.));
#593=DIRECTION('',(-1.,0.,0.));
#594=DIRECTION('',(0.,0.,1.));
#595=DIRECTION('center_axis',(0.,0.,1.));
#596=DIRECTION('ref_axis',(0.707106781186548,0.707106781186548,0.));
#597=DIRECTION('center_axis',(0.,0.,-1.));
#598=DIRECTION('ref_axis',(0.707106781186548,0.707106781186548,0.));
#599=DIRECTION('center_axis',(0.,0.,1.));
#600=DIRECTION('ref_axis',(0.707106781186548,0.707106781186548,0.));
#601=DIRECTION('',(0.,0.,1.));
#602=DIRECTION('center_axis',(1.,0.,0.));
#603=DIRECTION('ref_axis',(0.,1.,0.));
#604=DIRECTION('',(0.,1.,0.));
#605=DIRECTION('',(0.,1.,0.));
#606=DIRECTION('',(0.,0.,1.));
#607=DIRECTION('center_axis',(0.,0.,1.));
#608=DIRECTION('ref_axis',(0.707106781186547,-0.707106781186548,0.));
#609=DIRECTION('center_axis',(0.,0.,-1.));
#610=DIRECTION('ref_axis',(0.707106781186547,-0.707106781186548,0.));
#611=DIRECTION('center_axis',(0.,0.,1.));
#612=DIRECTION('ref_axis',(0.707106781186547,-0.707106781186548,0.));
#613=DIRECTION('',(0.,0.,1.));
#614=DIRECTION('center_axis',(-4.44089209850177E-16,-1.,0.));
#615=DIRECTION('ref_axis',(1.,-4.44089209850177E-16,0.));
#616=DIRECTION('',(1.,-4.44089209850177E-16,0.));
#617=DIRECTION('',(1.,-4.44089209850177E-16,0.));
#618=DIRECTION('',(0.,0.,1.));
#619=DIRECTION('center_axis',(0.,0.,1.));
#620=DIRECTION('ref_axis',(-0.707106781186548,-0.707106781186548,0.));
#621=DIRECTION('center_axis',(0.,0.,-1.));
#622=DIRECTION('ref_axis',(-0.707106781186548,-0.707106781186548,0.));
#623=DIRECTION('center_axis',(0.,0.,1.));
#624=DIRECTION('ref_axis',(-0.707106781186548,-0.707106781186548,0.));
#625=DIRECTION('center_axis',(0.,0.,1.));
#626=DIRECTION('ref_axis',(1.,0.,0.));
#627=DIRECTION('center_axis',(0.,0.,1.));
#628=DIRECTION('ref_axis',(1.,0.,0.));
#629=CARTESIAN_POINT('',(0.,0.,0.));
#630=CARTESIAN_POINT('Origin',(12.95,-12.95,3.429));
#631=CARTESIAN_POINT('',(14.95,-12.95,3.429));
#632=CARTESIAN_POINT('',(12.95,-14.95,3.429));
#633=CARTESIAN_POINT('Origin',(12.95,-12.95,3.429));
#634=CARTESIAN_POINT('',(12.95,-14.95,3.4544));
#635=CARTESIAN_POINT('',(12.95,-14.95,3.429));
#636=CARTESIAN_POINT('',(14.95,-12.95,3.4544));
#637=CARTESIAN_POINT('Origin',(12.95,-12.95,3.4544));
#638=CARTESIAN_POINT('',(14.95,-12.95,3.429));
#639=CARTESIAN_POINT('Origin',(14.25,-14.95,3.429));
#640=CARTESIAN_POINT('',(-12.95,-14.95,3.429));
#641=CARTESIAN_POINT('',(7.125,-14.95,3.429));
#642=CARTESIAN_POINT('',(-12.95,-14.95,3.4544));
#643=CARTESIAN_POINT('',(-12.95,-14.95,3.429));
#644=CARTESIAN_POINT('',(7.125,-14.95,3.4544));
#645=CARTESIAN_POINT('Origin',(-12.95,-12.95,3.429));
#646=CARTESIAN_POINT('',(-14.95,-12.95,3.429));
#647=CARTESIAN_POINT('Origin',(-12.95,-12.95,3.429));
#648=CARTESIAN_POINT('',(-14.95,-12.95,3.4544));
#649=CARTESIAN_POINT('',(-14.95,-12.95,3.429));
#650=CARTESIAN_POINT('Origin',(-12.95,-12.95,3.4544));
#651=CARTESIAN_POINT('Origin',(-14.95,-14.25,3.429));
#652=CARTESIAN_POINT('',(-14.95,12.95,3.429));
#653=CARTESIAN_POINT('',(-14.95,-7.12500000000001,3.429));
#654=CARTESIAN_POINT('',(-14.95,12.95,3.4544));
#655=CARTESIAN_POINT('',(-14.95,12.95,3.429));
#656=CARTESIAN_POINT('',(-14.95,-7.12500000000001,3.4544));
#657=CARTESIAN_POINT('Origin',(-12.95,12.95,3.429));
#658=CARTESIAN_POINT('',(-12.95,14.95,3.429));
#659=CARTESIAN_POINT('Origin',(-12.95,12.95,3.429));
#660=CARTESIAN_POINT('',(-12.95,14.95,3.4544));
#661=CARTESIAN_POINT('',(-12.95,14.95,3.429));
#662=CARTESIAN_POINT('Origin',(-12.95,12.95,3.4544));
#663=CARTESIAN_POINT('Origin',(-14.25,14.95,3.429));
#664=CARTESIAN_POINT('',(12.95,14.95,3.429));
#665=CARTESIAN_POINT('',(-7.125,14.95,3.429));
#666=CARTESIAN_POINT('',(12.95,14.95,3.4544));
#667=CARTESIAN_POINT('',(12.95,14.95,3.429));
#668=CARTESIAN_POINT('',(-7.125,14.95,3.4544));
#669=CARTESIAN_POINT('Origin',(12.95,12.95,3.429));
#670=CARTESIAN_POINT('',(14.95,12.95,3.4544));
#671=CARTESIAN_POINT('Origin',(12.95,12.95,3.4544));
#672=CARTESIAN_POINT('',(14.95,12.95,3.429));
#673=CARTESIAN_POINT('Origin',(12.95,12.95,3.429));
#674=CARTESIAN_POINT('',(14.95,12.95,3.429));
#675=CARTESIAN_POINT('Origin',(14.95,14.25,3.429));
#676=CARTESIAN_POINT('',(14.95,7.12499999999999,3.4544));
#677=CARTESIAN_POINT('',(14.95,7.12499999999999,3.429));
#678=CARTESIAN_POINT('Origin',(10.,20.0000006705523,3.429));
#679=CARTESIAN_POINT('',(7.9,20.0000006705523,3.4544));
#680=CARTESIAN_POINT('Origin',(10.,20.0000006705523,3.4544));
#681=CARTESIAN_POINT('',(7.9,20.0000006705523,3.429));
#682=CARTESIAN_POINT('',(7.9,20.0000006705523,3.429));
#683=CARTESIAN_POINT('Origin',(10.,20.0000006705523,3.429));
#684=CARTESIAN_POINT('Origin',(-10.,-20.0000006705523,3.429));
#685=CARTESIAN_POINT('',(-12.1,-20.0000006705523,3.4544));
#686=CARTESIAN_POINT('Origin',(-10.,-20.0000006705523,3.4544));
#687=CARTESIAN_POINT('',(-12.1,-20.0000006705523,3.429));
#688=CARTESIAN_POINT('',(-12.1,-20.0000006705523,3.429));
#689=CARTESIAN_POINT('Origin',(-10.,-20.0000006705523,3.429));
#690=CARTESIAN_POINT('Origin',(11.,-19.950000000005,3.429));
#691=CARTESIAN_POINT('',(9.2,-19.950000000005,3.4544));
#692=CARTESIAN_POINT('Origin',(11.,-19.950000000005,3.4544));
#693=CARTESIAN_POINT('',(9.2,-19.950000000005,3.429));
#694=CARTESIAN_POINT('',(9.2,-19.950000000005,3.429));
#695=CARTESIAN_POINT('Origin',(11.,-19.950000000005,3.429));
#696=CARTESIAN_POINT('Origin',(-10.9999999999973,19.95,3.429));
#697=CARTESIAN_POINT('',(-12.7999999999973,19.95,3.4544));
#698=CARTESIAN_POINT('Origin',(-10.9999999999973,19.95,3.4544));
#699=CARTESIAN_POINT('',(-12.7999999999973,19.95,3.429));
#700=CARTESIAN_POINT('',(-12.7999999999973,19.95,3.429));
#701=CARTESIAN_POINT('Origin',(-10.9999999999973,19.95,3.429));
#702=CARTESIAN_POINT('Origin',(-19.9999999999948,21.,3.429));
#703=CARTESIAN_POINT('',(-19.9999999999948,21.,3.429));
#704=CARTESIAN_POINT('',(-19.9999999999948,-21.,3.429));
#705=CARTESIAN_POINT('',(-19.9999999999948,-25.5,3.429));
#706=CARTESIAN_POINT('',(-19.9999999999948,-21.,3.4544));
#707=CARTESIAN_POINT('',(-19.9999999999948,-21.,3.429));
#708=CARTESIAN_POINT('',(-19.9999999999948,21.,3.4544));
#709=CARTESIAN_POINT('',(-19.9999999999948,-25.5,3.4544));
#710=CARTESIAN_POINT('',(-19.9999999999948,21.,3.429));
#711=CARTESIAN_POINT('Origin',(-15.4999999999948,21.,3.429));
#712=CARTESIAN_POINT('',(-15.4999999999948,25.5,3.429));
#713=CARTESIAN_POINT('Origin',(-15.4999999999948,21.,3.429));
#714=CARTESIAN_POINT('',(-15.4999999999948,25.5,3.4544));
#715=CARTESIAN_POINT('Origin',(-15.4999999999948,21.,3.4544));
#716=CARTESIAN_POINT('',(-15.4999999999948,25.5,3.429));
#717=CARTESIAN_POINT('Origin',(15.4999999999948,25.5,3.429));
#718=CARTESIAN_POINT('',(15.4999999999948,25.5,3.429));
#719=CARTESIAN_POINT('',(-19.9999999999948,25.5,3.429));
#720=CARTESIAN_POINT('',(15.4999999999948,25.5,3.4544));
#721=CARTESIAN_POINT('',(-19.9999999999948,25.5,3.4544));
#722=CARTESIAN_POINT('',(15.4999999999948,25.5,3.429));
#723=CARTESIAN_POINT('Origin',(15.4999999999948,21.,3.429));
#724=CARTESIAN_POINT('',(19.9999999999948,21.,3.429));
#725=CARTESIAN_POINT('Origin',(15.4999999999948,21.,3.429));
#726=CARTESIAN_POINT('',(19.9999999999948,21.,3.4544));
#727=CARTESIAN_POINT('Origin',(15.4999999999948,21.,3.4544));
#728=CARTESIAN_POINT('',(19.9999999999948,21.,3.429));
#729=CARTESIAN_POINT('Origin',(19.9999999999948,-21.,3.429));
#730=CARTESIAN_POINT('',(19.9999999999948,-21.,3.429));
#731=CARTESIAN_POINT('',(19.9999999999948,25.5,3.429));
#732=CARTESIAN_POINT('',(19.9999999999948,-21.,3.4544));
#733=CARTESIAN_POINT('',(19.9999999999948,25.5,3.4544));
#734=CARTESIAN_POINT('',(19.9999999999948,-21.,3.429));
#735=CARTESIAN_POINT('Origin',(15.4999999999948,-21.,3.429));
#736=CARTESIAN_POINT('',(15.4999999999948,-25.5,3.429));
#737=CARTESIAN_POINT('Origin',(15.4999999999948,-21.,3.429));
#738=CARTESIAN_POINT('',(15.4999999999948,-25.5,3.4544));
#739=CARTESIAN_POINT('Origin',(15.4999999999948,-21.,3.4544));
#740=CARTESIAN_POINT('',(15.4999999999948,-25.5,3.429));
#741=CARTESIAN_POINT('Origin',(-15.4999999999948,-25.5,3.429));
#742=CARTESIAN_POINT('',(-15.4999999999948,-25.5,3.429));
#743=CARTESIAN_POINT('',(19.9999999999948,-25.5,3.429));
#744=CARTESIAN_POINT('',(-15.4999999999948,-25.5,3.4544));
#745=CARTESIAN_POINT('',(19.9999999999948,-25.5,3.4544));
#746=CARTESIAN_POINT('',(-15.4999999999948,-25.5,3.429));
#747=CARTESIAN_POINT('Origin',(-15.4999999999948,-21.,3.429));
#748=CARTESIAN_POINT('Origin',(-15.4999999999948,-21.,3.429));
#749=CARTESIAN_POINT('Origin',(-15.4999999999948,-21.,3.4544));
#750=CARTESIAN_POINT('Origin',(0.,-1.33226762955019E-14,3.4544));
#751=CARTESIAN_POINT('Origin',(0.,-1.33226762955019E-14,3.429));
#752=UNCERTAINTY_MEASURE_WITH_UNIT(LENGTH_MEASURE(0.01),#756,
'DISTANCE_ACCURACY_VALUE',
'Maximum model space distance between geometric entities at asserted c
onnectivities');
#753=UNCERTAINTY_MEASURE_WITH_UNIT(LENGTH_MEASURE(0.01),#756,
'DISTANCE_ACCURACY_VALUE',
'Maximum model space distance between geometric entities at asserted c
onnectivities');
#754=(
GEOMETRIC_REPRESENTATION_CONTEXT(3)
GLOBAL_UNCERTAINTY_ASSIGNED_CONTEXT((#752))
GLOBAL_UNIT_ASSIGNED_CONTEXT((#756,#758,#759))
REPRESENTATION_CONTEXT('','3D')
);
#755=(
GEOMETRIC_REPRESENTATION_CONTEXT(3)
GLOBAL_UNCERTAINTY_ASSIGNED_CONTEXT((#753))
GLOBAL_UNIT_ASSIGNED_CONTEXT((#756,#758,#759))
REPRESENTATION_CONTEXT('','3D')
);
#756=(
LENGTH_UNIT()
NAMED_UNIT(*)
SI_UNIT(.MILLI.,.METRE.)
);
#757=(
LENGTH_UNIT()
NAMED_UNIT(*)
SI_UNIT($,.METRE.)
);
#758=(
NAMED_UNIT(*)
PLANE_ANGLE_UNIT()
SI_UNIT($,.RADIAN.)
);
#759=(
NAMED_UNIT(*)
SI_UNIT($,.STERADIAN.)
SOLID_ANGLE_UNIT()
);
#760=SHAPE_DEFINITION_REPRESENTATION(#761,#762);
#761=PRODUCT_DEFINITION_SHAPE('',$,#764);
#762=SHAPE_REPRESENTATION('',(#452),#754);
#763=PRODUCT_DEFINITION_CONTEXT('part definition',#768,'design');
#764=PRODUCT_DEFINITION('PTFE film','PTFE film',#765,#763);
#765=PRODUCT_DEFINITION_FORMATION('',$,#770);
#766=PRODUCT_RELATED_PRODUCT_CATEGORY('PTFE film','PTFE film',(#770));
#767=APPLICATION_PROTOCOL_DEFINITION('international standard',
'automotive_design',2009,#768);
#768=APPLICATION_CONTEXT(
'Core Data for Automotive Mechanical Design Process');
#769=PRODUCT_CONTEXT('part definition',#768,'mechanical');
#770=PRODUCT('PTFE film','PTFE film',$,(#769));
#771=PRESENTATION_STYLE_ASSIGNMENT((#773));
#772=PRESENTATION_STYLE_ASSIGNMENT((#774));
#773=SURFACE_STYLE_USAGE(.BOTH.,#775);
#774=SURFACE_STYLE_USAGE(.BOTH.,#776);
#775=SURFACE_SIDE_STYLE('',(#777));
#776=SURFACE_SIDE_STYLE('',(#778));
#777=SURFACE_STYLE_FILL_AREA(#779);
#778=SURFACE_STYLE_FILL_AREA(#780);
#779=FILL_AREA_STYLE('Acier - Satin\X\E9',(#781));
#780=FILL_AREA_STYLE('Plastique - Brillant (blanc)',(#782));
#781=FILL_AREA_STYLE_COLOUR('Acier - Satin\X\E9',#783);
#782=FILL_AREA_STYLE_COLOUR('Plastique - Brillant (blanc)',#784);
#783=COLOUR_RGB('Acier - Satin\X\E9',0.627450980392157,0.627450980392157,
0.627450980392157);
#784=COLOUR_RGB('Plastique - Brillant (blanc)',0.964705882352941,0.964705882352941,
0.952941176470588);
ENDSEC;
END-ISO-10303-21;
