ISO-10303-21;
HEADER;
/* Generated by software containing ST-Developer
 * from STEP Tools, Inc. (www.steptools.com) 
 */

FILE_DESCRIPTION(
/* description */ (''),
/* implementation_level */ '2;1');

FILE_NAME(
/* name */ 'Current collectors.step',
/* time_stamp */ '2025-12-17T16:07:39-05:00',
/* author */ (''),
/* organization */ (''),
/* preprocessor_version */ 'ST-DEVELOPER v20.1',
/* originating_system */ 'Autodesk Translation Framework v14.21.0.0',
/* authorisation */ '');

FILE_SCHEMA (('AUTOMOTIVE_DESIGN { 1 0 10303 214 3 1 1 }'));
ENDSEC;

DATA;
#10=MECHANICAL_DESIGN_GEOMETRIC_PRESENTATION_REPRESENTATION('',(#13,#14),
#1412);
#11=SHAPE_REPRESENTATION_RELATIONSHIP('SRR','None',#1419,#12);
#12=ADVANCED_BREP_SHAPE_REPRESENTATION('',(#15,#16),#1411);
#13=STYLED_ITEM('',(#1428),#15);
#14=STYLED_ITEM('',(#1428),#16);
#15=MANIFOLD_SOLID_BREP('Corps1',#823);
#16=MANIFOLD_SOLID_BREP('Corps2',#824);
#17=FACE_BOUND('',#102,.T.);
#18=FACE_BOUND('',#103,.T.);
#19=FACE_BOUND('',#104,.T.);
#20=FACE_BOUND('',#105,.T.);
#21=FACE_BOUND('',#106,.T.);
#22=FACE_BOUND('',#110,.T.);
#23=FACE_BOUND('',#111,.T.);
#24=FACE_BOUND('',#112,.T.);
#25=FACE_BOUND('',#113,.T.);
#26=FACE_BOUND('',#114,.T.);
#27=FACE_BOUND('',#133,.T.);
#28=FACE_BOUND('',#134,.T.);
#29=FACE_BOUND('',#135,.T.);
#30=FACE_BOUND('',#136,.T.);
#31=FACE_BOUND('',#137,.T.);
#32=FACE_BOUND('',#141,.T.);
#33=FACE_BOUND('',#142,.T.);
#34=FACE_BOUND('',#143,.T.);
#35=FACE_BOUND('',#144,.T.);
#36=FACE_BOUND('',#145,.T.);
#37=PLANE('',#841);
#38=PLANE('',#845);
#39=PLANE('',#846);
#40=PLANE('',#859);
#41=PLANE('',#860);
#42=PLANE('',#871);
#43=PLANE('',#873);
#44=PLANE('',#881);
#45=PLANE('',#882);
#46=PLANE('',#886);
#47=PLANE('',#890);
#48=PLANE('',#891);
#49=PLANE('',#904);
#50=PLANE('',#905);
#51=PLANE('',#916);
#52=PLANE('',#918);
#53=PLANE('',#926);
#54=PLANE('',#927);
#55=FACE_OUTER_BOUND('',#97,.T.);
#56=FACE_OUTER_BOUND('',#98,.T.);
#57=FACE_OUTER_BOUND('',#99,.T.);
#58=FACE_OUTER_BOUND('',#100,.T.);
#59=FACE_OUTER_BOUND('',#101,.T.);
#60=FACE_OUTER_BOUND('',#107,.T.);
#61=FACE_OUTER_BOUND('',#108,.T.);
#62=FACE_OUTER_BOUND('',#109,.T.);
#63=FACE_OUTER_BOUND('',#115,.T.);
#64=FACE_OUTER_BOUND('',#116,.T.);
#65=FACE_OUTER_BOUND('',#117,.T.);
#66=FACE_OUTER_BOUND('',#118,.T.);
#67=FACE_OUTER_BOUND('',#119,.T.);
#68=FACE_OUTER_BOUND('',#120,.T.);
#69=FACE_OUTER_BOUND('',#121,.T.);
#70=FACE_OUTER_BOUND('',#122,.T.);
#71=FACE_OUTER_BOUND('',#123,.T.);
#72=FACE_OUTER_BOUND('',#124,.T.);
#73=FACE_OUTER_BOUND('',#125,.T.);
#74=FACE_OUTER_BOUND('',#126,.T.);
#75=FACE_OUTER_BOUND('',#127,.T.);
#76=FACE_OUTER_BOUND('',#128,.T.);
#77=FACE_OUTER_BOUND('',#129,.T.);
#78=FACE_OUTER_BOUND('',#130,.T.);
#79=FACE_OUTER_BOUND('',#131,.T.);
#80=FACE_OUTER_BOUND('',#132,.T.);
#81=FACE_OUTER_BOUND('',#138,.T.);
#82=FACE_OUTER_BOUND('',#139,.T.);
#83=FACE_OUTER_BOUND('',#140,.T.);
#84=FACE_OUTER_BOUND('',#146,.T.);
#85=FACE_OUTER_BOUND('',#147,.T.);
#86=FACE_OUTER_BOUND('',#148,.T.);
#87=FACE_OUTER_BOUND('',#149,.T.);
#88=FACE_OUTER_BOUND('',#150,.T.);
#89=FACE_OUTER_BOUND('',#151,.T.);
#90=FACE_OUTER_BOUND('',#152,.T.);
#91=FACE_OUTER_BOUND('',#153,.T.);
#92=FACE_OUTER_BOUND('',#154,.T.);
#93=FACE_OUTER_BOUND('',#155,.T.);
#94=FACE_OUTER_BOUND('',#156,.T.);
#95=FACE_OUTER_BOUND('',#157,.T.);
#96=FACE_OUTER_BOUND('',#158,.T.);
#97=EDGE_LOOP('',(#529,#530,#531,#532));
#98=EDGE_LOOP('',(#533,#534,#535,#536));
#99=EDGE_LOOP('',(#537,#538,#539,#540));
#100=EDGE_LOOP('',(#541,#542,#543,#544));
#101=EDGE_LOOP('',(#545,#546,#547,#548,#549,#550,#551,#552,#553,#554,#555,
#556,#557,#558));
#102=EDGE_LOOP('',(#559));
#103=EDGE_LOOP('',(#560));
#104=EDGE_LOOP('',(#561));
#105=EDGE_LOOP('',(#562));
#106=EDGE_LOOP('',(#563));
#107=EDGE_LOOP('',(#564,#565,#566,#567));
#108=EDGE_LOOP('',(#568,#569,#570,#571));
#109=EDGE_LOOP('',(#572,#573,#574,#575,#576,#577,#578,#579,#580,#581,#582,
#583,#584,#585));
#110=EDGE_LOOP('',(#586));
#111=EDGE_LOOP('',(#587));
#112=EDGE_LOOP('',(#588));
#113=EDGE_LOOP('',(#589));
#114=EDGE_LOOP('',(#590));
#115=EDGE_LOOP('',(#591,#592,#593,#594));
#116=EDGE_LOOP('',(#595,#596,#597,#598));
#117=EDGE_LOOP('',(#599,#600,#601,#602));
#118=EDGE_LOOP('',(#603,#604,#605,#606));
#119=EDGE_LOOP('',(#607,#608,#609,#610));
#120=EDGE_LOOP('',(#611,#612,#613,#614));
#121=EDGE_LOOP('',(#615,#616,#617,#618));
#122=EDGE_LOOP('',(#619,#620,#621,#622));
#123=EDGE_LOOP('',(#623,#624,#625,#626));
#124=EDGE_LOOP('',(#627,#628,#629,#630));
#125=EDGE_LOOP('',(#631,#632,#633,#634));
#126=EDGE_LOOP('',(#635,#636,#637,#638));
#127=EDGE_LOOP('',(#639,#640,#641,#642));
#128=EDGE_LOOP('',(#643,#644,#645,#646));
#129=EDGE_LOOP('',(#647,#648,#649,#650));
#130=EDGE_LOOP('',(#651,#652,#653,#654));
#131=EDGE_LOOP('',(#655,#656,#657,#658));
#132=EDGE_LOOP('',(#659,#660,#661,#662,#663,#664,#665,#666,#667,#668,#669,
#670,#671,#672));
#133=EDGE_LOOP('',(#673));
#134=EDGE_LOOP('',(#674));
#135=EDGE_LOOP('',(#675));
#136=EDGE_LOOP('',(#676));
#137=EDGE_LOOP('',(#677));
#138=EDGE_LOOP('',(#678,#679,#680,#681));
#139=EDGE_LOOP('',(#682,#683,#684,#685));
#140=EDGE_LOOP('',(#686,#687,#688,#689,#690,#691,#692,#693,#694,#695,#696,
#697,#698,#699));
#141=EDGE_LOOP('',(#700));
#142=EDGE_LOOP('',(#701));
#143=EDGE_LOOP('',(#702));
#144=EDGE_LOOP('',(#703));
#145=EDGE_LOOP('',(#704));
#146=EDGE_LOOP('',(#705,#706,#707,#708));
#147=EDGE_LOOP('',(#709,#710,#711,#712));
#148=EDGE_LOOP('',(#713,#714,#715,#716));
#149=EDGE_LOOP('',(#717,#718,#719,#720));
#150=EDGE_LOOP('',(#721,#722,#723,#724));
#151=EDGE_LOOP('',(#725,#726,#727,#728));
#152=EDGE_LOOP('',(#729,#730,#731,#732));
#153=EDGE_LOOP('',(#733,#734,#735,#736));
#154=EDGE_LOOP('',(#737,#738,#739,#740));
#155=EDGE_LOOP('',(#741,#742,#743,#744));
#156=EDGE_LOOP('',(#745,#746,#747,#748));
#157=EDGE_LOOP('',(#749,#750,#751,#752));
#158=EDGE_LOOP('',(#753,#754,#755,#756));
#159=LINE('',#1182,#225);
#160=LINE('',#1185,#226);
#161=LINE('',#1188,#227);
#162=LINE('',#1190,#228);
#163=LINE('',#1191,#229);
#164=LINE('',#1197,#230);
#165=LINE('',#1200,#231);
#166=LINE('',#1202,#232);
#167=LINE('',#1203,#233);
#168=LINE('',#1206,#234);
#169=LINE('',#1210,#235);
#170=LINE('',#1214,#236);
#171=LINE('',#1218,#237);
#172=LINE('',#1222,#238);
#173=LINE('',#1236,#239);
#174=LINE('',#1239,#240);
#175=LINE('',#1242,#241);
#176=LINE('',#1243,#242);
#177=LINE('',#1248,#243);
#178=LINE('',#1252,#244);
#179=LINE('',#1255,#245);
#180=LINE('',#1258,#246);
#181=LINE('',#1270,#247);
#182=LINE('',#1273,#248);
#183=LINE('',#1274,#249);
#184=LINE('',#1276,#250);
#185=LINE('',#1278,#251);
#186=LINE('',#1280,#252);
#187=LINE('',#1282,#253);
#188=LINE('',#1284,#254);
#189=LINE('',#1286,#255);
#190=LINE('',#1288,#256);
#191=LINE('',#1290,#257);
#192=LINE('',#1298,#258);
#193=LINE('',#1301,#259);
#194=LINE('',#1304,#260);
#195=LINE('',#1306,#261);
#196=LINE('',#1307,#262);
#197=LINE('',#1312,#263);
#198=LINE('',#1316,#264);
#199=LINE('',#1318,#265);
#200=LINE('',#1319,#266);
#201=LINE('',#1324,#267);
#202=LINE('',#1328,#268);
#203=LINE('',#1332,#269);
#204=LINE('',#1336,#270);
#205=LINE('',#1339,#271);
#206=LINE('',#1352,#272);
#207=LINE('',#1355,#273);
#208=LINE('',#1358,#274);
#209=LINE('',#1359,#275);
#210=LINE('',#1362,#276);
#211=LINE('',#1365,#277);
#212=LINE('',#1369,#278);
#213=LINE('',#1373,#279);
#214=LINE('',#1386,#280);
#215=LINE('',#1389,#281);
#216=LINE('',#1390,#282);
#217=LINE('',#1392,#283);
#218=LINE('',#1394,#284);
#219=LINE('',#1396,#285);
#220=LINE('',#1398,#286);
#221=LINE('',#1400,#287);
#222=LINE('',#1402,#288);
#223=LINE('',#1404,#289);
#224=LINE('',#1406,#290);
#225=VECTOR('',#934,10.);
#226=VECTOR('',#937,10.);
#227=VECTOR('',#940,10.);
#228=VECTOR('',#941,10.);
#229=VECTOR('',#942,10.);
#230=VECTOR('',#949,10.);
#231=VECTOR('',#952,10.);
#232=VECTOR('',#953,10.);
#233=VECTOR('',#954,10.);
#234=VECTOR('',#957,10.);
#235=VECTOR('',#960,10.);
#236=VECTOR('',#963,10.);
#237=VECTOR('',#966,10.);
#238=VECTOR('',#969,10.);
#239=VECTOR('',#984,10.);
#240=VECTOR('',#987,10.);
#241=VECTOR('',#990,10.);
#242=VECTOR('',#991,10.);
#243=VECTOR('',#996,10.);
#244=VECTOR('',#999,10.);
#245=VECTOR('',#1002,10.);
#246=VECTOR('',#1005,10.);
#247=VECTOR('',#1018,10.);
#248=VECTOR('',#1023,10.);
#249=VECTOR('',#1024,10.);
#250=VECTOR('',#1027,10.);
#251=VECTOR('',#1030,10.);
#252=VECTOR('',#1033,10.);
#253=VECTOR('',#1036,2.5);
#254=VECTOR('',#1039,2.1);
#255=VECTOR('',#1042,2.1);
#256=VECTOR('',#1045,1.5);
#257=VECTOR('',#1048,1.5);
#258=VECTOR('',#1057,10.);
#259=VECTOR('',#1060,10.);
#260=VECTOR('',#1063,10.);
#261=VECTOR('',#1064,10.);
#262=VECTOR('',#1065,10.);
#263=VECTOR('',#1070,10.);
#264=VECTOR('',#1075,10.);
#265=VECTOR('',#1076,10.);
#266=VECTOR('',#1077,10.);
#267=VECTOR('',#1082,10.);
#268=VECTOR('',#1085,10.);
#269=VECTOR('',#1088,10.);
#270=VECTOR('',#1091,10.);
#271=VECTOR('',#1094,10.);
#272=VECTOR('',#1107,10.);
#273=VECTOR('',#1110,10.);
#274=VECTOR('',#1113,10.);
#275=VECTOR('',#1114,10.);
#276=VECTOR('',#1117,10.);
#277=VECTOR('',#1120,10.);
#278=VECTOR('',#1123,10.);
#279=VECTOR('',#1126,10.);
#280=VECTOR('',#1141,10.);
#281=VECTOR('',#1146,10.);
#282=VECTOR('',#1147,10.);
#283=VECTOR('',#1150,10.);
#284=VECTOR('',#1153,10.);
#285=VECTOR('',#1156,10.);
#286=VECTOR('',#1159,2.5);
#287=VECTOR('',#1162,2.1);
#288=VECTOR('',#1165,2.1);
#289=VECTOR('',#1168,1.5);
#290=VECTOR('',#1171,1.5);
#291=CIRCLE('',#839,10.);
#292=CIRCLE('',#840,10.);
#293=CIRCLE('',#843,6.);
#294=CIRCLE('',#844,6.);
#295=CIRCLE('',#847,7.5);
#296=CIRCLE('',#848,5.);
#297=CIRCLE('',#849,3.);
#298=CIRCLE('',#850,3.);
#299=CIRCLE('',#851,3.);
#300=CIRCLE('',#852,2.5);
#301=CIRCLE('',#853,2.1);
#302=CIRCLE('',#854,2.1);
#303=CIRCLE('',#855,1.5);
#304=CIRCLE('',#856,1.5);
#305=CIRCLE('',#858,5.);
#306=CIRCLE('',#861,3.);
#307=CIRCLE('',#862,3.);
#308=CIRCLE('',#863,3.);
#309=CIRCLE('',#864,7.5);
#310=CIRCLE('',#865,2.5);
#311=CIRCLE('',#866,2.1);
#312=CIRCLE('',#867,2.1);
#313=CIRCLE('',#868,1.5);
#314=CIRCLE('',#869,1.5);
#315=CIRCLE('',#884,10.);
#316=CIRCLE('',#885,10.);
#317=CIRCLE('',#888,6.);
#318=CIRCLE('',#889,6.);
#319=CIRCLE('',#892,3.);
#320=CIRCLE('',#893,3.);
#321=CIRCLE('',#894,3.);
#322=CIRCLE('',#895,5.);
#323=CIRCLE('',#896,7.5);
#324=CIRCLE('',#897,2.5);
#325=CIRCLE('',#898,2.1);
#326=CIRCLE('',#899,2.1);
#327=CIRCLE('',#900,1.5);
#328=CIRCLE('',#901,1.5);
#329=CIRCLE('',#903,5.);
#330=CIRCLE('',#906,7.5);
#331=CIRCLE('',#907,3.);
#332=CIRCLE('',#908,3.);
#333=CIRCLE('',#909,3.);
#334=CIRCLE('',#910,2.5);
#335=CIRCLE('',#911,2.1);
#336=CIRCLE('',#912,2.1);
#337=CIRCLE('',#913,1.5);
#338=CIRCLE('',#914,1.5);
#339=VERTEX_POINT('',#1178);
#340=VERTEX_POINT('',#1179);
#341=VERTEX_POINT('',#1181);
#342=VERTEX_POINT('',#1183);
#343=VERTEX_POINT('',#1187);
#344=VERTEX_POINT('',#1189);
#345=VERTEX_POINT('',#1193);
#346=VERTEX_POINT('',#1195);
#347=VERTEX_POINT('',#1199);
#348=VERTEX_POINT('',#1201);
#349=VERTEX_POINT('',#1205);
#350=VERTEX_POINT('',#1207);
#351=VERTEX_POINT('',#1209);
#352=VERTEX_POINT('',#1211);
#353=VERTEX_POINT('',#1213);
#354=VERTEX_POINT('',#1215);
#355=VERTEX_POINT('',#1217);
#356=VERTEX_POINT('',#1219);
#357=VERTEX_POINT('',#1221);
#358=VERTEX_POINT('',#1224);
#359=VERTEX_POINT('',#1226);
#360=VERTEX_POINT('',#1228);
#361=VERTEX_POINT('',#1230);
#362=VERTEX_POINT('',#1232);
#363=VERTEX_POINT('',#1235);
#364=VERTEX_POINT('',#1237);
#365=VERTEX_POINT('',#1241);
#366=VERTEX_POINT('',#1245);
#367=VERTEX_POINT('',#1247);
#368=VERTEX_POINT('',#1249);
#369=VERTEX_POINT('',#1251);
#370=VERTEX_POINT('',#1253);
#371=VERTEX_POINT('',#1256);
#372=VERTEX_POINT('',#1259);
#373=VERTEX_POINT('',#1261);
#374=VERTEX_POINT('',#1263);
#375=VERTEX_POINT('',#1265);
#376=VERTEX_POINT('',#1267);
#377=VERTEX_POINT('',#1294);
#378=VERTEX_POINT('',#1295);
#379=VERTEX_POINT('',#1297);
#380=VERTEX_POINT('',#1299);
#381=VERTEX_POINT('',#1303);
#382=VERTEX_POINT('',#1305);
#383=VERTEX_POINT('',#1309);
#384=VERTEX_POINT('',#1311);
#385=VERTEX_POINT('',#1315);
#386=VERTEX_POINT('',#1317);
#387=VERTEX_POINT('',#1321);
#388=VERTEX_POINT('',#1323);
#389=VERTEX_POINT('',#1325);
#390=VERTEX_POINT('',#1327);
#391=VERTEX_POINT('',#1329);
#392=VERTEX_POINT('',#1331);
#393=VERTEX_POINT('',#1333);
#394=VERTEX_POINT('',#1335);
#395=VERTEX_POINT('',#1337);
#396=VERTEX_POINT('',#1340);
#397=VERTEX_POINT('',#1342);
#398=VERTEX_POINT('',#1344);
#399=VERTEX_POINT('',#1346);
#400=VERTEX_POINT('',#1348);
#401=VERTEX_POINT('',#1351);
#402=VERTEX_POINT('',#1353);
#403=VERTEX_POINT('',#1357);
#404=VERTEX_POINT('',#1361);
#405=VERTEX_POINT('',#1364);
#406=VERTEX_POINT('',#1366);
#407=VERTEX_POINT('',#1368);
#408=VERTEX_POINT('',#1370);
#409=VERTEX_POINT('',#1372);
#410=VERTEX_POINT('',#1375);
#411=VERTEX_POINT('',#1377);
#412=VERTEX_POINT('',#1379);
#413=VERTEX_POINT('',#1381);
#414=VERTEX_POINT('',#1383);
#415=EDGE_CURVE('',#339,#340,#291,.T.);
#416=EDGE_CURVE('',#340,#341,#159,.T.);
#417=EDGE_CURVE('',#341,#342,#292,.T.);
#418=EDGE_CURVE('',#342,#339,#160,.T.);
#419=EDGE_CURVE('',#343,#340,#161,.T.);
#420=EDGE_CURVE('',#344,#343,#162,.T.);
#421=EDGE_CURVE('',#341,#344,#163,.T.);
#422=EDGE_CURVE('',#345,#344,#293,.T.);
#423=EDGE_CURVE('',#343,#346,#294,.T.);
#424=EDGE_CURVE('',#346,#345,#164,.T.);
#425=EDGE_CURVE('',#347,#346,#165,.T.);
#426=EDGE_CURVE('',#348,#347,#166,.T.);
#427=EDGE_CURVE('',#345,#348,#167,.T.);
#428=EDGE_CURVE('',#339,#349,#168,.T.);
#429=EDGE_CURVE('',#350,#349,#295,.T.);
#430=EDGE_CURVE('',#350,#351,#169,.T.);
#431=EDGE_CURVE('',#352,#351,#296,.T.);
#432=EDGE_CURVE('',#352,#353,#170,.T.);
#433=EDGE_CURVE('',#354,#353,#297,.T.);
#434=EDGE_CURVE('',#354,#355,#171,.T.);
#435=EDGE_CURVE('',#356,#355,#298,.T.);
#436=EDGE_CURVE('',#356,#357,#172,.T.);
#437=EDGE_CURVE('',#347,#357,#299,.T.);
#438=EDGE_CURVE('',#358,#358,#300,.T.);
#439=EDGE_CURVE('',#359,#359,#301,.T.);
#440=EDGE_CURVE('',#360,#360,#302,.T.);
#441=EDGE_CURVE('',#361,#361,#303,.T.);
#442=EDGE_CURVE('',#362,#362,#304,.T.);
#443=EDGE_CURVE('',#351,#363,#173,.T.);
#444=EDGE_CURVE('',#363,#364,#305,.T.);
#445=EDGE_CURVE('',#364,#352,#174,.T.);
#446=EDGE_CURVE('',#365,#350,#175,.T.);
#447=EDGE_CURVE('',#363,#365,#176,.T.);
#448=EDGE_CURVE('',#366,#348,#306,.T.);
#449=EDGE_CURVE('',#366,#367,#177,.T.);
#450=EDGE_CURVE('',#368,#367,#307,.T.);
#451=EDGE_CURVE('',#368,#369,#178,.T.);
#452=EDGE_CURVE('',#370,#369,#308,.T.);
#453=EDGE_CURVE('',#370,#364,#179,.T.);
#454=EDGE_CURVE('',#371,#365,#309,.T.);
#455=EDGE_CURVE('',#371,#342,#180,.T.);
#456=EDGE_CURVE('',#372,#372,#310,.T.);
#457=EDGE_CURVE('',#373,#373,#311,.T.);
#458=EDGE_CURVE('',#374,#374,#312,.T.);
#459=EDGE_CURVE('',#375,#375,#313,.T.);
#460=EDGE_CURVE('',#376,#376,#314,.T.);
#461=EDGE_CURVE('',#349,#371,#181,.T.);
#462=EDGE_CURVE('',#369,#354,#182,.T.);
#463=EDGE_CURVE('',#353,#370,#183,.T.);
#464=EDGE_CURVE('',#355,#368,#184,.T.);
#465=EDGE_CURVE('',#367,#356,#185,.T.);
#466=EDGE_CURVE('',#357,#366,#186,.T.);
#467=EDGE_CURVE('',#372,#358,#187,.T.);
#468=EDGE_CURVE('',#373,#359,#188,.T.);
#469=EDGE_CURVE('',#374,#360,#189,.T.);
#470=EDGE_CURVE('',#375,#361,#190,.T.);
#471=EDGE_CURVE('',#376,#362,#191,.T.);
#472=EDGE_CURVE('',#377,#378,#315,.T.);
#473=EDGE_CURVE('',#379,#377,#192,.T.);
#474=EDGE_CURVE('',#380,#379,#316,.T.);
#475=EDGE_CURVE('',#378,#380,#193,.T.);
#476=EDGE_CURVE('',#380,#381,#194,.T.);
#477=EDGE_CURVE('',#381,#382,#195,.T.);
#478=EDGE_CURVE('',#382,#378,#196,.T.);
#479=EDGE_CURVE('',#383,#381,#317,.T.);
#480=EDGE_CURVE('',#384,#383,#197,.T.);
#481=EDGE_CURVE('',#382,#384,#318,.T.);
#482=EDGE_CURVE('',#383,#385,#198,.T.);
#483=EDGE_CURVE('',#385,#386,#199,.T.);
#484=EDGE_CURVE('',#386,#384,#200,.T.);
#485=EDGE_CURVE('',#386,#387,#319,.T.);
#486=EDGE_CURVE('',#388,#387,#201,.T.);
#487=EDGE_CURVE('',#388,#389,#320,.T.);
#488=EDGE_CURVE('',#390,#389,#202,.T.);
#489=EDGE_CURVE('',#390,#391,#321,.T.);
#490=EDGE_CURVE('',#392,#391,#203,.T.);
#491=EDGE_CURVE('',#392,#393,#322,.T.);
#492=EDGE_CURVE('',#394,#393,#204,.T.);
#493=EDGE_CURVE('',#394,#395,#323,.T.);
#494=EDGE_CURVE('',#377,#395,#205,.T.);
#495=EDGE_CURVE('',#396,#396,#324,.T.);
#496=EDGE_CURVE('',#397,#397,#325,.T.);
#497=EDGE_CURVE('',#398,#398,#326,.T.);
#498=EDGE_CURVE('',#399,#399,#327,.T.);
#499=EDGE_CURVE('',#400,#400,#328,.T.);
#500=EDGE_CURVE('',#401,#392,#206,.T.);
#501=EDGE_CURVE('',#402,#401,#329,.T.);
#502=EDGE_CURVE('',#393,#402,#207,.T.);
#503=EDGE_CURVE('',#402,#403,#208,.T.);
#504=EDGE_CURVE('',#403,#394,#209,.T.);
#505=EDGE_CURVE('',#404,#379,#210,.T.);
#506=EDGE_CURVE('',#404,#403,#330,.T.);
#507=EDGE_CURVE('',#405,#401,#211,.T.);
#508=EDGE_CURVE('',#405,#406,#331,.T.);
#509=EDGE_CURVE('',#407,#406,#212,.T.);
#510=EDGE_CURVE('',#407,#408,#332,.T.);
#511=EDGE_CURVE('',#409,#408,#213,.T.);
#512=EDGE_CURVE('',#409,#385,#333,.T.);
#513=EDGE_CURVE('',#410,#410,#334,.T.);
#514=EDGE_CURVE('',#411,#411,#335,.T.);
#515=EDGE_CURVE('',#412,#412,#336,.T.);
#516=EDGE_CURVE('',#413,#413,#337,.T.);
#517=EDGE_CURVE('',#414,#414,#338,.T.);
#518=EDGE_CURVE('',#395,#404,#214,.T.);
#519=EDGE_CURVE('',#391,#405,#215,.T.);
#520=EDGE_CURVE('',#406,#390,#216,.T.);
#521=EDGE_CURVE('',#389,#407,#217,.T.);
#522=EDGE_CURVE('',#408,#388,#218,.T.);
#523=EDGE_CURVE('',#387,#409,#219,.T.);
#524=EDGE_CURVE('',#410,#396,#220,.T.);
#525=EDGE_CURVE('',#411,#397,#221,.T.);
#526=EDGE_CURVE('',#412,#398,#222,.T.);
#527=EDGE_CURVE('',#413,#399,#223,.T.);
#528=EDGE_CURVE('',#414,#400,#224,.T.);
#529=ORIENTED_EDGE('',*,*,#415,.T.);
#530=ORIENTED_EDGE('',*,*,#416,.T.);
#531=ORIENTED_EDGE('',*,*,#417,.T.);
#532=ORIENTED_EDGE('',*,*,#418,.T.);
#533=ORIENTED_EDGE('',*,*,#416,.F.);
#534=ORIENTED_EDGE('',*,*,#419,.F.);
#535=ORIENTED_EDGE('',*,*,#420,.F.);
#536=ORIENTED_EDGE('',*,*,#421,.F.);
#537=ORIENTED_EDGE('',*,*,#422,.T.);
#538=ORIENTED_EDGE('',*,*,#420,.T.);
#539=ORIENTED_EDGE('',*,*,#423,.T.);
#540=ORIENTED_EDGE('',*,*,#424,.T.);
#541=ORIENTED_EDGE('',*,*,#424,.F.);
#542=ORIENTED_EDGE('',*,*,#425,.F.);
#543=ORIENTED_EDGE('',*,*,#426,.F.);
#544=ORIENTED_EDGE('',*,*,#427,.F.);
#545=ORIENTED_EDGE('',*,*,#423,.F.);
#546=ORIENTED_EDGE('',*,*,#419,.T.);
#547=ORIENTED_EDGE('',*,*,#415,.F.);
#548=ORIENTED_EDGE('',*,*,#428,.T.);
#549=ORIENTED_EDGE('',*,*,#429,.F.);
#550=ORIENTED_EDGE('',*,*,#430,.T.);
#551=ORIENTED_EDGE('',*,*,#431,.F.);
#552=ORIENTED_EDGE('',*,*,#432,.T.);
#553=ORIENTED_EDGE('',*,*,#433,.F.);
#554=ORIENTED_EDGE('',*,*,#434,.T.);
#555=ORIENTED_EDGE('',*,*,#435,.F.);
#556=ORIENTED_EDGE('',*,*,#436,.T.);
#557=ORIENTED_EDGE('',*,*,#437,.F.);
#558=ORIENTED_EDGE('',*,*,#425,.T.);
#559=ORIENTED_EDGE('',*,*,#438,.F.);
#560=ORIENTED_EDGE('',*,*,#439,.F.);
#561=ORIENTED_EDGE('',*,*,#440,.F.);
#562=ORIENTED_EDGE('',*,*,#441,.F.);
#563=ORIENTED_EDGE('',*,*,#442,.F.);
#564=ORIENTED_EDGE('',*,*,#431,.T.);
#565=ORIENTED_EDGE('',*,*,#443,.T.);
#566=ORIENTED_EDGE('',*,*,#444,.T.);
#567=ORIENTED_EDGE('',*,*,#445,.T.);
#568=ORIENTED_EDGE('',*,*,#443,.F.);
#569=ORIENTED_EDGE('',*,*,#430,.F.);
#570=ORIENTED_EDGE('',*,*,#446,.F.);
#571=ORIENTED_EDGE('',*,*,#447,.F.);
#572=ORIENTED_EDGE('',*,*,#422,.F.);
#573=ORIENTED_EDGE('',*,*,#427,.T.);
#574=ORIENTED_EDGE('',*,*,#448,.F.);
#575=ORIENTED_EDGE('',*,*,#449,.T.);
#576=ORIENTED_EDGE('',*,*,#450,.F.);
#577=ORIENTED_EDGE('',*,*,#451,.T.);
#578=ORIENTED_EDGE('',*,*,#452,.F.);
#579=ORIENTED_EDGE('',*,*,#453,.T.);
#580=ORIENTED_EDGE('',*,*,#444,.F.);
#581=ORIENTED_EDGE('',*,*,#447,.T.);
#582=ORIENTED_EDGE('',*,*,#454,.F.);
#583=ORIENTED_EDGE('',*,*,#455,.T.);
#584=ORIENTED_EDGE('',*,*,#417,.F.);
#585=ORIENTED_EDGE('',*,*,#421,.T.);
#586=ORIENTED_EDGE('',*,*,#456,.T.);
#587=ORIENTED_EDGE('',*,*,#457,.T.);
#588=ORIENTED_EDGE('',*,*,#458,.T.);
#589=ORIENTED_EDGE('',*,*,#459,.T.);
#590=ORIENTED_EDGE('',*,*,#460,.T.);
#591=ORIENTED_EDGE('',*,*,#454,.T.);
#592=ORIENTED_EDGE('',*,*,#446,.T.);
#593=ORIENTED_EDGE('',*,*,#429,.T.);
#594=ORIENTED_EDGE('',*,*,#461,.T.);
#595=ORIENTED_EDGE('',*,*,#418,.F.);
#596=ORIENTED_EDGE('',*,*,#455,.F.);
#597=ORIENTED_EDGE('',*,*,#461,.F.);
#598=ORIENTED_EDGE('',*,*,#428,.F.);
#599=ORIENTED_EDGE('',*,*,#452,.T.);
#600=ORIENTED_EDGE('',*,*,#462,.T.);
#601=ORIENTED_EDGE('',*,*,#433,.T.);
#602=ORIENTED_EDGE('',*,*,#463,.T.);
#603=ORIENTED_EDGE('',*,*,#462,.F.);
#604=ORIENTED_EDGE('',*,*,#451,.F.);
#605=ORIENTED_EDGE('',*,*,#464,.F.);
#606=ORIENTED_EDGE('',*,*,#434,.F.);
#607=ORIENTED_EDGE('',*,*,#450,.T.);
#608=ORIENTED_EDGE('',*,*,#465,.T.);
#609=ORIENTED_EDGE('',*,*,#435,.T.);
#610=ORIENTED_EDGE('',*,*,#464,.T.);
#611=ORIENTED_EDGE('',*,*,#448,.T.);
#612=ORIENTED_EDGE('',*,*,#426,.T.);
#613=ORIENTED_EDGE('',*,*,#437,.T.);
#614=ORIENTED_EDGE('',*,*,#466,.T.);
#615=ORIENTED_EDGE('',*,*,#456,.F.);
#616=ORIENTED_EDGE('',*,*,#467,.T.);
#617=ORIENTED_EDGE('',*,*,#438,.T.);
#618=ORIENTED_EDGE('',*,*,#467,.F.);
#619=ORIENTED_EDGE('',*,*,#457,.F.);
#620=ORIENTED_EDGE('',*,*,#468,.T.);
#621=ORIENTED_EDGE('',*,*,#439,.T.);
#622=ORIENTED_EDGE('',*,*,#468,.F.);
#623=ORIENTED_EDGE('',*,*,#458,.F.);
#624=ORIENTED_EDGE('',*,*,#469,.T.);
#625=ORIENTED_EDGE('',*,*,#440,.T.);
#626=ORIENTED_EDGE('',*,*,#469,.F.);
#627=ORIENTED_EDGE('',*,*,#459,.F.);
#628=ORIENTED_EDGE('',*,*,#470,.T.);
#629=ORIENTED_EDGE('',*,*,#441,.T.);
#630=ORIENTED_EDGE('',*,*,#470,.F.);
#631=ORIENTED_EDGE('',*,*,#460,.F.);
#632=ORIENTED_EDGE('',*,*,#471,.T.);
#633=ORIENTED_EDGE('',*,*,#442,.T.);
#634=ORIENTED_EDGE('',*,*,#471,.F.);
#635=ORIENTED_EDGE('',*,*,#445,.F.);
#636=ORIENTED_EDGE('',*,*,#453,.F.);
#637=ORIENTED_EDGE('',*,*,#463,.F.);
#638=ORIENTED_EDGE('',*,*,#432,.F.);
#639=ORIENTED_EDGE('',*,*,#465,.F.);
#640=ORIENTED_EDGE('',*,*,#449,.F.);
#641=ORIENTED_EDGE('',*,*,#466,.F.);
#642=ORIENTED_EDGE('',*,*,#436,.F.);
#643=ORIENTED_EDGE('',*,*,#472,.F.);
#644=ORIENTED_EDGE('',*,*,#473,.F.);
#645=ORIENTED_EDGE('',*,*,#474,.F.);
#646=ORIENTED_EDGE('',*,*,#475,.F.);
#647=ORIENTED_EDGE('',*,*,#475,.T.);
#648=ORIENTED_EDGE('',*,*,#476,.T.);
#649=ORIENTED_EDGE('',*,*,#477,.T.);
#650=ORIENTED_EDGE('',*,*,#478,.T.);
#651=ORIENTED_EDGE('',*,*,#479,.F.);
#652=ORIENTED_EDGE('',*,*,#480,.F.);
#653=ORIENTED_EDGE('',*,*,#481,.F.);
#654=ORIENTED_EDGE('',*,*,#477,.F.);
#655=ORIENTED_EDGE('',*,*,#480,.T.);
#656=ORIENTED_EDGE('',*,*,#482,.T.);
#657=ORIENTED_EDGE('',*,*,#483,.T.);
#658=ORIENTED_EDGE('',*,*,#484,.T.);
#659=ORIENTED_EDGE('',*,*,#481,.T.);
#660=ORIENTED_EDGE('',*,*,#484,.F.);
#661=ORIENTED_EDGE('',*,*,#485,.T.);
#662=ORIENTED_EDGE('',*,*,#486,.F.);
#663=ORIENTED_EDGE('',*,*,#487,.T.);
#664=ORIENTED_EDGE('',*,*,#488,.F.);
#665=ORIENTED_EDGE('',*,*,#489,.T.);
#666=ORIENTED_EDGE('',*,*,#490,.F.);
#667=ORIENTED_EDGE('',*,*,#491,.T.);
#668=ORIENTED_EDGE('',*,*,#492,.F.);
#669=ORIENTED_EDGE('',*,*,#493,.T.);
#670=ORIENTED_EDGE('',*,*,#494,.F.);
#671=ORIENTED_EDGE('',*,*,#472,.T.);
#672=ORIENTED_EDGE('',*,*,#478,.F.);
#673=ORIENTED_EDGE('',*,*,#495,.T.);
#674=ORIENTED_EDGE('',*,*,#496,.T.);
#675=ORIENTED_EDGE('',*,*,#497,.T.);
#676=ORIENTED_EDGE('',*,*,#498,.T.);
#677=ORIENTED_EDGE('',*,*,#499,.T.);
#678=ORIENTED_EDGE('',*,*,#491,.F.);
#679=ORIENTED_EDGE('',*,*,#500,.F.);
#680=ORIENTED_EDGE('',*,*,#501,.F.);
#681=ORIENTED_EDGE('',*,*,#502,.F.);
#682=ORIENTED_EDGE('',*,*,#502,.T.);
#683=ORIENTED_EDGE('',*,*,#503,.T.);
#684=ORIENTED_EDGE('',*,*,#504,.T.);
#685=ORIENTED_EDGE('',*,*,#492,.T.);
#686=ORIENTED_EDGE('',*,*,#479,.T.);
#687=ORIENTED_EDGE('',*,*,#476,.F.);
#688=ORIENTED_EDGE('',*,*,#474,.T.);
#689=ORIENTED_EDGE('',*,*,#505,.F.);
#690=ORIENTED_EDGE('',*,*,#506,.T.);
#691=ORIENTED_EDGE('',*,*,#503,.F.);
#692=ORIENTED_EDGE('',*,*,#501,.T.);
#693=ORIENTED_EDGE('',*,*,#507,.F.);
#694=ORIENTED_EDGE('',*,*,#508,.T.);
#695=ORIENTED_EDGE('',*,*,#509,.F.);
#696=ORIENTED_EDGE('',*,*,#510,.T.);
#697=ORIENTED_EDGE('',*,*,#511,.F.);
#698=ORIENTED_EDGE('',*,*,#512,.T.);
#699=ORIENTED_EDGE('',*,*,#482,.F.);
#700=ORIENTED_EDGE('',*,*,#513,.F.);
#701=ORIENTED_EDGE('',*,*,#514,.F.);
#702=ORIENTED_EDGE('',*,*,#515,.F.);
#703=ORIENTED_EDGE('',*,*,#516,.F.);
#704=ORIENTED_EDGE('',*,*,#517,.F.);
#705=ORIENTED_EDGE('',*,*,#506,.F.);
#706=ORIENTED_EDGE('',*,*,#518,.F.);
#707=ORIENTED_EDGE('',*,*,#493,.F.);
#708=ORIENTED_EDGE('',*,*,#504,.F.);
#709=ORIENTED_EDGE('',*,*,#473,.T.);
#710=ORIENTED_EDGE('',*,*,#494,.T.);
#711=ORIENTED_EDGE('',*,*,#518,.T.);
#712=ORIENTED_EDGE('',*,*,#505,.T.);
#713=ORIENTED_EDGE('',*,*,#508,.F.);
#714=ORIENTED_EDGE('',*,*,#519,.F.);
#715=ORIENTED_EDGE('',*,*,#489,.F.);
#716=ORIENTED_EDGE('',*,*,#520,.F.);
#717=ORIENTED_EDGE('',*,*,#520,.T.);
#718=ORIENTED_EDGE('',*,*,#488,.T.);
#719=ORIENTED_EDGE('',*,*,#521,.T.);
#720=ORIENTED_EDGE('',*,*,#509,.T.);
#721=ORIENTED_EDGE('',*,*,#510,.F.);
#722=ORIENTED_EDGE('',*,*,#521,.F.);
#723=ORIENTED_EDGE('',*,*,#487,.F.);
#724=ORIENTED_EDGE('',*,*,#522,.F.);
#725=ORIENTED_EDGE('',*,*,#512,.F.);
#726=ORIENTED_EDGE('',*,*,#523,.F.);
#727=ORIENTED_EDGE('',*,*,#485,.F.);
#728=ORIENTED_EDGE('',*,*,#483,.F.);
#729=ORIENTED_EDGE('',*,*,#513,.T.);
#730=ORIENTED_EDGE('',*,*,#524,.T.);
#731=ORIENTED_EDGE('',*,*,#495,.F.);
#732=ORIENTED_EDGE('',*,*,#524,.F.);
#733=ORIENTED_EDGE('',*,*,#514,.T.);
#734=ORIENTED_EDGE('',*,*,#525,.T.);
#735=ORIENTED_EDGE('',*,*,#496,.F.);
#736=ORIENTED_EDGE('',*,*,#525,.F.);
#737=ORIENTED_EDGE('',*,*,#515,.T.);
#738=ORIENTED_EDGE('',*,*,#526,.T.);
#739=ORIENTED_EDGE('',*,*,#497,.F.);
#740=ORIENTED_EDGE('',*,*,#526,.F.);
#741=ORIENTED_EDGE('',*,*,#516,.T.);
#742=ORIENTED_EDGE('',*,*,#527,.T.);
#743=ORIENTED_EDGE('',*,*,#498,.F.);
#744=ORIENTED_EDGE('',*,*,#527,.F.);
#745=ORIENTED_EDGE('',*,*,#517,.T.);
#746=ORIENTED_EDGE('',*,*,#528,.T.);
#747=ORIENTED_EDGE('',*,*,#499,.F.);
#748=ORIENTED_EDGE('',*,*,#528,.F.);
#749=ORIENTED_EDGE('',*,*,#500,.T.);
#750=ORIENTED_EDGE('',*,*,#490,.T.);
#751=ORIENTED_EDGE('',*,*,#519,.T.);
#752=ORIENTED_EDGE('',*,*,#507,.T.);
#753=ORIENTED_EDGE('',*,*,#522,.T.);
#754=ORIENTED_EDGE('',*,*,#486,.T.);
#755=ORIENTED_EDGE('',*,*,#523,.T.);
#756=ORIENTED_EDGE('',*,*,#511,.T.);
#757=CYLINDRICAL_SURFACE('',#838,10.);
#758=CYLINDRICAL_SURFACE('',#842,6.);
#759=CYLINDRICAL_SURFACE('',#857,5.);
#760=CYLINDRICAL_SURFACE('',#870,7.5);
#761=CYLINDRICAL_SURFACE('',#872,3.);
#762=CYLINDRICAL_SURFACE('',#874,3.);
#763=CYLINDRICAL_SURFACE('',#875,3.);
#764=CYLINDRICAL_SURFACE('',#876,2.5);
#765=CYLINDRICAL_SURFACE('',#877,2.1);
#766=CYLINDRICAL_SURFACE('',#878,2.1);
#767=CYLINDRICAL_SURFACE('',#879,1.5);
#768=CYLINDRICAL_SURFACE('',#880,1.5);
#769=CYLINDRICAL_SURFACE('',#883,10.);
#770=CYLINDRICAL_SURFACE('',#887,6.);
#771=CYLINDRICAL_SURFACE('',#902,5.);
#772=CYLINDRICAL_SURFACE('',#915,7.5);
#773=CYLINDRICAL_SURFACE('',#917,3.);
#774=CYLINDRICAL_SURFACE('',#919,3.);
#775=CYLINDRICAL_SURFACE('',#920,3.);
#776=CYLINDRICAL_SURFACE('',#921,2.5);
#777=CYLINDRICAL_SURFACE('',#922,2.1);
#778=CYLINDRICAL_SURFACE('',#923,2.1);
#779=CYLINDRICAL_SURFACE('',#924,1.5);
#780=CYLINDRICAL_SURFACE('',#925,1.5);
#781=ADVANCED_FACE('',(#55),#757,.F.);
#782=ADVANCED_FACE('',(#56),#37,.T.);
#783=ADVANCED_FACE('',(#57),#758,.T.);
#784=ADVANCED_FACE('',(#58),#38,.T.);
#785=ADVANCED_FACE('',(#59,#17,#18,#19,#20,#21),#39,.F.);
#786=ADVANCED_FACE('',(#60),#759,.F.);
#787=ADVANCED_FACE('',(#61),#40,.T.);
#788=ADVANCED_FACE('',(#62,#22,#23,#24,#25,#26),#41,.T.);
#789=ADVANCED_FACE('',(#63),#760,.T.);
#790=ADVANCED_FACE('',(#64),#42,.T.);
#791=ADVANCED_FACE('',(#65),#761,.T.);
#792=ADVANCED_FACE('',(#66),#43,.T.);
#793=ADVANCED_FACE('',(#67),#762,.T.);
#794=ADVANCED_FACE('',(#68),#763,.T.);
#795=ADVANCED_FACE('',(#69),#764,.F.);
#796=ADVANCED_FACE('',(#70),#765,.F.);
#797=ADVANCED_FACE('',(#71),#766,.F.);
#798=ADVANCED_FACE('',(#72),#767,.F.);
#799=ADVANCED_FACE('',(#73),#768,.F.);
#800=ADVANCED_FACE('',(#74),#44,.T.);
#801=ADVANCED_FACE('',(#75),#45,.T.);
#802=ADVANCED_FACE('',(#76),#769,.F.);
#803=ADVANCED_FACE('',(#77),#46,.F.);
#804=ADVANCED_FACE('',(#78),#770,.T.);
#805=ADVANCED_FACE('',(#79),#47,.F.);
#806=ADVANCED_FACE('',(#80,#27,#28,#29,#30,#31),#48,.T.);
#807=ADVANCED_FACE('',(#81),#771,.F.);
#808=ADVANCED_FACE('',(#82),#49,.F.);
#809=ADVANCED_FACE('',(#83,#32,#33,#34,#35,#36),#50,.F.);
#810=ADVANCED_FACE('',(#84),#772,.T.);
#811=ADVANCED_FACE('',(#85),#51,.F.);
#812=ADVANCED_FACE('',(#86),#773,.T.);
#813=ADVANCED_FACE('',(#87),#52,.F.);
#814=ADVANCED_FACE('',(#88),#774,.T.);
#815=ADVANCED_FACE('',(#89),#775,.T.);
#816=ADVANCED_FACE('',(#90),#776,.F.);
#817=ADVANCED_FACE('',(#91),#777,.F.);
#818=ADVANCED_FACE('',(#92),#778,.F.);
#819=ADVANCED_FACE('',(#93),#779,.F.);
#820=ADVANCED_FACE('',(#94),#780,.F.);
#821=ADVANCED_FACE('',(#95),#53,.F.);
#822=ADVANCED_FACE('',(#96),#54,.F.);
#823=CLOSED_SHELL('',(#781,#782,#783,#784,#785,#786,#787,#788,#789,#790,
#791,#792,#793,#794,#795,#796,#797,#798,#799,#800,#801));
#824=CLOSED_SHELL('',(#802,#803,#804,#805,#806,#807,#808,#809,#810,#811,
#812,#813,#814,#815,#816,#817,#818,#819,#820,#821,#822));
#825=DERIVED_UNIT_ELEMENT(#827,1.);
#826=DERIVED_UNIT_ELEMENT(#1414,-3.);
#827=(
MASS_UNIT()
NAMED_UNIT(*)
SI_UNIT(.KILO.,.GRAM.)
);
#828=DERIVED_UNIT((#825,#826));
#829=MEASURE_REPRESENTATION_ITEM('density measure',
POSITIVE_RATIO_MEASURE(7850.),#828);
#830=PROPERTY_DEFINITION_REPRESENTATION(#835,#832);
#831=PROPERTY_DEFINITION_REPRESENTATION(#836,#833);
#832=REPRESENTATION('material name',(#834),#1411);
#833=REPRESENTATION('density',(#829),#1411);
#834=DESCRIPTIVE_REPRESENTATION_ITEM('Acier','Acier');
#835=PROPERTY_DEFINITION('material property','material name',#1421);
#836=PROPERTY_DEFINITION('material property','density of part',#1421);
#837=AXIS2_PLACEMENT_3D('',#1176,#928,#929);
#838=AXIS2_PLACEMENT_3D('',#1177,#930,#931);
#839=AXIS2_PLACEMENT_3D('',#1180,#932,#933);
#840=AXIS2_PLACEMENT_3D('',#1184,#935,#936);
#841=AXIS2_PLACEMENT_3D('',#1186,#938,#939);
#842=AXIS2_PLACEMENT_3D('',#1192,#943,#944);
#843=AXIS2_PLACEMENT_3D('',#1194,#945,#946);
#844=AXIS2_PLACEMENT_3D('',#1196,#947,#948);
#845=AXIS2_PLACEMENT_3D('',#1198,#950,#951);
#846=AXIS2_PLACEMENT_3D('',#1204,#955,#956);
#847=AXIS2_PLACEMENT_3D('',#1208,#958,#959);
#848=AXIS2_PLACEMENT_3D('',#1212,#961,#962);
#849=AXIS2_PLACEMENT_3D('',#1216,#964,#965);
#850=AXIS2_PLACEMENT_3D('',#1220,#967,#968);
#851=AXIS2_PLACEMENT_3D('',#1223,#970,#971);
#852=AXIS2_PLACEMENT_3D('',#1225,#972,#973);
#853=AXIS2_PLACEMENT_3D('',#1227,#974,#975);
#854=AXIS2_PLACEMENT_3D('',#1229,#976,#977);
#855=AXIS2_PLACEMENT_3D('',#1231,#978,#979);
#856=AXIS2_PLACEMENT_3D('',#1233,#980,#981);
#857=AXIS2_PLACEMENT_3D('',#1234,#982,#983);
#858=AXIS2_PLACEMENT_3D('',#1238,#985,#986);
#859=AXIS2_PLACEMENT_3D('',#1240,#988,#989);
#860=AXIS2_PLACEMENT_3D('',#1244,#992,#993);
#861=AXIS2_PLACEMENT_3D('',#1246,#994,#995);
#862=AXIS2_PLACEMENT_3D('',#1250,#997,#998);
#863=AXIS2_PLACEMENT_3D('',#1254,#1000,#1001);
#864=AXIS2_PLACEMENT_3D('',#1257,#1003,#1004);
#865=AXIS2_PLACEMENT_3D('',#1260,#1006,#1007);
#866=AXIS2_PLACEMENT_3D('',#1262,#1008,#1009);
#867=AXIS2_PLACEMENT_3D('',#1264,#1010,#1011);
#868=AXIS2_PLACEMENT_3D('',#1266,#1012,#1013);
#869=AXIS2_PLACEMENT_3D('',#1268,#1014,#1015);
#870=AXIS2_PLACEMENT_3D('',#1269,#1016,#1017);
#871=AXIS2_PLACEMENT_3D('',#1271,#1019,#1020);
#872=AXIS2_PLACEMENT_3D('',#1272,#1021,#1022);
#873=AXIS2_PLACEMENT_3D('',#1275,#1025,#1026);
#874=AXIS2_PLACEMENT_3D('',#1277,#1028,#1029);
#875=AXIS2_PLACEMENT_3D('',#1279,#1031,#1032);
#876=AXIS2_PLACEMENT_3D('',#1281,#1034,#1035);
#877=AXIS2_PLACEMENT_3D('',#1283,#1037,#1038);
#878=AXIS2_PLACEMENT_3D('',#1285,#1040,#1041);
#879=AXIS2_PLACEMENT_3D('',#1287,#1043,#1044);
#880=AXIS2_PLACEMENT_3D('',#1289,#1046,#1047);
#881=AXIS2_PLACEMENT_3D('',#1291,#1049,#1050);
#882=AXIS2_PLACEMENT_3D('',#1292,#1051,#1052);
#883=AXIS2_PLACEMENT_3D('',#1293,#1053,#1054);
#884=AXIS2_PLACEMENT_3D('',#1296,#1055,#1056);
#885=AXIS2_PLACEMENT_3D('',#1300,#1058,#1059);
#886=AXIS2_PLACEMENT_3D('',#1302,#1061,#1062);
#887=AXIS2_PLACEMENT_3D('',#1308,#1066,#1067);
#888=AXIS2_PLACEMENT_3D('',#1310,#1068,#1069);
#889=AXIS2_PLACEMENT_3D('',#1313,#1071,#1072);
#890=AXIS2_PLACEMENT_3D('',#1314,#1073,#1074);
#891=AXIS2_PLACEMENT_3D('',#1320,#1078,#1079);
#892=AXIS2_PLACEMENT_3D('',#1322,#1080,#1081);
#893=AXIS2_PLACEMENT_3D('',#1326,#1083,#1084);
#894=AXIS2_PLACEMENT_3D('',#1330,#1086,#1087);
#895=AXIS2_PLACEMENT_3D('',#1334,#1089,#1090);
#896=AXIS2_PLACEMENT_3D('',#1338,#1092,#1093);
#897=AXIS2_PLACEMENT_3D('',#1341,#1095,#1096);
#898=AXIS2_PLACEMENT_3D('',#1343,#1097,#1098);
#899=AXIS2_PLACEMENT_3D('',#1345,#1099,#1100);
#900=AXIS2_PLACEMENT_3D('',#1347,#1101,#1102);
#901=AXIS2_PLACEMENT_3D('',#1349,#1103,#1104);
#902=AXIS2_PLACEMENT_3D('',#1350,#1105,#1106);
#903=AXIS2_PLACEMENT_3D('',#1354,#1108,#1109);
#904=AXIS2_PLACEMENT_3D('',#1356,#1111,#1112);
#905=AXIS2_PLACEMENT_3D('',#1360,#1115,#1116);
#906=AXIS2_PLACEMENT_3D('',#1363,#1118,#1119);
#907=AXIS2_PLACEMENT_3D('',#1367,#1121,#1122);
#908=AXIS2_PLACEMENT_3D('',#1371,#1124,#1125);
#909=AXIS2_PLACEMENT_3D('',#1374,#1127,#1128);
#910=AXIS2_PLACEMENT_3D('',#1376,#1129,#1130);
#911=AXIS2_PLACEMENT_3D('',#1378,#1131,#1132);
#912=AXIS2_PLACEMENT_3D('',#1380,#1133,#1134);
#913=AXIS2_PLACEMENT_3D('',#1382,#1135,#1136);
#914=AXIS2_PLACEMENT_3D('',#1384,#1137,#1138);
#915=AXIS2_PLACEMENT_3D('',#1385,#1139,#1140);
#916=AXIS2_PLACEMENT_3D('',#1387,#1142,#1143);
#917=AXIS2_PLACEMENT_3D('',#1388,#1144,#1145);
#918=AXIS2_PLACEMENT_3D('',#1391,#1148,#1149);
#919=AXIS2_PLACEMENT_3D('',#1393,#1151,#1152);
#920=AXIS2_PLACEMENT_3D('',#1395,#1154,#1155);
#921=AXIS2_PLACEMENT_3D('',#1397,#1157,#1158);
#922=AXIS2_PLACEMENT_3D('',#1399,#1160,#1161);
#923=AXIS2_PLACEMENT_3D('',#1401,#1163,#1164);
#924=AXIS2_PLACEMENT_3D('',#1403,#1166,#1167);
#925=AXIS2_PLACEMENT_3D('',#1405,#1169,#1170);
#926=AXIS2_PLACEMENT_3D('',#1407,#1172,#1173);
#927=AXIS2_PLACEMENT_3D('',#1408,#1174,#1175);
#928=DIRECTION('axis',(0.,0.,1.));
#929=DIRECTION('refdir',(1.,0.,0.));
#930=DIRECTION('center_axis',(0.,0.,-1.));
#931=DIRECTION('ref_axis',(0.945070986440291,0.326865156584141,0.));
#932=DIRECTION('center_axis',(0.,0.,1.));
#933=DIRECTION('ref_axis',(0.945070986440291,0.326865156584141,0.));
#934=DIRECTION('',(0.,0.,-1.));
#935=DIRECTION('center_axis',(0.,0.,-1.));
#936=DIRECTION('ref_axis',(0.945070986440291,0.326865156584141,0.));
#937=DIRECTION('',(0.,0.,1.));
#938=DIRECTION('center_axis',(-0.786318338822449,-0.61782155193187,0.));
#939=DIRECTION('ref_axis',(-0.61782155193187,0.786318338822449,0.));
#940=DIRECTION('',(0.61782155193187,-0.786318338822449,0.));
#941=DIRECTION('',(0.,0.,1.));
#942=DIRECTION('',(-0.61782155193187,0.786318338822449,0.));
#943=DIRECTION('center_axis',(0.,0.,-1.));
#944=DIRECTION('ref_axis',(-0.945070986440291,-0.326865156584141,0.));
#945=DIRECTION('center_axis',(0.,0.,1.));
#946=DIRECTION('ref_axis',(-0.945070986440291,-0.326865156584141,0.));
#947=DIRECTION('center_axis',(0.,0.,-1.));
#948=DIRECTION('ref_axis',(-0.945070986440291,-0.326865156584141,0.));
#949=DIRECTION('',(0.,0.,-1.));
#950=DIRECTION('center_axis',(-1.,1.36841442570077E-15,0.));
#951=DIRECTION('ref_axis',(1.36841442570077E-15,1.,0.));
#952=DIRECTION('',(-1.36841442570077E-15,-1.,0.));
#953=DIRECTION('',(0.,0.,1.));
#954=DIRECTION('',(1.36841442570077E-15,1.,0.));
#955=DIRECTION('center_axis',(0.,0.,-1.));
#956=DIRECTION('ref_axis',(-1.,0.,0.));
#957=DIRECTION('',(-3.55271367880058E-16,-1.,0.));
#958=DIRECTION('center_axis',(0.,0.,-1.));
#959=DIRECTION('ref_axis',(0.707106781186547,-0.707106781186548,0.));
#960=DIRECTION('',(2.13162820728035E-15,1.,0.));
#961=DIRECTION('center_axis',(0.,0.,1.));
#962=DIRECTION('ref_axis',(-0.707106781186587,0.707106781186508,0.));
#963=DIRECTION('',(1.,1.14554830268139E-13,0.));
#964=DIRECTION('center_axis',(0.,0.,-1.));
#965=DIRECTION('ref_axis',(0.707106781186586,-0.70710678118651,0.));
#966=DIRECTION('',(8.88178419700126E-16,1.,0.));
#967=DIRECTION('center_axis',(0.,0.,-1.));
#968=DIRECTION('ref_axis',(0.707106781186548,0.707106781186548,0.));
#969=DIRECTION('',(-1.,0.,0.));
#970=DIRECTION('center_axis',(0.,0.,-1.));
#971=DIRECTION('ref_axis',(-0.707106781186549,0.707106781186546,0.));
#972=DIRECTION('center_axis',(0.,0.,1.));
#973=DIRECTION('ref_axis',(-1.,0.,0.));
#974=DIRECTION('center_axis',(0.,0.,1.));
#975=DIRECTION('ref_axis',(-1.,0.,0.));
#976=DIRECTION('center_axis',(0.,0.,1.));
#977=DIRECTION('ref_axis',(-1.,0.,0.));
#978=DIRECTION('center_axis',(0.,0.,1.));
#979=DIRECTION('ref_axis',(-1.,0.,0.));
#980=DIRECTION('center_axis',(0.,0.,1.));
#981=DIRECTION('ref_axis',(-1.,0.,0.));
#982=DIRECTION('center_axis',(0.,0.,-1.));
#983=DIRECTION('ref_axis',(-0.707106781186587,0.707106781186508,0.));
#984=DIRECTION('',(0.,0.,-1.));
#985=DIRECTION('center_axis',(0.,0.,-1.));
#986=DIRECTION('ref_axis',(-0.707106781186587,0.707106781186508,0.));
#987=DIRECTION('',(0.,0.,1.));
#988=DIRECTION('center_axis',(1.,-2.13162820728035E-15,0.));
#989=DIRECTION('ref_axis',(-2.13162820728035E-15,-1.,0.));
#990=DIRECTION('',(0.,0.,1.));
#991=DIRECTION('',(-2.13162820728035E-15,-1.,0.));
#992=DIRECTION('center_axis',(0.,0.,-1.));
#993=DIRECTION('ref_axis',(-1.,0.,0.));
#994=DIRECTION('center_axis',(0.,0.,1.));
#995=DIRECTION('ref_axis',(-0.707106781186549,0.707106781186546,0.));
#996=DIRECTION('',(1.,0.,0.));
#997=DIRECTION('center_axis',(0.,0.,1.));
#998=DIRECTION('ref_axis',(0.707106781186548,0.707106781186548,0.));
#999=DIRECTION('',(-8.88178419700126E-16,-1.,0.));
#1000=DIRECTION('center_axis',(0.,0.,1.));
#1001=DIRECTION('ref_axis',(0.707106781186586,-0.70710678118651,0.));
#1002=DIRECTION('',(-1.,-1.14554830268139E-13,0.));
#1003=DIRECTION('center_axis',(0.,0.,1.));
#1004=DIRECTION('ref_axis',(0.707106781186547,-0.707106781186548,0.));
#1005=DIRECTION('',(3.55271367880058E-16,1.,0.));
#1006=DIRECTION('center_axis',(0.,0.,1.));
#1007=DIRECTION('ref_axis',(-1.,0.,0.));
#1008=DIRECTION('center_axis',(0.,0.,1.));
#1009=DIRECTION('ref_axis',(-1.,0.,0.));
#1010=DIRECTION('center_axis',(0.,0.,1.));
#1011=DIRECTION('ref_axis',(-1.,0.,0.));
#1012=DIRECTION('center_axis',(0.,0.,1.));
#1013=DIRECTION('ref_axis',(-1.,0.,0.));
#1014=DIRECTION('center_axis',(0.,0.,1.));
#1015=DIRECTION('ref_axis',(-1.,0.,0.));
#1016=DIRECTION('center_axis',(0.,0.,-1.));
#1017=DIRECTION('ref_axis',(-0.707106781186548,-0.707106781186547,0.));
#1018=DIRECTION('',(0.,0.,-1.));
#1019=DIRECTION('center_axis',(-1.,3.55271367880058E-16,0.));
#1020=DIRECTION('ref_axis',(3.55271367880058E-16,1.,0.));
#1021=DIRECTION('center_axis',(0.,0.,-1.));
#1022=DIRECTION('ref_axis',(0.707106781186586,-0.70710678118651,0.));
#1023=DIRECTION('',(0.,0.,1.));
#1024=DIRECTION('',(0.,0.,-1.));
#1025=DIRECTION('center_axis',(1.,-8.88178419700126E-16,0.));
#1026=DIRECTION('ref_axis',(-8.88178419700126E-16,-1.,0.));
#1027=DIRECTION('',(0.,0.,-1.));
#1028=DIRECTION('center_axis',(0.,0.,-1.));
#1029=DIRECTION('ref_axis',(0.707106781186548,0.707106781186548,0.));
#1030=DIRECTION('',(0.,0.,1.));
#1031=DIRECTION('center_axis',(0.,0.,-1.));
#1032=DIRECTION('ref_axis',(-0.707106781186549,0.707106781186546,0.));
#1033=DIRECTION('',(0.,0.,-1.));
#1034=DIRECTION('center_axis',(0.,0.,-1.));
#1035=DIRECTION('ref_axis',(-1.,0.,0.));
#1036=DIRECTION('',(0.,0.,1.));
#1037=DIRECTION('center_axis',(0.,0.,-1.));
#1038=DIRECTION('ref_axis',(-1.,0.,0.));
#1039=DIRECTION('',(0.,0.,1.));
#1040=DIRECTION('center_axis',(0.,0.,-1.));
#1041=DIRECTION('ref_axis',(-1.,0.,0.));
#1042=DIRECTION('',(0.,0.,1.));
#1043=DIRECTION('center_axis',(0.,0.,-1.));
#1044=DIRECTION('ref_axis',(-1.,0.,0.));
#1045=DIRECTION('',(0.,0.,1.));
#1046=DIRECTION('center_axis',(0.,0.,-1.));
#1047=DIRECTION('ref_axis',(-1.,0.,0.));
#1048=DIRECTION('',(0.,0.,1.));
#1049=DIRECTION('center_axis',(1.14554830268139E-13,-1.,0.));
#1050=DIRECTION('ref_axis',(-1.,-1.14554830268139E-13,0.));
#1051=DIRECTION('center_axis',(0.,1.,0.));
#1052=DIRECTION('ref_axis',(1.,0.,0.));
#1053=DIRECTION('center_axis',(1.4246461593226E-29,1.22464679914735E-16,
-1.));
#1054=DIRECTION('ref_axis',(-0.945070986440366,-0.326865156583923,-4.00294367763435E-17));
#1055=DIRECTION('center_axis',(-1.4246461593226E-29,-1.22464679914735E-16,
1.));
#1056=DIRECTION('ref_axis',(-0.945070986440366,-0.326865156583923,-4.00294367763435E-17));
#1057=DIRECTION('',(1.4246461593226E-29,1.22464679914735E-16,-1.));
#1058=DIRECTION('center_axis',(1.4246461593226E-29,1.22464679914735E-16,
-1.));
#1059=DIRECTION('ref_axis',(-0.945070986440366,-0.326865156583923,-4.00294367763435E-17));
#1060=DIRECTION('',(-1.4246461593226E-29,-1.22464679914735E-16,1.));
#1061=DIRECTION('center_axis',(-0.786318338822592,-0.617821551931688,-7.56613186017504E-17));
#1062=DIRECTION('ref_axis',(0.617821551931688,-0.786318338822592,-9.62962236749863E-17));
#1063=DIRECTION('',(0.617821551931688,-0.786318338822592,-9.62962236749863E-17));
#1064=DIRECTION('',(1.4246461593226E-29,1.22464679914735E-16,-1.));
#1065=DIRECTION('',(-0.617821551931688,0.786318338822592,9.62962236749863E-17));
#1066=DIRECTION('center_axis',(1.4246461593226E-29,1.22464679914735E-16,
-1.));
#1067=DIRECTION('ref_axis',(0.945070986440367,0.326865156583923,4.00294367763434E-17));
#1068=DIRECTION('center_axis',(-1.4246461593226E-29,-1.22464679914735E-16,
1.));
#1069=DIRECTION('ref_axis',(0.945070986440367,0.326865156583923,4.00294367763434E-17));
#1070=DIRECTION('',(-1.4246461593226E-29,-1.22464679914735E-16,1.));
#1071=DIRECTION('center_axis',(1.4246461593226E-29,1.22464679914735E-16,
-1.));
#1072=DIRECTION('ref_axis',(0.945070986440367,0.326865156583923,4.00294367763434E-17));
#1073=DIRECTION('center_axis',(-1.,2.32254431801379E-13,1.41965030561086E-29));
#1074=DIRECTION('ref_axis',(-2.32254431801379E-13,-1.,-1.22464679914735E-16));
#1075=DIRECTION('',(-2.32254431801379E-13,-1.,-1.22464679914735E-16));
#1076=DIRECTION('',(1.4246461593226E-29,1.22464679914735E-16,-1.));
#1077=DIRECTION('',(2.32254431801379E-13,1.,1.22464679914735E-16));
#1078=DIRECTION('center_axis',(1.4246461593226E-29,1.22464679914735E-16,
-1.));
#1079=DIRECTION('ref_axis',(1.,-2.30886017375679E-13,-1.40289206214745E-29));
#1080=DIRECTION('center_axis',(1.4246461593226E-29,1.22464679914735E-16,
-1.));
#1081=DIRECTION('ref_axis',(0.707106781186386,-0.707106781186709,-8.65956056235591E-17));
#1082=DIRECTION('',(1.,-2.30886017375679E-13,-1.40289206214745E-29));
#1083=DIRECTION('center_axis',(1.4246461593226E-29,1.22464679914735E-16,
-1.));
#1084=DIRECTION('ref_axis',(-0.707106781186711,-0.707106781186384,-8.65956056235394E-17));
#1085=DIRECTION('',(-2.31774195795379E-13,-1.,-1.22464679914735E-16));
#1086=DIRECTION('center_axis',(1.4246461593226E-29,1.22464679914735E-16,
-1.));
#1087=DIRECTION('ref_axis',(-0.707106781186422,0.707106781186673,8.65956056235546E-17));
#1088=DIRECTION('',(-1.,1.16331187107539E-13,0.));
#1089=DIRECTION('center_axis',(-1.4246461593226E-29,-1.22464679914735E-16,
1.));
#1090=DIRECTION('ref_axis',(0.707106781186424,-0.707106781186672,-8.65956056235544E-17));
#1091=DIRECTION('',(-2.33017645582959E-13,-1.,-1.22464679914735E-16));
#1092=DIRECTION('center_axis',(1.4246461593226E-29,1.22464679914735E-16,
-1.));
#1093=DIRECTION('ref_axis',(-0.707106781186383,0.707106781186712,8.65956056235593E-17));
#1094=DIRECTION('',(2.31241288743559E-13,1.,1.22464679914735E-16));
#1095=DIRECTION('center_axis',(-1.4246461593226E-29,-1.22464679914735E-16,
1.));
#1096=DIRECTION('ref_axis',(1.,-2.30886017375679E-13,-1.40289206214745E-29));
#1097=DIRECTION('center_axis',(-1.4246461593226E-29,-1.22464679914735E-16,
1.));
#1098=DIRECTION('ref_axis',(1.,-2.30886017375679E-13,-1.40289206214745E-29));
#1099=DIRECTION('center_axis',(-1.4246461593226E-29,-1.22464679914735E-16,
1.));
#1100=DIRECTION('ref_axis',(1.,-2.30886017375679E-13,-1.40289206214745E-29));
#1101=DIRECTION('center_axis',(-1.4246461593226E-29,-1.22464679914735E-16,
1.));
#1102=DIRECTION('ref_axis',(1.,-2.30886017375679E-13,-1.40289206214745E-29));
#1103=DIRECTION('center_axis',(-1.4246461593226E-29,-1.22464679914735E-16,
1.));
#1104=DIRECTION('ref_axis',(1.,-2.30886017375679E-13,-1.40289206214745E-29));
#1105=DIRECTION('center_axis',(1.4246461593226E-29,1.22464679914735E-16,
-1.));
#1106=DIRECTION('ref_axis',(0.707106781186424,-0.707106781186672,-8.65956056235544E-17));
#1107=DIRECTION('',(1.4246461593226E-29,1.22464679914735E-16,-1.));
#1108=DIRECTION('center_axis',(1.4246461593226E-29,1.22464679914735E-16,
-1.));
#1109=DIRECTION('ref_axis',(0.707106781186424,-0.707106781186672,-8.65956056235544E-17));
#1110=DIRECTION('',(-1.4246461593226E-29,-1.22464679914735E-16,1.));
#1111=DIRECTION('center_axis',(1.,-2.33017645582959E-13,-1.42899697875763E-29));
#1112=DIRECTION('ref_axis',(2.33017645582959E-13,1.,1.22464679914735E-16));
#1113=DIRECTION('',(2.33017645582959E-13,1.,1.22464679914735E-16));
#1114=DIRECTION('',(1.4246461593226E-29,1.22464679914735E-16,-1.));
#1115=DIRECTION('center_axis',(1.4246461593226E-29,1.22464679914735E-16,
-1.));
#1116=DIRECTION('ref_axis',(1.,-2.30886017375679E-13,-1.40289206214745E-29));
#1117=DIRECTION('',(-2.31241288743559E-13,-1.,-1.22464679914735E-16));
#1118=DIRECTION('center_axis',(-1.4246461593226E-29,-1.22464679914735E-16,
1.));
#1119=DIRECTION('ref_axis',(-0.707106781186383,0.707106781186712,8.65956056235593E-17));
#1120=DIRECTION('',(1.,-1.16331187107539E-13,0.));
#1121=DIRECTION('center_axis',(-1.4246461593226E-29,-1.22464679914735E-16,
1.));
#1122=DIRECTION('ref_axis',(-0.707106781186422,0.707106781186673,8.65956056235546E-17));
#1123=DIRECTION('',(2.31774195795379E-13,1.,1.22464679914735E-16));
#1124=DIRECTION('center_axis',(-1.4246461593226E-29,-1.22464679914735E-16,
1.));
#1125=DIRECTION('ref_axis',(-0.707106781186711,-0.707106781186384,-8.65956056235394E-17));
#1126=DIRECTION('',(-1.,2.30886017375679E-13,1.40289206214745E-29));
#1127=DIRECTION('center_axis',(-1.4246461593226E-29,-1.22464679914735E-16,
1.));
#1128=DIRECTION('ref_axis',(0.707106781186386,-0.707106781186709,-8.65956056235591E-17));
#1129=DIRECTION('center_axis',(-1.4246461593226E-29,-1.22464679914735E-16,
1.));
#1130=DIRECTION('ref_axis',(1.,-2.30886017375679E-13,-1.40289206214745E-29));
#1131=DIRECTION('center_axis',(-1.4246461593226E-29,-1.22464679914735E-16,
1.));
#1132=DIRECTION('ref_axis',(1.,-2.30886017375679E-13,-1.40289206214745E-29));
#1133=DIRECTION('center_axis',(-1.4246461593226E-29,-1.22464679914735E-16,
1.));
#1134=DIRECTION('ref_axis',(1.,-2.30886017375679E-13,-1.40289206214745E-29));
#1135=DIRECTION('center_axis',(-1.4246461593226E-29,-1.22464679914735E-16,
1.));
#1136=DIRECTION('ref_axis',(1.,-2.30886017375679E-13,-1.40289206214745E-29));
#1137=DIRECTION('center_axis',(-1.4246461593226E-29,-1.22464679914735E-16,
1.));
#1138=DIRECTION('ref_axis',(1.,-2.30886017375679E-13,-1.40289206214745E-29));
#1139=DIRECTION('center_axis',(1.4246461593226E-29,1.22464679914735E-16,
-1.));
#1140=DIRECTION('ref_axis',(0.707106781186711,0.707106781186384,8.65956056235393E-17));
#1141=DIRECTION('',(-1.4246461593226E-29,-1.22464679914735E-16,1.));
#1142=DIRECTION('center_axis',(-1.,2.31241288743559E-13,1.40724288158248E-29));
#1143=DIRECTION('ref_axis',(-2.31241288743559E-13,-1.,-1.22464679914735E-16));
#1144=DIRECTION('center_axis',(1.4246461593226E-29,1.22464679914735E-16,
-1.));
#1145=DIRECTION('ref_axis',(-0.707106781186422,0.707106781186673,8.65956056235546E-17));
#1146=DIRECTION('',(-1.4246461593226E-29,-1.22464679914735E-16,1.));
#1147=DIRECTION('',(1.4246461593226E-29,1.22464679914735E-16,-1.));
#1148=DIRECTION('center_axis',(1.,-2.31774195795379E-13,-1.41376911073502E-29));
#1149=DIRECTION('ref_axis',(2.31774195795379E-13,1.,1.22464679914735E-16));
#1150=DIRECTION('',(-1.4246461593226E-29,-1.22464679914735E-16,1.));
#1151=DIRECTION('center_axis',(1.4246461593226E-29,1.22464679914735E-16,
-1.));
#1152=DIRECTION('ref_axis',(-0.707106781186711,-0.707106781186384,-8.65956056235394E-17));
#1153=DIRECTION('',(1.4246461593226E-29,1.22464679914735E-16,-1.));
#1154=DIRECTION('center_axis',(1.4246461593226E-29,1.22464679914735E-16,
-1.));
#1155=DIRECTION('ref_axis',(0.707106781186386,-0.707106781186709,-8.65956056235591E-17));
#1156=DIRECTION('',(-1.4246461593226E-29,-1.22464679914735E-16,1.));
#1157=DIRECTION('center_axis',(1.4246461593226E-29,1.22464679914735E-16,
-1.));
#1158=DIRECTION('ref_axis',(1.,-2.30886017375679E-13,-1.40289206214745E-29));
#1159=DIRECTION('',(1.4246461593226E-29,1.22464679914735E-16,-1.));
#1160=DIRECTION('center_axis',(1.4246461593226E-29,1.22464679914735E-16,
-1.));
#1161=DIRECTION('ref_axis',(1.,-2.30886017375679E-13,-1.40289206214745E-29));
#1162=DIRECTION('',(1.4246461593226E-29,1.22464679914735E-16,-1.));
#1163=DIRECTION('center_axis',(1.4246461593226E-29,1.22464679914735E-16,
-1.));
#1164=DIRECTION('ref_axis',(1.,-2.30886017375679E-13,-1.40289206214745E-29));
#1165=DIRECTION('',(1.4246461593226E-29,1.22464679914735E-16,-1.));
#1166=DIRECTION('center_axis',(1.4246461593226E-29,1.22464679914735E-16,
-1.));
#1167=DIRECTION('ref_axis',(1.,-2.30886017375679E-13,-1.40289206214745E-29));
#1168=DIRECTION('',(1.4246461593226E-29,1.22464679914735E-16,-1.));
#1169=DIRECTION('center_axis',(1.4246461593226E-29,1.22464679914735E-16,
-1.));
#1170=DIRECTION('ref_axis',(1.,-2.30886017375679E-13,-1.40289206214745E-29));
#1171=DIRECTION('',(1.4246461593226E-29,1.22464679914735E-16,-1.));
#1172=DIRECTION('center_axis',(-1.16331187107539E-13,-1.,-1.22464679914735E-16));
#1173=DIRECTION('ref_axis',(1.,-1.16331187107539E-13,0.));
#1174=DIRECTION('center_axis',(2.30886017375679E-13,1.,1.22464679914735E-16));
#1175=DIRECTION('ref_axis',(-1.,2.30886017375679E-13,1.40289206214745E-29));
#1176=CARTESIAN_POINT('',(0.,0.,0.));
#1177=CARTESIAN_POINT('Origin',(1.2081172335941E-14,-3.45863074069569,3.175));
#1178=CARTESIAN_POINT('',(10.,-3.4586307406957,3.175));
#1179=CARTESIAN_POINT('',(7.86318338822451,2.71958477862301,3.175));
#1180=CARTESIAN_POINT('Origin',(1.2081172335941E-14,-3.45863074069569,3.175));
#1181=CARTESIAN_POINT('',(7.86318338822451,2.71958477862301,1.675));
#1182=CARTESIAN_POINT('',(7.86318338822451,2.71958477862301,3.175));
#1183=CARTESIAN_POINT('',(10.,-3.4586307406957,1.675));
#1184=CARTESIAN_POINT('Origin',(1.2081172335941E-14,-3.45863074069569,1.675));
#1185=CARTESIAN_POINT('',(10.,-3.4586307406957,3.175));
#1186=CARTESIAN_POINT('Origin',(10.,-6.07291994469961E-13,3.175));
#1187=CARTESIAN_POINT('',(5.78208996706533,5.36824913282583,3.175));
#1188=CARTESIAN_POINT('',(4.50000000000002,7.,3.175));
#1189=CARTESIAN_POINT('',(5.78208996706533,5.36824913282583,1.675));
#1190=CARTESIAN_POINT('',(5.78208996706533,5.36824913282583,3.175));
#1191=CARTESIAN_POINT('',(4.50000000000002,7.,1.675));
#1192=CARTESIAN_POINT('Origin',(10.5,9.07517844441705,3.175));
#1193=CARTESIAN_POINT('',(4.50000000000002,9.07517844441705,1.675));
#1194=CARTESIAN_POINT('Origin',(10.5,9.07517844441705,1.675));
#1195=CARTESIAN_POINT('',(4.50000000000002,9.07517844441705,3.175));
#1196=CARTESIAN_POINT('Origin',(10.5,9.07517844441705,3.175));
#1197=CARTESIAN_POINT('',(4.50000000000002,9.07517844441706,3.175));
#1198=CARTESIAN_POINT('Origin',(4.50000000000002,7.,3.175));
#1199=CARTESIAN_POINT('',(4.50000000000008,47.,3.175));
#1200=CARTESIAN_POINT('',(4.50000000000008,50.,3.175));
#1201=CARTESIAN_POINT('',(4.50000000000008,47.,1.675));
#1202=CARTESIAN_POINT('',(4.50000000000008,47.,3.175));
#1203=CARTESIAN_POINT('',(4.50000000000008,50.,1.675));
#1204=CARTESIAN_POINT('Origin',(25.0000000000001,12.5,3.175));
#1205=CARTESIAN_POINT('',(10.,-17.5,3.175));
#1206=CARTESIAN_POINT('',(10.,-6.07847105982273E-13,3.175));
#1207=CARTESIAN_POINT('',(25.,-17.5000000000001,3.175));
#1208=CARTESIAN_POINT('Origin',(17.5,-17.5,3.175));
#1209=CARTESIAN_POINT('',(25.,-5.00000000000174,3.175));
#1210=CARTESIAN_POINT('',(25.,-25.,3.175));
#1211=CARTESIAN_POINT('',(29.9999999999995,-1.75117496261447E-12,3.175));
#1212=CARTESIAN_POINT('Origin',(30.,-5.00000000000175,3.175));
#1213=CARTESIAN_POINT('',(42.5000000000004,-3.19239584262623E-13,3.175));
#1214=CARTESIAN_POINT('',(39.9999999999999,-6.05626659933023E-13,3.175));
#1215=CARTESIAN_POINT('',(45.5,2.99999999999968,3.175));
#1216=CARTESIAN_POINT('Origin',(42.5000000000001,2.99999999999968,3.175));
#1217=CARTESIAN_POINT('',(45.5000000000001,47.,3.175));
#1218=CARTESIAN_POINT('',(45.5,2.44249065417534E-14,3.175));
#1219=CARTESIAN_POINT('',(42.5000000000001,50.,3.175));
#1220=CARTESIAN_POINT('Origin',(42.5000000000001,47.,3.175));
#1221=CARTESIAN_POINT('',(7.50000000000008,50.,3.175));
#1222=CARTESIAN_POINT('',(50.,50.,3.175));
#1223=CARTESIAN_POINT('Origin',(7.50000000000008,47.,3.175));
#1224=CARTESIAN_POINT('',(20.,-17.5,3.175));
#1225=CARTESIAN_POINT('Origin',(17.5,-17.5,3.175));
#1226=CARTESIAN_POINT('',(17.1,4.99999932944773,3.175));
#1227=CARTESIAN_POINT('Origin',(15.,4.99999932944773,3.175));
#1228=CARTESIAN_POINT('',(37.1,45.0000006705523,3.175));
#1229=CARTESIAN_POINT('Origin',(35.,45.0000006705523,3.175));
#1230=CARTESIAN_POINT('',(37.5,5.49999999999998,3.175));
#1231=CARTESIAN_POINT('Origin',(36.,5.49999999999998,3.175));
#1232=CARTESIAN_POINT('',(15.5,44.5,3.175));
#1233=CARTESIAN_POINT('Origin',(14.,44.5,3.175));
#1234=CARTESIAN_POINT('Origin',(30.,-5.00000000000175,3.175));
#1235=CARTESIAN_POINT('',(25.,-5.00000000000174,1.675));
#1236=CARTESIAN_POINT('',(25.,-5.00000000000174,3.175));
#1237=CARTESIAN_POINT('',(29.9999999999995,-1.75117496261447E-12,1.675));
#1238=CARTESIAN_POINT('Origin',(30.,-5.00000000000175,1.675));
#1239=CARTESIAN_POINT('',(29.9999999999995,-1.75082170983387E-12,3.175));
#1240=CARTESIAN_POINT('Origin',(25.0000000000001,-6.08402217494586E-13,
3.175));
#1241=CARTESIAN_POINT('',(25.,-17.5000000000001,1.675));
#1242=CARTESIAN_POINT('',(25.,-17.5000000000001,3.175));
#1243=CARTESIAN_POINT('',(25.,-25.,1.675));
#1244=CARTESIAN_POINT('Origin',(25.0000000000001,12.5,1.675));
#1245=CARTESIAN_POINT('',(7.50000000000008,50.,1.675));
#1246=CARTESIAN_POINT('Origin',(7.50000000000008,47.,1.675));
#1247=CARTESIAN_POINT('',(42.5000000000001,50.,1.675));
#1248=CARTESIAN_POINT('',(50.,50.,1.675));
#1249=CARTESIAN_POINT('',(45.5000000000001,47.,1.675));
#1250=CARTESIAN_POINT('Origin',(42.5000000000001,47.,1.675));
#1251=CARTESIAN_POINT('',(45.5,2.99999999999968,1.675));
#1252=CARTESIAN_POINT('',(45.5,2.44249065417534E-14,1.675));
#1253=CARTESIAN_POINT('',(42.5000000000004,-3.19239584262623E-13,1.675));
#1254=CARTESIAN_POINT('Origin',(42.5000000000001,2.99999999999968,1.675));
#1255=CARTESIAN_POINT('',(39.9999999999999,-6.05626659933023E-13,1.675));
#1256=CARTESIAN_POINT('',(10.,-17.5,1.675));
#1257=CARTESIAN_POINT('Origin',(17.5,-17.5,1.675));
#1258=CARTESIAN_POINT('',(10.,-6.07847105982273E-13,1.675));
#1259=CARTESIAN_POINT('',(20.,-17.5,1.675));
#1260=CARTESIAN_POINT('Origin',(17.5,-17.5,1.675));
#1261=CARTESIAN_POINT('',(17.1,4.99999932944773,1.675));
#1262=CARTESIAN_POINT('Origin',(15.,4.99999932944773,1.675));
#1263=CARTESIAN_POINT('',(37.1,45.0000006705523,1.675));
#1264=CARTESIAN_POINT('Origin',(35.,45.0000006705523,1.675));
#1265=CARTESIAN_POINT('',(37.5,5.49999999999998,1.675));
#1266=CARTESIAN_POINT('Origin',(36.,5.49999999999998,1.675));
#1267=CARTESIAN_POINT('',(15.5,44.5,1.675));
#1268=CARTESIAN_POINT('Origin',(14.,44.5,1.675));
#1269=CARTESIAN_POINT('Origin',(17.5,-17.5,3.175));
#1270=CARTESIAN_POINT('',(10.,-17.5,3.175));
#1271=CARTESIAN_POINT('Origin',(10.,-25.,3.175));
#1272=CARTESIAN_POINT('Origin',(42.5000000000001,2.99999999999968,3.175));
#1273=CARTESIAN_POINT('',(45.5,2.99999999999968,3.175));
#1274=CARTESIAN_POINT('',(42.5000000000004,-3.19189119579733E-13,3.175));
#1275=CARTESIAN_POINT('Origin',(45.5000000000001,50.,3.175));
#1276=CARTESIAN_POINT('',(45.5000000000001,47.,3.175));
#1277=CARTESIAN_POINT('Origin',(42.5000000000001,47.,3.175));
#1278=CARTESIAN_POINT('',(42.5000000000001,50.,3.175));
#1279=CARTESIAN_POINT('Origin',(7.50000000000008,47.,3.175));
#1280=CARTESIAN_POINT('',(7.50000000000008,50.,3.175));
#1281=CARTESIAN_POINT('Origin',(17.5,-17.5,3.175));
#1282=CARTESIAN_POINT('',(20.,-17.5,3.175));
#1283=CARTESIAN_POINT('Origin',(15.,4.99999932944773,3.175));
#1284=CARTESIAN_POINT('',(17.1,4.99999932944773,3.175));
#1285=CARTESIAN_POINT('Origin',(35.,45.0000006705523,3.175));
#1286=CARTESIAN_POINT('',(37.1,45.0000006705523,3.175));
#1287=CARTESIAN_POINT('Origin',(36.,5.49999999999998,3.175));
#1288=CARTESIAN_POINT('',(37.5,5.49999999999998,3.175));
#1289=CARTESIAN_POINT('Origin',(14.,44.5,3.175));
#1290=CARTESIAN_POINT('',(15.5,44.5,3.175));
#1291=CARTESIAN_POINT('Origin',(45.5,2.44249065417534E-14,3.175));
#1292=CARTESIAN_POINT('Origin',(4.50000000000008,50.,3.175));
#1293=CARTESIAN_POINT('Origin',(52.6429390304734,-23.7842307175518,1.675));
#1294=CARTESIAN_POINT('',(42.6429390304734,-23.7842307175495,1.675));
#1295=CARTESIAN_POINT('',(44.7797556422475,-29.9624462368687,1.675));
#1296=CARTESIAN_POINT('Origin',(52.6429390304734,-23.7842307175518,1.675));
#1297=CARTESIAN_POINT('',(42.6429390304734,-23.7842307175495,3.175));
#1298=CARTESIAN_POINT('',(42.6429390304734,-23.7842307175495,1.675));
#1299=CARTESIAN_POINT('',(44.7797556422475,-29.9624462368687,3.175));
#1300=CARTESIAN_POINT('Origin',(52.6429390304734,-23.7842307175518,3.175));
#1301=CARTESIAN_POINT('',(44.7797556422475,-29.9624462368687,1.675));
#1302=CARTESIAN_POINT('Origin',(42.6429390304726,-27.2428614582446,1.675));
#1303=CARTESIAN_POINT('',(46.8608490634061,-32.611110591072,3.175));
#1304=CARTESIAN_POINT('',(48.142939030471,-34.2428614582465,3.175));
#1305=CARTESIAN_POINT('',(46.8608490634061,-32.611110591072,1.675));
#1306=CARTESIAN_POINT('',(46.8608490634061,-32.611110591072,1.675));
#1307=CARTESIAN_POINT('',(48.142939030471,-34.2428614582465,1.675));
#1308=CARTESIAN_POINT('Origin',(42.1429390304705,-36.3180399026622,1.675));
#1309=CARTESIAN_POINT('',(48.1429390304705,-36.3180399026636,3.175));
#1310=CARTESIAN_POINT('Origin',(42.1429390304705,-36.3180399026622,3.175));
#1311=CARTESIAN_POINT('',(48.1429390304705,-36.3180399026636,1.675));
#1312=CARTESIAN_POINT('',(48.1429390304705,-36.3180399026636,1.675));
#1313=CARTESIAN_POINT('Origin',(42.1429390304705,-36.3180399026622,1.675));
#1314=CARTESIAN_POINT('Origin',(48.142939030471,-34.2428614582465,1.675));
#1315=CARTESIAN_POINT('',(48.1429390304617,-74.2428614582465,3.17499999999999));
#1316=CARTESIAN_POINT('',(48.142939030461,-77.2428614582465,3.17499999999999));
#1317=CARTESIAN_POINT('',(48.1429390304617,-74.2428614582465,1.67499999999999));
#1318=CARTESIAN_POINT('',(48.1429390304617,-74.2428614582465,1.67499999999999));
#1319=CARTESIAN_POINT('',(48.142939030461,-77.2428614582465,1.67499999999999));
#1320=CARTESIAN_POINT('Origin',(27.6429390304697,-39.7428614582418,1.67499999999999));
#1321=CARTESIAN_POINT('',(45.142939030461,-77.2428614582458,1.67499999999999));
#1322=CARTESIAN_POINT('Origin',(45.1429390304617,-74.2428614582458,1.67499999999999));
#1323=CARTESIAN_POINT('',(10.142939030461,-77.2428614582377,1.67499999999999));
#1324=CARTESIAN_POINT('',(2.6429390304611,-77.242861458236,1.67499999999999));
#1325=CARTESIAN_POINT('',(7.14293903046171,-74.242861458237,1.67499999999999));
#1326=CARTESIAN_POINT('Origin',(10.1429390304617,-74.2428614582377,1.67499999999999));
#1327=CARTESIAN_POINT('',(7.14293903047191,-30.2428614582367,1.675));
#1328=CARTESIAN_POINT('',(7.14293903047261,-27.2428614582371,1.675));
#1329=CARTESIAN_POINT('',(10.1429390304722,-27.2428614582374,1.675));
#1330=CARTESIAN_POINT('Origin',(10.1429390304719,-30.2428614582374,1.675));
#1331=CARTESIAN_POINT('',(22.6429390304732,-27.2428614582389,1.675));
#1332=CARTESIAN_POINT('',(12.6429390304727,-27.2428614582377,1.675));
#1333=CARTESIAN_POINT('',(27.6429390304738,-22.24286145824,1.675));
#1334=CARTESIAN_POINT('Origin',(22.6429390304738,-22.2428614582389,1.675));
#1335=CARTESIAN_POINT('',(27.6429390304767,-9.74286145824172,1.675));
#1336=CARTESIAN_POINT('',(27.6429390304784,-2.24286145824173,1.675));
#1337=CARTESIAN_POINT('',(42.6429390304767,-9.7428614582452,1.675));
#1338=CARTESIAN_POINT('Origin',(35.1429390304767,-9.74286145824346,1.675));
#1339=CARTESIAN_POINT('',(42.6429390304726,-27.2428614582446,1.675));
#1340=CARTESIAN_POINT('',(32.6429390304767,-9.7428614582429,1.675));
#1341=CARTESIAN_POINT('Origin',(35.1429390304767,-9.74286145824348,1.675));
#1342=CARTESIAN_POINT('',(35.5429390304715,-32.2428607876913,1.675));
#1343=CARTESIAN_POINT('Origin',(37.6429390304715,-32.2428607876918,1.675));
#1344=CARTESIAN_POINT('',(15.5429390304623,-72.2428621287912,1.67499999999999));
#1345=CARTESIAN_POINT('Origin',(17.6429390304623,-72.2428621287917,1.67499999999999));
#1346=CARTESIAN_POINT('',(15.1429390304714,-32.7428614582389,1.675));
#1347=CARTESIAN_POINT('Origin',(16.6429390304714,-32.7428614582392,1.675));
#1348=CARTESIAN_POINT('',(37.1429390304624,-71.742861458244,1.67499999999999));
#1349=CARTESIAN_POINT('Origin',(38.6429390304624,-71.7428614582443,1.67499999999999));
#1350=CARTESIAN_POINT('Origin',(22.6429390304738,-22.2428614582389,1.675));
#1351=CARTESIAN_POINT('',(22.6429390304732,-27.2428614582389,3.175));
#1352=CARTESIAN_POINT('',(22.6429390304732,-27.2428614582389,1.675));
#1353=CARTESIAN_POINT('',(27.6429390304738,-22.24286145824,3.175));
#1354=CARTESIAN_POINT('Origin',(22.6429390304738,-22.2428614582389,3.175));
#1355=CARTESIAN_POINT('',(27.6429390304738,-22.24286145824,1.675));
#1356=CARTESIAN_POINT('Origin',(27.6429390304726,-27.2428614582412,1.675));
#1357=CARTESIAN_POINT('',(27.6429390304767,-9.74286145824172,3.175));
#1358=CARTESIAN_POINT('',(27.6429390304784,-2.24286145824173,3.175));
#1359=CARTESIAN_POINT('',(27.6429390304767,-9.74286145824172,1.675));
#1360=CARTESIAN_POINT('Origin',(27.6429390304697,-39.7428614582418,3.17499999999999));
#1361=CARTESIAN_POINT('',(42.6429390304767,-9.7428614582452,3.175));
#1362=CARTESIAN_POINT('',(42.6429390304726,-27.2428614582446,3.175));
#1363=CARTESIAN_POINT('Origin',(35.1429390304767,-9.74286145824346,3.175));
#1364=CARTESIAN_POINT('',(10.1429390304722,-27.2428614582374,3.175));
#1365=CARTESIAN_POINT('',(12.6429390304727,-27.2428614582377,3.175));
#1366=CARTESIAN_POINT('',(7.14293903047191,-30.2428614582367,3.175));
#1367=CARTESIAN_POINT('Origin',(10.1429390304719,-30.2428614582374,3.175));
#1368=CARTESIAN_POINT('',(7.14293903046171,-74.242861458237,3.17499999999999));
#1369=CARTESIAN_POINT('',(7.14293903047261,-27.2428614582371,3.175));
#1370=CARTESIAN_POINT('',(10.142939030461,-77.2428614582377,3.17499999999999));
#1371=CARTESIAN_POINT('Origin',(10.1429390304617,-74.2428614582377,3.17499999999999));
#1372=CARTESIAN_POINT('',(45.142939030461,-77.2428614582458,3.17499999999999));
#1373=CARTESIAN_POINT('',(2.6429390304611,-77.242861458236,3.17499999999999));
#1374=CARTESIAN_POINT('Origin',(45.1429390304617,-74.2428614582458,3.17499999999999));
#1375=CARTESIAN_POINT('',(32.6429390304767,-9.7428614582429,3.175));
#1376=CARTESIAN_POINT('Origin',(35.1429390304767,-9.74286145824348,3.175));
#1377=CARTESIAN_POINT('',(35.5429390304715,-32.2428607876913,3.175));
#1378=CARTESIAN_POINT('Origin',(37.6429390304715,-32.2428607876918,3.175));
#1379=CARTESIAN_POINT('',(15.5429390304623,-72.2428621287912,3.17499999999999));
#1380=CARTESIAN_POINT('Origin',(17.6429390304623,-72.2428621287917,3.17499999999999));
#1381=CARTESIAN_POINT('',(15.1429390304714,-32.7428614582389,3.175));
#1382=CARTESIAN_POINT('Origin',(16.6429390304714,-32.7428614582392,3.175));
#1383=CARTESIAN_POINT('',(37.1429390304624,-71.742861458244,3.17499999999999));
#1384=CARTESIAN_POINT('Origin',(38.6429390304624,-71.7428614582443,3.17499999999999));
#1385=CARTESIAN_POINT('Origin',(35.1429390304767,-9.74286145824346,1.675));
#1386=CARTESIAN_POINT('',(42.6429390304767,-9.7428614582452,1.675));
#1387=CARTESIAN_POINT('Origin',(42.6429390304784,-2.2428614582452,1.675));
#1388=CARTESIAN_POINT('Origin',(10.1429390304719,-30.2428614582374,1.675));
#1389=CARTESIAN_POINT('',(10.1429390304722,-27.2428614582374,1.675));
#1390=CARTESIAN_POINT('',(7.14293903047191,-30.2428614582367,1.675));
#1391=CARTESIAN_POINT('Origin',(7.14293903046102,-77.242861458237,1.67499999999999));
#1392=CARTESIAN_POINT('',(7.14293903046171,-74.242861458237,1.67499999999999));
#1393=CARTESIAN_POINT('Origin',(10.1429390304617,-74.2428614582377,1.67499999999999));
#1394=CARTESIAN_POINT('',(10.142939030461,-77.2428614582377,1.67499999999999));
#1395=CARTESIAN_POINT('Origin',(45.1429390304617,-74.2428614582458,1.67499999999999));
#1396=CARTESIAN_POINT('',(45.142939030461,-77.2428614582458,1.67499999999999));
#1397=CARTESIAN_POINT('Origin',(35.1429390304767,-9.74286145824348,1.675));
#1398=CARTESIAN_POINT('',(32.6429390304767,-9.7428614582429,1.675));
#1399=CARTESIAN_POINT('Origin',(37.6429390304715,-32.2428607876918,1.675));
#1400=CARTESIAN_POINT('',(35.5429390304715,-32.2428607876913,1.675));
#1401=CARTESIAN_POINT('Origin',(17.6429390304623,-72.2428621287917,1.67499999999999));
#1402=CARTESIAN_POINT('',(15.5429390304623,-72.2428621287912,1.67499999999999));
#1403=CARTESIAN_POINT('Origin',(16.6429390304714,-32.7428614582392,1.675));
#1404=CARTESIAN_POINT('',(15.1429390304714,-32.7428614582389,1.675));
#1405=CARTESIAN_POINT('Origin',(38.6429390304624,-71.7428614582443,1.67499999999999));
#1406=CARTESIAN_POINT('',(37.1429390304624,-71.742861458244,1.67499999999999));
#1407=CARTESIAN_POINT('Origin',(7.14293903047261,-27.2428614582371,1.675));
#1408=CARTESIAN_POINT('Origin',(48.142939030461,-77.2428614582465,1.67499999999999));
#1409=UNCERTAINTY_MEASURE_WITH_UNIT(LENGTH_MEASURE(0.01),#1413,
'DISTANCE_ACCURACY_VALUE',
'Maximum model space distance between geometric entities at asserted c
onnectivities');
#1410=UNCERTAINTY_MEASURE_WITH_UNIT(LENGTH_MEASURE(0.01),#1413,
'DISTANCE_ACCURACY_VALUE',
'Maximum model space distance between geometric entities at asserted c
onnectivities');
#1411=(
GEOMETRIC_REPRESENTATION_CONTEXT(3)
GLOBAL_UNCERTAINTY_ASSIGNED_CONTEXT((#1409))
GLOBAL_UNIT_ASSIGNED_CONTEXT((#1413,#1415,#1416))
REPRESENTATION_CONTEXT('','3D')
);
#1412=(
GEOMETRIC_REPRESENTATION_CONTEXT(3)
GLOBAL_UNCERTAINTY_ASSIGNED_CONTEXT((#1410))
GLOBAL_UNIT_ASSIGNED_CONTEXT((#1413,#1415,#1416))
REPRESENTATION_CONTEXT('','3D')
);
#1413=(
LENGTH_UNIT()
NAMED_UNIT(*)
SI_UNIT(.MILLI.,.METRE.)
);
#1414=(
LENGTH_UNIT()
NAMED_UNIT(*)
SI_UNIT($,.METRE.)
);
#1415=(
NAMED_UNIT(*)
PLANE_ANGLE_UNIT()
SI_UNIT($,.RADIAN.)
);
#1416=(
NAMED_UNIT(*)
SI_UNIT($,.STERADIAN.)
SOLID_ANGLE_UNIT()
);
#1417=SHAPE_DEFINITION_REPRESENTATION(#1418,#1419);
#1418=PRODUCT_DEFINITION_SHAPE('',$,#1421);
#1419=SHAPE_REPRESENTATION('',(#837),#1411);
#1420=PRODUCT_DEFINITION_CONTEXT('part definition',#1425,'design');
#1421=PRODUCT_DEFINITION('current collector','current collector',#1422,
#1420);
#1422=PRODUCT_DEFINITION_FORMATION('',$,#1427);
#1423=PRODUCT_RELATED_PRODUCT_CATEGORY('current collector',
'current collector',(#1427));
#1424=APPLICATION_PROTOCOL_DEFINITION('international standard',
'automotive_design',2009,#1425);
#1425=APPLICATION_CONTEXT(
'Core Data for Automotive Mechanical Design Process');
#1426=PRODUCT_CONTEXT('part definition',#1425,'mechanical');
#1427=PRODUCT('current collector','current collector',$,(#1426));
#1428=PRESENTATION_STYLE_ASSIGNMENT((#1429));
#1429=SURFACE_STYLE_USAGE(.BOTH.,#1430);
#1430=SURFACE_SIDE_STYLE('',(#1431));
#1431=SURFACE_STYLE_FILL_AREA(#1432);
#1432=FILL_AREA_STYLE('Cuivre - Brut',(#1433));
#1433=FILL_AREA_STYLE_COLOUR('Cuivre - Brut',#1434);
#1434=COLOUR_RGB('Cuivre - Brut',0.,0.,0.);
ENDSEC;
END-ISO-10303-21;
