ISO-10303-21;
HEADER;
/* Generated by software containing ST-Developer
 * from STEP Tools, Inc. (www.steptools.com) 
 */

FILE_DESCRIPTION(
/* description */ (''),
/* implementation_level */ '2;1');

FILE_NAME(
/* name */ 'Fan - PVB120G12H-P01 v4.step',
/* time_stamp */ '2025-12-17T16:18:55-05:00',
/* author */ (''),
/* organization */ (''),
/* preprocessor_version */ 'ST-DEVELOPER v20.1',
/* originating_system */ 'Autodesk Translation Framework v14.21.0.0',
/* authorisation */ '');

FILE_SCHEMA (('AUTOMOTIVE_DESIGN { 1 0 10303 214 3 1 1 }'));
ENDSEC;

DATA;
#10=MECHANICAL_DESIGN_GEOMETRIC_PRESENTATION_REPRESENTATION('',(#13),#1007);
#11=SHAPE_REPRESENTATION_RELATIONSHIP('SRR','None',#1014,#12);
#12=ADVANCED_BREP_SHAPE_REPRESENTATION('',(#14),#1006);
#13=STYLED_ITEM('',(#1024),#14);
#14=MANIFOLD_SOLID_BREP('Corps1',#597);
#15=FACE_BOUND('',#83,.T.);
#16=FACE_BOUND('',#89,.T.);
#17=FACE_BOUND('',#95,.T.);
#18=FACE_BOUND('',#104,.T.);
#19=FACE_BOUND('',#111,.T.);
#20=FACE_BOUND('',#114,.T.);
#21=FACE_BOUND('',#115,.T.);
#22=FACE_BOUND('',#116,.T.);
#23=FACE_BOUND('',#117,.T.);
#24=PLANE('',#617);
#25=PLANE('',#618);
#26=PLANE('',#619);
#27=PLANE('',#624);
#28=PLANE('',#625);
#29=PLANE('',#629);
#30=PLANE('',#633);
#31=PLANE('',#637);
#32=PLANE('',#638);
#33=PLANE('',#647);
#34=PLANE('',#651);
#35=PLANE('',#652);
#36=PLANE('',#653);
#37=PLANE('',#654);
#38=PLANE('',#655);
#39=PLANE('',#659);
#40=PLANE('',#660);
#41=PLANE('',#661);
#42=PLANE('',#662);
#43=PLANE('',#663);
#44=PLANE('',#664);
#45=PLANE('',#665);
#46=FACE_OUTER_BOUND('',#78,.T.);
#47=FACE_OUTER_BOUND('',#79,.T.);
#48=FACE_OUTER_BOUND('',#80,.T.);
#49=FACE_OUTER_BOUND('',#81,.T.);
#50=FACE_OUTER_BOUND('',#82,.T.);
#51=FACE_OUTER_BOUND('',#84,.T.);
#52=FACE_OUTER_BOUND('',#85,.T.);
#53=FACE_OUTER_BOUND('',#86,.T.);
#54=FACE_OUTER_BOUND('',#87,.T.);
#55=FACE_OUTER_BOUND('',#88,.T.);
#56=FACE_OUTER_BOUND('',#90,.T.);
#57=FACE_OUTER_BOUND('',#91,.T.);
#58=FACE_OUTER_BOUND('',#92,.T.);
#59=FACE_OUTER_BOUND('',#93,.T.);
#60=FACE_OUTER_BOUND('',#94,.T.);
#61=FACE_OUTER_BOUND('',#96,.T.);
#62=FACE_OUTER_BOUND('',#97,.T.);
#63=FACE_OUTER_BOUND('',#98,.T.);
#64=FACE_OUTER_BOUND('',#99,.T.);
#65=FACE_OUTER_BOUND('',#100,.T.);
#66=FACE_OUTER_BOUND('',#101,.T.);
#67=FACE_OUTER_BOUND('',#102,.T.);
#68=FACE_OUTER_BOUND('',#103,.T.);
#69=FACE_OUTER_BOUND('',#105,.T.);
#70=FACE_OUTER_BOUND('',#106,.T.);
#71=FACE_OUTER_BOUND('',#107,.T.);
#72=FACE_OUTER_BOUND('',#108,.T.);
#73=FACE_OUTER_BOUND('',#109,.T.);
#74=FACE_OUTER_BOUND('',#110,.T.);
#75=FACE_OUTER_BOUND('',#112,.T.);
#76=FACE_OUTER_BOUND('',#113,.T.);
#77=FACE_OUTER_BOUND('',#118,.T.);
#78=EDGE_LOOP('',(#393,#394,#395,#396));
#79=EDGE_LOOP('',(#397,#398,#399,#400));
#80=EDGE_LOOP('',(#401,#402,#403,#404));
#81=EDGE_LOOP('',(#405,#406,#407,#408));
#82=EDGE_LOOP('',(#409,#410,#411,#412));
#83=EDGE_LOOP('',(#413));
#84=EDGE_LOOP('',(#414,#415,#416,#417));
#85=EDGE_LOOP('',(#418,#419,#420,#421));
#86=EDGE_LOOP('',(#422,#423,#424,#425));
#87=EDGE_LOOP('',(#426,#427,#428,#429));
#88=EDGE_LOOP('',(#430,#431,#432,#433));
#89=EDGE_LOOP('',(#434));
#90=EDGE_LOOP('',(#435,#436,#437,#438));
#91=EDGE_LOOP('',(#439,#440,#441,#442));
#92=EDGE_LOOP('',(#443,#444,#445,#446));
#93=EDGE_LOOP('',(#447,#448,#449,#450));
#94=EDGE_LOOP('',(#451,#452,#453,#454,#455));
#95=EDGE_LOOP('',(#456));
#96=EDGE_LOOP('',(#457,#458,#459,#460,#461,#462,#463,#464,#465,#466));
#97=EDGE_LOOP('',(#467,#468,#469,#470));
#98=EDGE_LOOP('',(#471));
#99=EDGE_LOOP('',(#472,#473,#474,#475));
#100=EDGE_LOOP('',(#476,#477,#478,#479));
#101=EDGE_LOOP('',(#480,#481,#482,#483));
#102=EDGE_LOOP('',(#484,#485,#486,#487));
#103=EDGE_LOOP('',(#488,#489,#490,#491,#492));
#104=EDGE_LOOP('',(#493));
#105=EDGE_LOOP('',(#494,#495,#496,#497,#498));
#106=EDGE_LOOP('',(#499,#500,#501,#502));
#107=EDGE_LOOP('',(#503));
#108=EDGE_LOOP('',(#504,#505,#506,#507,#508,#509));
#109=EDGE_LOOP('',(#510,#511,#512,#513));
#110=EDGE_LOOP('',(#514,#515,#516,#517));
#111=EDGE_LOOP('',(#518,#519,#520,#521));
#112=EDGE_LOOP('',(#522,#523,#524,#525,#526,#527,#528,#529));
#113=EDGE_LOOP('',(#530,#531,#532,#533,#534,#535,#536,#537,#538,#539,#540,
#541,#542,#543,#544,#545));
#114=EDGE_LOOP('',(#546));
#115=EDGE_LOOP('',(#547));
#116=EDGE_LOOP('',(#548));
#117=EDGE_LOOP('',(#549));
#118=EDGE_LOOP('',(#550,#551,#552,#553,#554));
#119=LINE('',#841,#177);
#120=LINE('',#848,#178);
#121=LINE('',#851,#179);
#122=LINE('',#854,#180);
#123=LINE('',#856,#181);
#124=LINE('',#857,#182);
#125=LINE('',#860,#183);
#126=LINE('',#862,#184);
#127=LINE('',#863,#185);
#128=LINE('',#870,#186);
#129=LINE('',#875,#187);
#130=LINE('',#877,#188);
#131=LINE('',#879,#189);
#132=LINE('',#880,#190);
#133=LINE('',#884,#191);
#134=LINE('',#886,#192);
#135=LINE('',#888,#193);
#136=LINE('',#889,#194);
#137=LINE('',#894,#195);
#138=LINE('',#899,#196);
#139=LINE('',#904,#197);
#140=LINE('',#906,#198);
#141=LINE('',#908,#199);
#142=LINE('',#909,#200);
#143=LINE('',#915,#201);
#144=LINE('',#918,#202);
#145=LINE('',#920,#203);
#146=LINE('',#921,#204);
#147=LINE('',#924,#205);
#148=LINE('',#929,#206);
#149=LINE('',#933,#207);
#150=LINE('',#939,#208);
#151=LINE('',#947,#209);
#152=LINE('',#950,#210);
#153=LINE('',#953,#211);
#154=LINE('',#955,#212);
#155=LINE('',#956,#213);
#156=LINE('',#959,#214);
#157=LINE('',#961,#215);
#158=LINE('',#962,#216);
#159=LINE('',#965,#217);
#160=LINE('',#967,#218);
#161=LINE('',#968,#219);
#162=LINE('',#970,#220);
#163=LINE('',#972,#221);
#164=LINE('',#977,#222);
#165=LINE('',#982,#223);
#166=LINE('',#984,#224);
#167=LINE('',#985,#225);
#168=LINE('',#988,#226);
#169=LINE('',#990,#227);
#170=LINE('',#991,#228);
#171=LINE('',#994,#229);
#172=LINE('',#996,#230);
#173=LINE('',#997,#231);
#174=LINE('',#999,#232);
#175=LINE('',#1000,#233);
#176=LINE('',#1001,#234);
#177=VECTOR('',#672,1.95);
#178=VECTOR('',#679,10.);
#179=VECTOR('',#682,10.);
#180=VECTOR('',#685,10.);
#181=VECTOR('',#686,10.);
#182=VECTOR('',#687,10.);
#183=VECTOR('',#690,10.);
#184=VECTOR('',#691,10.);
#185=VECTOR('',#692,10.);
#186=VECTOR('',#701,1.95);
#187=VECTOR('',#706,10.);
#188=VECTOR('',#707,10.);
#189=VECTOR('',#708,10.);
#190=VECTOR('',#709,10.);
#191=VECTOR('',#712,10.);
#192=VECTOR('',#713,10.);
#193=VECTOR('',#714,10.);
#194=VECTOR('',#715,10.);
#195=VECTOR('',#724,10.);
#196=VECTOR('',#729,1.95);
#197=VECTOR('',#734,10.);
#198=VECTOR('',#735,10.);
#199=VECTOR('',#736,10.);
#200=VECTOR('',#737,10.);
#201=VECTOR('',#744,10.);
#202=VECTOR('',#747,10.);
#203=VECTOR('',#748,10.);
#204=VECTOR('',#749,10.);
#205=VECTOR('',#752,10.);
#206=VECTOR('',#759,10.);
#207=VECTOR('',#762,10.);
#208=VECTOR('',#769,30.15);
#209=VECTOR('',#778,10.);
#210=VECTOR('',#781,10.);
#211=VECTOR('',#784,10.);
#212=VECTOR('',#785,10.);
#213=VECTOR('',#786,10.);
#214=VECTOR('',#789,10.);
#215=VECTOR('',#790,10.);
#216=VECTOR('',#791,10.);
#217=VECTOR('',#794,10.);
#218=VECTOR('',#795,10.);
#219=VECTOR('',#796,10.);
#220=VECTOR('',#799,10.);
#221=VECTOR('',#802,10.);
#222=VECTOR('',#807,30.15);
#223=VECTOR('',#814,10.);
#224=VECTOR('',#815,10.);
#225=VECTOR('',#816,10.);
#226=VECTOR('',#819,10.);
#227=VECTOR('',#820,10.);
#228=VECTOR('',#821,10.);
#229=VECTOR('',#824,10.);
#230=VECTOR('',#825,10.);
#231=VECTOR('',#826,10.);
#232=VECTOR('',#829,10.);
#233=VECTOR('',#830,10.);
#234=VECTOR('',#831,10.);
#235=CIRCLE('',#612,1.95);
#236=CIRCLE('',#613,1.95);
#237=CIRCLE('',#615,3.8);
#238=CIRCLE('',#616,3.8);
#239=CIRCLE('',#620,44.);
#240=CIRCLE('',#622,1.95);
#241=CIRCLE('',#623,1.95);
#242=CIRCLE('',#627,3.8);
#243=CIRCLE('',#628,3.8);
#244=CIRCLE('',#631,1.95);
#245=CIRCLE('',#632,1.95);
#246=CIRCLE('',#635,5.12250291788817);
#247=CIRCLE('',#636,5.12250291788817);
#248=CIRCLE('',#639,44.);
#249=CIRCLE('',#641,44.);
#250=CIRCLE('',#642,44.);
#251=CIRCLE('',#643,44.);
#252=CIRCLE('',#645,32.15);
#253=CIRCLE('',#646,32.15);
#254=CIRCLE('',#649,42.);
#255=CIRCLE('',#650,42.);
#256=CIRCLE('',#657,30.15);
#257=CIRCLE('',#658,30.15);
#258=VERTEX_POINT('',#838);
#259=VERTEX_POINT('',#840);
#260=VERTEX_POINT('',#844);
#261=VERTEX_POINT('',#845);
#262=VERTEX_POINT('',#847);
#263=VERTEX_POINT('',#849);
#264=VERTEX_POINT('',#853);
#265=VERTEX_POINT('',#855);
#266=VERTEX_POINT('',#859);
#267=VERTEX_POINT('',#861);
#268=VERTEX_POINT('',#867);
#269=VERTEX_POINT('',#869);
#270=VERTEX_POINT('',#873);
#271=VERTEX_POINT('',#874);
#272=VERTEX_POINT('',#876);
#273=VERTEX_POINT('',#878);
#274=VERTEX_POINT('',#882);
#275=VERTEX_POINT('',#883);
#276=VERTEX_POINT('',#885);
#277=VERTEX_POINT('',#887);
#278=VERTEX_POINT('',#896);
#279=VERTEX_POINT('',#898);
#280=VERTEX_POINT('',#902);
#281=VERTEX_POINT('',#903);
#282=VERTEX_POINT('',#905);
#283=VERTEX_POINT('',#907);
#284=VERTEX_POINT('',#911);
#285=VERTEX_POINT('',#913);
#286=VERTEX_POINT('',#917);
#287=VERTEX_POINT('',#919);
#288=VERTEX_POINT('',#923);
#289=VERTEX_POINT('',#928);
#290=VERTEX_POINT('',#930);
#291=VERTEX_POINT('',#932);
#292=VERTEX_POINT('',#936);
#293=VERTEX_POINT('',#938);
#294=VERTEX_POINT('',#943);
#295=VERTEX_POINT('',#944);
#296=VERTEX_POINT('',#946);
#297=VERTEX_POINT('',#948);
#298=VERTEX_POINT('',#952);
#299=VERTEX_POINT('',#954);
#300=VERTEX_POINT('',#958);
#301=VERTEX_POINT('',#960);
#302=VERTEX_POINT('',#964);
#303=VERTEX_POINT('',#966);
#304=VERTEX_POINT('',#974);
#305=VERTEX_POINT('',#976);
#306=VERTEX_POINT('',#981);
#307=VERTEX_POINT('',#983);
#308=VERTEX_POINT('',#987);
#309=VERTEX_POINT('',#989);
#310=VERTEX_POINT('',#993);
#311=VERTEX_POINT('',#995);
#312=EDGE_CURVE('',#258,#258,#235,.T.);
#313=EDGE_CURVE('',#258,#259,#119,.T.);
#314=EDGE_CURVE('',#259,#259,#236,.T.);
#315=EDGE_CURVE('',#260,#261,#237,.T.);
#316=EDGE_CURVE('',#260,#262,#120,.T.);
#317=EDGE_CURVE('',#263,#262,#238,.T.);
#318=EDGE_CURVE('',#261,#263,#121,.T.);
#319=EDGE_CURVE('',#261,#264,#122,.T.);
#320=EDGE_CURVE('',#265,#263,#123,.T.);
#321=EDGE_CURVE('',#264,#265,#124,.T.);
#322=EDGE_CURVE('',#266,#260,#125,.T.);
#323=EDGE_CURVE('',#267,#266,#126,.T.);
#324=EDGE_CURVE('',#262,#267,#127,.T.);
#325=EDGE_CURVE('',#265,#267,#239,.T.);
#326=EDGE_CURVE('',#268,#268,#240,.T.);
#327=EDGE_CURVE('',#268,#269,#128,.T.);
#328=EDGE_CURVE('',#269,#269,#241,.T.);
#329=EDGE_CURVE('',#270,#271,#129,.T.);
#330=EDGE_CURVE('',#271,#272,#130,.T.);
#331=EDGE_CURVE('',#273,#272,#131,.T.);
#332=EDGE_CURVE('',#270,#273,#132,.T.);
#333=EDGE_CURVE('',#274,#275,#133,.T.);
#334=EDGE_CURVE('',#276,#275,#134,.T.);
#335=EDGE_CURVE('',#277,#276,#135,.T.);
#336=EDGE_CURVE('',#274,#277,#136,.T.);
#337=EDGE_CURVE('',#274,#271,#242,.T.);
#338=EDGE_CURVE('',#272,#277,#243,.T.);
#339=EDGE_CURVE('',#273,#276,#137,.T.);
#340=EDGE_CURVE('',#278,#278,#244,.T.);
#341=EDGE_CURVE('',#278,#279,#138,.T.);
#342=EDGE_CURVE('',#279,#279,#245,.T.);
#343=EDGE_CURVE('',#280,#281,#139,.T.);
#344=EDGE_CURVE('',#282,#280,#140,.T.);
#345=EDGE_CURVE('',#283,#282,#141,.T.);
#346=EDGE_CURVE('',#281,#283,#142,.T.);
#347=EDGE_CURVE('',#281,#284,#246,.T.);
#348=EDGE_CURVE('',#285,#283,#247,.T.);
#349=EDGE_CURVE('',#284,#285,#143,.T.);
#350=EDGE_CURVE('',#284,#286,#144,.T.);
#351=EDGE_CURVE('',#287,#285,#145,.T.);
#352=EDGE_CURVE('',#286,#287,#146,.T.);
#353=EDGE_CURVE('',#288,#282,#147,.T.);
#354=EDGE_CURVE('',#287,#288,#248,.T.);
#355=EDGE_CURVE('',#286,#266,#249,.T.);
#356=EDGE_CURVE('',#289,#288,#148,.T.);
#357=EDGE_CURVE('',#289,#290,#250,.T.);
#358=EDGE_CURVE('',#290,#291,#149,.T.);
#359=EDGE_CURVE('',#264,#291,#251,.T.);
#360=EDGE_CURVE('',#292,#292,#252,.T.);
#361=EDGE_CURVE('',#292,#293,#150,.T.);
#362=EDGE_CURVE('',#293,#293,#253,.T.);
#363=EDGE_CURVE('',#294,#295,#254,.F.);
#364=EDGE_CURVE('',#294,#296,#151,.T.);
#365=EDGE_CURVE('',#296,#297,#255,.F.);
#366=EDGE_CURVE('',#295,#297,#152,.T.);
#367=EDGE_CURVE('',#298,#294,#153,.F.);
#368=EDGE_CURVE('',#298,#299,#154,.F.);
#369=EDGE_CURVE('',#299,#296,#155,.F.);
#370=EDGE_CURVE('',#300,#298,#156,.F.);
#371=EDGE_CURVE('',#301,#300,#157,.T.);
#372=EDGE_CURVE('',#301,#299,#158,.F.);
#373=EDGE_CURVE('',#295,#302,#159,.F.);
#374=EDGE_CURVE('',#297,#303,#160,.F.);
#375=EDGE_CURVE('',#302,#303,#161,.T.);
#376=EDGE_CURVE('',#303,#301,#162,.T.);
#377=EDGE_CURVE('',#300,#302,#163,.T.);
#378=EDGE_CURVE('',#304,#304,#256,.T.);
#379=EDGE_CURVE('',#304,#305,#164,.T.);
#380=EDGE_CURVE('',#305,#305,#257,.T.);
#381=EDGE_CURVE('',#306,#280,#165,.T.);
#382=EDGE_CURVE('',#307,#306,#166,.T.);
#383=EDGE_CURVE('',#307,#289,#167,.T.);
#384=EDGE_CURVE('',#308,#307,#168,.T.);
#385=EDGE_CURVE('',#309,#306,#169,.T.);
#386=EDGE_CURVE('',#308,#309,#170,.T.);
#387=EDGE_CURVE('',#310,#308,#171,.T.);
#388=EDGE_CURVE('',#311,#309,#172,.T.);
#389=EDGE_CURVE('',#310,#311,#173,.T.);
#390=EDGE_CURVE('',#291,#275,#174,.T.);
#391=EDGE_CURVE('',#290,#310,#175,.T.);
#392=EDGE_CURVE('',#270,#311,#176,.T.);
#393=ORIENTED_EDGE('',*,*,#312,.F.);
#394=ORIENTED_EDGE('',*,*,#313,.T.);
#395=ORIENTED_EDGE('',*,*,#314,.F.);
#396=ORIENTED_EDGE('',*,*,#313,.F.);
#397=ORIENTED_EDGE('',*,*,#315,.F.);
#398=ORIENTED_EDGE('',*,*,#316,.T.);
#399=ORIENTED_EDGE('',*,*,#317,.F.);
#400=ORIENTED_EDGE('',*,*,#318,.F.);
#401=ORIENTED_EDGE('',*,*,#319,.F.);
#402=ORIENTED_EDGE('',*,*,#318,.T.);
#403=ORIENTED_EDGE('',*,*,#320,.F.);
#404=ORIENTED_EDGE('',*,*,#321,.F.);
#405=ORIENTED_EDGE('',*,*,#322,.F.);
#406=ORIENTED_EDGE('',*,*,#323,.F.);
#407=ORIENTED_EDGE('',*,*,#324,.F.);
#408=ORIENTED_EDGE('',*,*,#316,.F.);
#409=ORIENTED_EDGE('',*,*,#324,.T.);
#410=ORIENTED_EDGE('',*,*,#325,.F.);
#411=ORIENTED_EDGE('',*,*,#320,.T.);
#412=ORIENTED_EDGE('',*,*,#317,.T.);
#413=ORIENTED_EDGE('',*,*,#312,.T.);
#414=ORIENTED_EDGE('',*,*,#326,.F.);
#415=ORIENTED_EDGE('',*,*,#327,.T.);
#416=ORIENTED_EDGE('',*,*,#328,.F.);
#417=ORIENTED_EDGE('',*,*,#327,.F.);
#418=ORIENTED_EDGE('',*,*,#329,.T.);
#419=ORIENTED_EDGE('',*,*,#330,.T.);
#420=ORIENTED_EDGE('',*,*,#331,.F.);
#421=ORIENTED_EDGE('',*,*,#332,.F.);
#422=ORIENTED_EDGE('',*,*,#333,.T.);
#423=ORIENTED_EDGE('',*,*,#334,.F.);
#424=ORIENTED_EDGE('',*,*,#335,.F.);
#425=ORIENTED_EDGE('',*,*,#336,.F.);
#426=ORIENTED_EDGE('',*,*,#337,.F.);
#427=ORIENTED_EDGE('',*,*,#336,.T.);
#428=ORIENTED_EDGE('',*,*,#338,.F.);
#429=ORIENTED_EDGE('',*,*,#330,.F.);
#430=ORIENTED_EDGE('',*,*,#338,.T.);
#431=ORIENTED_EDGE('',*,*,#335,.T.);
#432=ORIENTED_EDGE('',*,*,#339,.F.);
#433=ORIENTED_EDGE('',*,*,#331,.T.);
#434=ORIENTED_EDGE('',*,*,#326,.T.);
#435=ORIENTED_EDGE('',*,*,#340,.F.);
#436=ORIENTED_EDGE('',*,*,#341,.T.);
#437=ORIENTED_EDGE('',*,*,#342,.F.);
#438=ORIENTED_EDGE('',*,*,#341,.F.);
#439=ORIENTED_EDGE('',*,*,#343,.F.);
#440=ORIENTED_EDGE('',*,*,#344,.F.);
#441=ORIENTED_EDGE('',*,*,#345,.F.);
#442=ORIENTED_EDGE('',*,*,#346,.F.);
#443=ORIENTED_EDGE('',*,*,#347,.F.);
#444=ORIENTED_EDGE('',*,*,#346,.T.);
#445=ORIENTED_EDGE('',*,*,#348,.F.);
#446=ORIENTED_EDGE('',*,*,#349,.F.);
#447=ORIENTED_EDGE('',*,*,#350,.F.);
#448=ORIENTED_EDGE('',*,*,#349,.T.);
#449=ORIENTED_EDGE('',*,*,#351,.F.);
#450=ORIENTED_EDGE('',*,*,#352,.F.);
#451=ORIENTED_EDGE('',*,*,#353,.F.);
#452=ORIENTED_EDGE('',*,*,#354,.F.);
#453=ORIENTED_EDGE('',*,*,#351,.T.);
#454=ORIENTED_EDGE('',*,*,#348,.T.);
#455=ORIENTED_EDGE('',*,*,#345,.T.);
#456=ORIENTED_EDGE('',*,*,#340,.T.);
#457=ORIENTED_EDGE('',*,*,#323,.T.);
#458=ORIENTED_EDGE('',*,*,#355,.F.);
#459=ORIENTED_EDGE('',*,*,#352,.T.);
#460=ORIENTED_EDGE('',*,*,#354,.T.);
#461=ORIENTED_EDGE('',*,*,#356,.F.);
#462=ORIENTED_EDGE('',*,*,#357,.T.);
#463=ORIENTED_EDGE('',*,*,#358,.T.);
#464=ORIENTED_EDGE('',*,*,#359,.F.);
#465=ORIENTED_EDGE('',*,*,#321,.T.);
#466=ORIENTED_EDGE('',*,*,#325,.T.);
#467=ORIENTED_EDGE('',*,*,#360,.F.);
#468=ORIENTED_EDGE('',*,*,#361,.T.);
#469=ORIENTED_EDGE('',*,*,#362,.T.);
#470=ORIENTED_EDGE('',*,*,#361,.F.);
#471=ORIENTED_EDGE('',*,*,#360,.T.);
#472=ORIENTED_EDGE('',*,*,#363,.F.);
#473=ORIENTED_EDGE('',*,*,#364,.T.);
#474=ORIENTED_EDGE('',*,*,#365,.T.);
#475=ORIENTED_EDGE('',*,*,#366,.F.);
#476=ORIENTED_EDGE('',*,*,#367,.F.);
#477=ORIENTED_EDGE('',*,*,#368,.T.);
#478=ORIENTED_EDGE('',*,*,#369,.T.);
#479=ORIENTED_EDGE('',*,*,#364,.F.);
#480=ORIENTED_EDGE('',*,*,#370,.F.);
#481=ORIENTED_EDGE('',*,*,#371,.F.);
#482=ORIENTED_EDGE('',*,*,#372,.T.);
#483=ORIENTED_EDGE('',*,*,#368,.F.);
#484=ORIENTED_EDGE('',*,*,#373,.F.);
#485=ORIENTED_EDGE('',*,*,#366,.T.);
#486=ORIENTED_EDGE('',*,*,#374,.T.);
#487=ORIENTED_EDGE('',*,*,#375,.F.);
#488=ORIENTED_EDGE('',*,*,#374,.F.);
#489=ORIENTED_EDGE('',*,*,#365,.F.);
#490=ORIENTED_EDGE('',*,*,#369,.F.);
#491=ORIENTED_EDGE('',*,*,#372,.F.);
#492=ORIENTED_EDGE('',*,*,#376,.F.);
#493=ORIENTED_EDGE('',*,*,#362,.F.);
#494=ORIENTED_EDGE('',*,*,#373,.T.);
#495=ORIENTED_EDGE('',*,*,#377,.F.);
#496=ORIENTED_EDGE('',*,*,#370,.T.);
#497=ORIENTED_EDGE('',*,*,#367,.T.);
#498=ORIENTED_EDGE('',*,*,#363,.T.);
#499=ORIENTED_EDGE('',*,*,#378,.F.);
#500=ORIENTED_EDGE('',*,*,#379,.T.);
#501=ORIENTED_EDGE('',*,*,#380,.T.);
#502=ORIENTED_EDGE('',*,*,#379,.F.);
#503=ORIENTED_EDGE('',*,*,#380,.F.);
#504=ORIENTED_EDGE('',*,*,#344,.T.);
#505=ORIENTED_EDGE('',*,*,#381,.F.);
#506=ORIENTED_EDGE('',*,*,#382,.F.);
#507=ORIENTED_EDGE('',*,*,#383,.T.);
#508=ORIENTED_EDGE('',*,*,#356,.T.);
#509=ORIENTED_EDGE('',*,*,#353,.T.);
#510=ORIENTED_EDGE('',*,*,#384,.T.);
#511=ORIENTED_EDGE('',*,*,#382,.T.);
#512=ORIENTED_EDGE('',*,*,#385,.F.);
#513=ORIENTED_EDGE('',*,*,#386,.F.);
#514=ORIENTED_EDGE('',*,*,#387,.T.);
#515=ORIENTED_EDGE('',*,*,#386,.T.);
#516=ORIENTED_EDGE('',*,*,#388,.F.);
#517=ORIENTED_EDGE('',*,*,#389,.F.);
#518=ORIENTED_EDGE('',*,*,#375,.T.);
#519=ORIENTED_EDGE('',*,*,#376,.T.);
#520=ORIENTED_EDGE('',*,*,#371,.T.);
#521=ORIENTED_EDGE('',*,*,#377,.T.);
#522=ORIENTED_EDGE('',*,*,#334,.T.);
#523=ORIENTED_EDGE('',*,*,#390,.F.);
#524=ORIENTED_EDGE('',*,*,#358,.F.);
#525=ORIENTED_EDGE('',*,*,#391,.T.);
#526=ORIENTED_EDGE('',*,*,#389,.T.);
#527=ORIENTED_EDGE('',*,*,#392,.F.);
#528=ORIENTED_EDGE('',*,*,#332,.T.);
#529=ORIENTED_EDGE('',*,*,#339,.T.);
#530=ORIENTED_EDGE('',*,*,#390,.T.);
#531=ORIENTED_EDGE('',*,*,#333,.F.);
#532=ORIENTED_EDGE('',*,*,#337,.T.);
#533=ORIENTED_EDGE('',*,*,#329,.F.);
#534=ORIENTED_EDGE('',*,*,#392,.T.);
#535=ORIENTED_EDGE('',*,*,#388,.T.);
#536=ORIENTED_EDGE('',*,*,#385,.T.);
#537=ORIENTED_EDGE('',*,*,#381,.T.);
#538=ORIENTED_EDGE('',*,*,#343,.T.);
#539=ORIENTED_EDGE('',*,*,#347,.T.);
#540=ORIENTED_EDGE('',*,*,#350,.T.);
#541=ORIENTED_EDGE('',*,*,#355,.T.);
#542=ORIENTED_EDGE('',*,*,#322,.T.);
#543=ORIENTED_EDGE('',*,*,#315,.T.);
#544=ORIENTED_EDGE('',*,*,#319,.T.);
#545=ORIENTED_EDGE('',*,*,#359,.T.);
#546=ORIENTED_EDGE('',*,*,#314,.T.);
#547=ORIENTED_EDGE('',*,*,#328,.T.);
#548=ORIENTED_EDGE('',*,*,#342,.T.);
#549=ORIENTED_EDGE('',*,*,#378,.T.);
#550=ORIENTED_EDGE('',*,*,#391,.F.);
#551=ORIENTED_EDGE('',*,*,#357,.F.);
#552=ORIENTED_EDGE('',*,*,#383,.F.);
#553=ORIENTED_EDGE('',*,*,#384,.F.);
#554=ORIENTED_EDGE('',*,*,#387,.F.);
#555=CYLINDRICAL_SURFACE('',#611,1.95);
#556=CYLINDRICAL_SURFACE('',#614,3.8);
#557=CYLINDRICAL_SURFACE('',#621,1.95);
#558=CYLINDRICAL_SURFACE('',#626,3.8);
#559=CYLINDRICAL_SURFACE('',#630,1.95);
#560=CYLINDRICAL_SURFACE('',#634,5.12250291788817);
#561=CYLINDRICAL_SURFACE('',#640,44.);
#562=CYLINDRICAL_SURFACE('',#644,32.15);
#563=CYLINDRICAL_SURFACE('',#648,42.);
#564=CYLINDRICAL_SURFACE('',#656,30.15);
#565=ADVANCED_FACE('',(#46),#555,.F.);
#566=ADVANCED_FACE('',(#47),#556,.T.);
#567=ADVANCED_FACE('',(#48),#24,.T.);
#568=ADVANCED_FACE('',(#49),#25,.T.);
#569=ADVANCED_FACE('',(#50,#15),#26,.F.);
#570=ADVANCED_FACE('',(#51),#557,.F.);
#571=ADVANCED_FACE('',(#52),#27,.T.);
#572=ADVANCED_FACE('',(#53),#28,.T.);
#573=ADVANCED_FACE('',(#54),#558,.T.);
#574=ADVANCED_FACE('',(#55,#16),#29,.F.);
#575=ADVANCED_FACE('',(#56),#559,.F.);
#576=ADVANCED_FACE('',(#57),#30,.T.);
#577=ADVANCED_FACE('',(#58),#560,.T.);
#578=ADVANCED_FACE('',(#59),#31,.T.);
#579=ADVANCED_FACE('',(#60,#17),#32,.F.);
#580=ADVANCED_FACE('',(#61),#561,.T.);
#581=ADVANCED_FACE('',(#62),#562,.T.);
#582=ADVANCED_FACE('',(#63),#33,.F.);
#583=ADVANCED_FACE('',(#64),#563,.F.);
#584=ADVANCED_FACE('',(#65),#34,.F.);
#585=ADVANCED_FACE('',(#66),#35,.F.);
#586=ADVANCED_FACE('',(#67),#36,.F.);
#587=ADVANCED_FACE('',(#68,#18),#37,.F.);
#588=ADVANCED_FACE('',(#69),#38,.T.);
#589=ADVANCED_FACE('',(#70),#564,.F.);
#590=ADVANCED_FACE('',(#71),#39,.T.);
#591=ADVANCED_FACE('',(#72),#40,.T.);
#592=ADVANCED_FACE('',(#73),#41,.T.);
#593=ADVANCED_FACE('',(#74,#19),#42,.T.);
#594=ADVANCED_FACE('',(#75),#43,.T.);
#595=ADVANCED_FACE('',(#76,#20,#21,#22,#23),#44,.T.);
#596=ADVANCED_FACE('',(#77),#45,.F.);
#597=CLOSED_SHELL('',(#565,#566,#567,#568,#569,#570,#571,#572,#573,#574,
#575,#576,#577,#578,#579,#580,#581,#582,#583,#584,#585,#586,#587,#588,#589,
#590,#591,#592,#593,#594,#595,#596));
#598=DERIVED_UNIT_ELEMENT(#600,1.);
#599=DERIVED_UNIT_ELEMENT(#1009,-3.);
#600=(
MASS_UNIT()
NAMED_UNIT(*)
SI_UNIT(.KILO.,.GRAM.)
);
#601=DERIVED_UNIT((#598,#599));
#602=MEASURE_REPRESENTATION_ITEM('density measure',
POSITIVE_RATIO_MEASURE(7850.),#601);
#603=PROPERTY_DEFINITION_REPRESENTATION(#608,#605);
#604=PROPERTY_DEFINITION_REPRESENTATION(#609,#606);
#605=REPRESENTATION('material name',(#607),#1006);
#606=REPRESENTATION('density',(#602),#1006);
#607=DESCRIPTIVE_REPRESENTATION_ITEM('Acier','Acier');
#608=PROPERTY_DEFINITION('material property','material name',#1016);
#609=PROPERTY_DEFINITION('material property','density of part',#1016);
#610=AXIS2_PLACEMENT_3D('',#836,#666,#667);
#611=AXIS2_PLACEMENT_3D('',#837,#668,#669);
#612=AXIS2_PLACEMENT_3D('',#839,#670,#671);
#613=AXIS2_PLACEMENT_3D('',#842,#673,#674);
#614=AXIS2_PLACEMENT_3D('',#843,#675,#676);
#615=AXIS2_PLACEMENT_3D('',#846,#677,#678);
#616=AXIS2_PLACEMENT_3D('',#850,#680,#681);
#617=AXIS2_PLACEMENT_3D('',#852,#683,#684);
#618=AXIS2_PLACEMENT_3D('',#858,#688,#689);
#619=AXIS2_PLACEMENT_3D('',#864,#693,#694);
#620=AXIS2_PLACEMENT_3D('',#865,#695,#696);
#621=AXIS2_PLACEMENT_3D('',#866,#697,#698);
#622=AXIS2_PLACEMENT_3D('',#868,#699,#700);
#623=AXIS2_PLACEMENT_3D('',#871,#702,#703);
#624=AXIS2_PLACEMENT_3D('',#872,#704,#705);
#625=AXIS2_PLACEMENT_3D('',#881,#710,#711);
#626=AXIS2_PLACEMENT_3D('',#890,#716,#717);
#627=AXIS2_PLACEMENT_3D('',#891,#718,#719);
#628=AXIS2_PLACEMENT_3D('',#892,#720,#721);
#629=AXIS2_PLACEMENT_3D('',#893,#722,#723);
#630=AXIS2_PLACEMENT_3D('',#895,#725,#726);
#631=AXIS2_PLACEMENT_3D('',#897,#727,#728);
#632=AXIS2_PLACEMENT_3D('',#900,#730,#731);
#633=AXIS2_PLACEMENT_3D('',#901,#732,#733);
#634=AXIS2_PLACEMENT_3D('',#910,#738,#739);
#635=AXIS2_PLACEMENT_3D('',#912,#740,#741);
#636=AXIS2_PLACEMENT_3D('',#914,#742,#743);
#637=AXIS2_PLACEMENT_3D('',#916,#745,#746);
#638=AXIS2_PLACEMENT_3D('',#922,#750,#751);
#639=AXIS2_PLACEMENT_3D('',#925,#753,#754);
#640=AXIS2_PLACEMENT_3D('',#926,#755,#756);
#641=AXIS2_PLACEMENT_3D('',#927,#757,#758);
#642=AXIS2_PLACEMENT_3D('',#931,#760,#761);
#643=AXIS2_PLACEMENT_3D('',#934,#763,#764);
#644=AXIS2_PLACEMENT_3D('',#935,#765,#766);
#645=AXIS2_PLACEMENT_3D('',#937,#767,#768);
#646=AXIS2_PLACEMENT_3D('',#940,#770,#771);
#647=AXIS2_PLACEMENT_3D('',#941,#772,#773);
#648=AXIS2_PLACEMENT_3D('',#942,#774,#775);
#649=AXIS2_PLACEMENT_3D('',#945,#776,#777);
#650=AXIS2_PLACEMENT_3D('',#949,#779,#780);
#651=AXIS2_PLACEMENT_3D('',#951,#782,#783);
#652=AXIS2_PLACEMENT_3D('',#957,#787,#788);
#653=AXIS2_PLACEMENT_3D('',#963,#792,#793);
#654=AXIS2_PLACEMENT_3D('',#969,#797,#798);
#655=AXIS2_PLACEMENT_3D('',#971,#800,#801);
#656=AXIS2_PLACEMENT_3D('',#973,#803,#804);
#657=AXIS2_PLACEMENT_3D('',#975,#805,#806);
#658=AXIS2_PLACEMENT_3D('',#978,#808,#809);
#659=AXIS2_PLACEMENT_3D('',#979,#810,#811);
#660=AXIS2_PLACEMENT_3D('',#980,#812,#813);
#661=AXIS2_PLACEMENT_3D('',#986,#817,#818);
#662=AXIS2_PLACEMENT_3D('',#992,#822,#823);
#663=AXIS2_PLACEMENT_3D('',#998,#827,#828);
#664=AXIS2_PLACEMENT_3D('',#1002,#832,#833);
#665=AXIS2_PLACEMENT_3D('',#1003,#834,#835);
#666=DIRECTION('axis',(0.,0.,1.));
#667=DIRECTION('refdir',(1.,0.,0.));
#668=DIRECTION('center_axis',(0.,0.,-1.));
#669=DIRECTION('ref_axis',(1.,0.,0.));
#670=DIRECTION('center_axis',(0.,0.,1.));
#671=DIRECTION('ref_axis',(1.,0.,0.));
#672=DIRECTION('',(0.,0.,1.));
#673=DIRECTION('center_axis',(0.,0.,-1.));
#674=DIRECTION('ref_axis',(1.,0.,0.));
#675=DIRECTION('center_axis',(0.,0.,-1.));
#676=DIRECTION('ref_axis',(0.637306615750587,-0.770610327935289,0.));
#677=DIRECTION('center_axis',(0.,0.,1.));
#678=DIRECTION('ref_axis',(0.637306615750587,-0.770610327935289,0.));
#679=DIRECTION('',(0.,0.,-1.));
#680=DIRECTION('center_axis',(0.,0.,-1.));
#681=DIRECTION('ref_axis',(0.637306615750587,-0.770610327935289,0.));
#682=DIRECTION('',(0.,0.,-1.));
#683=DIRECTION('center_axis',(-0.637306615750598,0.77061032793528,0.));
#684=DIRECTION('ref_axis',(0.77061032793528,0.637306615750598,0.));
#685=DIRECTION('',(-0.77061032793528,-0.637306615750598,0.));
#686=DIRECTION('',(0.77061032793528,0.637306615750598,0.));
#687=DIRECTION('',(0.,0.,-1.));
#688=DIRECTION('center_axis',(0.637306615750601,-0.770610327935278,0.));
#689=DIRECTION('ref_axis',(-0.770610327935278,-0.637306615750601,0.));
#690=DIRECTION('',(0.770610327935278,0.637306615750601,0.));
#691=DIRECTION('',(0.,0.,1.));
#692=DIRECTION('',(-0.770610327935278,-0.637306615750601,0.));
#693=DIRECTION('center_axis',(0.,0.,1.));
#694=DIRECTION('ref_axis',(1.,0.,0.));
#695=DIRECTION('center_axis',(0.,0.,-1.));
#696=DIRECTION('ref_axis',(0.768564153105007,-0.639772727272727,0.));
#697=DIRECTION('center_axis',(0.,0.,-1.));
#698=DIRECTION('ref_axis',(1.,0.,0.));
#699=DIRECTION('center_axis',(0.,0.,1.));
#700=DIRECTION('ref_axis',(1.,0.,0.));
#701=DIRECTION('',(0.,0.,1.));
#702=DIRECTION('center_axis',(0.,0.,-1.));
#703=DIRECTION('ref_axis',(1.,0.,0.));
#704=DIRECTION('center_axis',(2.03352609133294E-15,-1.,0.));
#705=DIRECTION('ref_axis',(-1.,-2.03352609133294E-15,0.));
#706=DIRECTION('',(-1.,-2.03352609133294E-15,0.));
#707=DIRECTION('',(0.,0.,-1.));
#708=DIRECTION('',(-1.,-2.03352609133294E-15,0.));
#709=DIRECTION('',(0.,0.,-1.));
#710=DIRECTION('center_axis',(0.,1.,0.));
#711=DIRECTION('ref_axis',(1.,0.,0.));
#712=DIRECTION('',(1.,0.,0.));
#713=DIRECTION('',(0.,0.,1.));
#714=DIRECTION('',(1.,0.,0.));
#715=DIRECTION('',(0.,0.,-1.));
#716=DIRECTION('center_axis',(0.,0.,-1.));
#717=DIRECTION('ref_axis',(-1.46081976924363E-16,1.,0.));
#718=DIRECTION('center_axis',(0.,0.,1.));
#719=DIRECTION('ref_axis',(-1.46081976924363E-16,1.,0.));
#720=DIRECTION('center_axis',(0.,0.,-1.));
#721=DIRECTION('ref_axis',(-1.46081976924363E-16,1.,0.));
#722=DIRECTION('center_axis',(0.,0.,1.));
#723=DIRECTION('ref_axis',(1.,0.,0.));
#724=DIRECTION('',(1.12532168383114E-16,1.,0.));
#725=DIRECTION('center_axis',(0.,0.,-1.));
#726=DIRECTION('ref_axis',(1.,0.,0.));
#727=DIRECTION('center_axis',(0.,0.,1.));
#728=DIRECTION('ref_axis',(1.,0.,0.));
#729=DIRECTION('',(0.,0.,1.));
#730=DIRECTION('center_axis',(0.,0.,-1.));
#731=DIRECTION('ref_axis',(1.,0.,0.));
#732=DIRECTION('center_axis',(0.715495325269018,-0.698617520191258,0.));
#733=DIRECTION('ref_axis',(-0.698617520191258,-0.715495325269018,0.));
#734=DIRECTION('',(0.698617520191258,0.715495325269018,0.));
#735=DIRECTION('',(0.,0.,1.));
#736=DIRECTION('',(-0.698617520191258,-0.715495325269018,0.));
#737=DIRECTION('',(0.,0.,-1.));
#738=DIRECTION('center_axis',(0.,0.,-1.));
#739=DIRECTION('ref_axis',(1.,0.,0.));
#740=DIRECTION('center_axis',(0.,0.,1.));
#741=DIRECTION('ref_axis',(1.,0.,0.));
#742=DIRECTION('center_axis',(0.,0.,-1.));
#743=DIRECTION('ref_axis',(1.,0.,0.));
#744=DIRECTION('',(0.,0.,-1.));
#745=DIRECTION('center_axis',(0.69861752019126,0.715495325269015,0.));
#746=DIRECTION('ref_axis',(0.715495325269015,-0.69861752019126,0.));
#747=DIRECTION('',(-0.715495325269015,0.69861752019126,0.));
#748=DIRECTION('',(0.715495325269015,-0.69861752019126,0.));
#749=DIRECTION('',(0.,0.,-1.));
#750=DIRECTION('center_axis',(0.,0.,1.));
#751=DIRECTION('ref_axis',(1.,0.,0.));
#752=DIRECTION('',(0.715495325269015,-0.69861752019126,0.));
#753=DIRECTION('center_axis',(0.,0.,-1.));
#754=DIRECTION('ref_axis',(0.768564153105007,-0.639772727272727,0.));
#755=DIRECTION('center_axis',(0.,0.,1.));
#756=DIRECTION('ref_axis',(0.34017337263151,0.940362736688616,0.));
#757=DIRECTION('center_axis',(0.,0.,1.));
#758=DIRECTION('ref_axis',(0.768564153105007,-0.639772727272727,0.));
#759=DIRECTION('',(0.,0.,1.));
#760=DIRECTION('center_axis',(0.,0.,1.));
#761=DIRECTION('ref_axis',(0.768564153105007,-0.639772727272727,0.));
#762=DIRECTION('',(0.,0.,1.));
#763=DIRECTION('center_axis',(0.,0.,1.));
#764=DIRECTION('ref_axis',(0.768564153105007,-0.639772727272727,0.));
#765=DIRECTION('center_axis',(0.,0.,-1.));
#766=DIRECTION('ref_axis',(1.,0.,0.));
#767=DIRECTION('center_axis',(0.,0.,-1.));
#768=DIRECTION('ref_axis',(1.,0.,0.));
#769=DIRECTION('',(0.,0.,1.));
#770=DIRECTION('center_axis',(0.,0.,-1.));
#771=DIRECTION('ref_axis',(1.,0.,0.));
#772=DIRECTION('center_axis',(0.,0.,1.));
#773=DIRECTION('ref_axis',(1.,0.,0.));
#774=DIRECTION('center_axis',(0.,0.,1.));
#775=DIRECTION('ref_axis',(0.360742053922434,0.93266562632694,0.));
#776=DIRECTION('center_axis',(0.,0.,-1.));
#777=DIRECTION('ref_axis',(0.768564153105007,-0.639772727272727,0.));
#778=DIRECTION('',(0.,0.,1.));
#779=DIRECTION('center_axis',(0.,0.,-1.));
#780=DIRECTION('ref_axis',(0.768564153105007,-0.639772727272727,0.));
#781=DIRECTION('',(0.,0.,1.));
#782=DIRECTION('center_axis',(0.69861752019126,0.715495325269015,0.));
#783=DIRECTION('ref_axis',(-0.715495325269015,0.69861752019126,0.));
#784=DIRECTION('',(0.715495325269015,-0.69861752019126,0.));
#785=DIRECTION('',(0.,0.,-1.));
#786=DIRECTION('',(0.715495325269015,-0.69861752019126,0.));
#787=DIRECTION('center_axis',(1.,0.,0.));
#788=DIRECTION('ref_axis',(0.,1.,0.));
#789=DIRECTION('',(0.,-1.,0.));
#790=DIRECTION('',(0.,0.,-1.));
#791=DIRECTION('',(0.,-1.,0.));
#792=DIRECTION('center_axis',(-1.,1.12532168383114E-16,0.));
#793=DIRECTION('ref_axis',(-1.12532168383114E-16,-1.,0.));
#794=DIRECTION('',(1.12532168383114E-16,1.,0.));
#795=DIRECTION('',(1.12532168383114E-16,1.,0.));
#796=DIRECTION('',(0.,0.,1.));
#797=DIRECTION('center_axis',(0.,0.,1.));
#798=DIRECTION('ref_axis',(1.,0.,0.));
#799=DIRECTION('',(1.,-3.13477915668319E-33,0.));
#800=DIRECTION('center_axis',(0.,0.,1.));
#801=DIRECTION('ref_axis',(1.,0.,0.));
#802=DIRECTION('',(-1.,3.13477915668319E-33,0.));
#803=DIRECTION('center_axis',(0.,0.,-1.));
#804=DIRECTION('ref_axis',(1.,0.,0.));
#805=DIRECTION('center_axis',(0.,0.,-1.));
#806=DIRECTION('ref_axis',(1.,0.,0.));
#807=DIRECTION('',(0.,0.,-1.));
#808=DIRECTION('center_axis',(0.,0.,-1.));
#809=DIRECTION('ref_axis',(1.,0.,0.));
#810=DIRECTION('center_axis',(0.,0.,1.));
#811=DIRECTION('ref_axis',(1.,0.,0.));
#812=DIRECTION('center_axis',(0.69861752019126,0.715495325269015,0.));
#813=DIRECTION('ref_axis',(-0.715495325269015,0.69861752019126,0.));
#814=DIRECTION('',(-0.715495325269015,0.69861752019126,0.));
#815=DIRECTION('',(0.,0.,1.));
#816=DIRECTION('',(-0.715495325269015,0.69861752019126,0.));
#817=DIRECTION('center_axis',(1.,0.,0.));
#818=DIRECTION('ref_axis',(0.,1.,0.));
#819=DIRECTION('',(0.,1.,0.));
#820=DIRECTION('',(0.,1.,0.));
#821=DIRECTION('',(0.,0.,1.));
#822=DIRECTION('center_axis',(-3.13477915668319E-33,-1.,0.));
#823=DIRECTION('ref_axis',(1.,-3.13477915668319E-33,0.));
#824=DIRECTION('',(1.,-3.13477915668319E-33,0.));
#825=DIRECTION('',(1.,-3.13477915668319E-33,0.));
#826=DIRECTION('',(0.,0.,1.));
#827=DIRECTION('center_axis',(-1.,1.12532168383114E-16,0.));
#828=DIRECTION('ref_axis',(-1.12532168383114E-16,-1.,0.));
#829=DIRECTION('',(-1.12532168383114E-16,-1.,0.));
#830=DIRECTION('',(-1.12532168383114E-16,-1.,0.));
#831=DIRECTION('',(-1.12532168383114E-16,-1.,0.));
#832=DIRECTION('center_axis',(0.,0.,1.));
#833=DIRECTION('ref_axis',(1.,0.,0.));
#834=DIRECTION('center_axis',(0.,0.,1.));
#835=DIRECTION('ref_axis',(1.,0.,0.));
#836=CARTESIAN_POINT('',(0.,0.,0.));
#837=CARTESIAN_POINT('Origin',(81.8543080825559,116.056096091798,23.06));
#838=CARTESIAN_POINT('',(79.9043080825559,116.056096091798,20.26));
#839=CARTESIAN_POINT('Origin',(81.8543080825559,116.056096091798,20.26));
#840=CARTESIAN_POINT('',(79.9043080825559,116.056096091798,23.06));
#841=CARTESIAN_POINT('',(79.9043080825559,116.056096091798,23.06));
#842=CARTESIAN_POINT('Origin',(81.8543080825559,116.056096091798,23.06));
#843=CARTESIAN_POINT('Origin',(81.8543080825559,116.056096091798,23.06));
#844=CARTESIAN_POINT('',(84.2760732224082,113.127776845644,23.06));
#845=CARTESIAN_POINT('',(79.4325429427037,118.984415337952,23.06));
#846=CARTESIAN_POINT('Origin',(81.8543080825559,116.056096091798,23.06));
#847=CARTESIAN_POINT('',(84.2760732224082,113.127776845644,20.26));
#848=CARTESIAN_POINT('',(84.2760732224082,113.127776845644,23.06));
#849=CARTESIAN_POINT('',(79.4325429427037,118.984415337952,20.26));
#850=CARTESIAN_POINT('Origin',(81.8543080825559,116.056096091798,20.26));
#851=CARTESIAN_POINT('',(79.4325429427037,118.984415337952,23.06));
#852=CARTESIAN_POINT('Origin',(75.3584024688551,115.615038386519,23.06));
#853=CARTESIAN_POINT('',(75.3584024688551,115.615038386519,23.06));
#854=CARTESIAN_POINT('',(79.4325429427037,118.984415337952,23.06));
#855=CARTESIAN_POINT('',(75.3584024688551,115.615038386519,20.26));
#856=CARTESIAN_POINT('',(79.4325429427037,118.984415337952,20.26));
#857=CARTESIAN_POINT('',(75.3584024688551,115.615038386519,0.));
#858=CARTESIAN_POINT('Origin',(84.2760732224082,113.127776845644,23.06));
#859=CARTESIAN_POINT('',(80.2019327485596,109.758399894211,23.06));
#860=CARTESIAN_POINT('',(80.2019327485595,109.758399894211,23.06));
#861=CARTESIAN_POINT('',(80.2019327485596,109.758399894211,20.26));
#862=CARTESIAN_POINT('',(80.2019327485595,109.758399894211,0.));
#863=CARTESIAN_POINT('',(80.2019327485595,109.758399894211,20.26));
#864=CARTESIAN_POINT('Origin',(80.5063552757055,114.807247993004,20.26));
#865=CARTESIAN_POINT('Origin',(44.,84.75,20.26));
#866=CARTESIAN_POINT('Origin',(-4.36767653725033,76.1716458859608,23.06));
#867=CARTESIAN_POINT('',(-6.31767653725033,76.1716458859608,20.26));
#868=CARTESIAN_POINT('Origin',(-4.36767653725033,76.1716458859608,20.26));
#869=CARTESIAN_POINT('',(-6.31767653725033,76.1716458859608,23.06));
#870=CARTESIAN_POINT('',(-6.31767653725033,76.1716458859608,23.06));
#871=CARTESIAN_POINT('Origin',(-4.36767653725033,76.1716458859608,23.06));
#872=CARTESIAN_POINT('Origin',(0.,72.3716458859608,23.06));
#873=CARTESIAN_POINT('',(0.,72.3716458859608,23.06));
#874=CARTESIAN_POINT('',(-4.36767653725033,72.3716458859608,23.06));
#875=CARTESIAN_POINT('',(0.,72.3716458859608,23.06));
#876=CARTESIAN_POINT('',(-4.36767653725033,72.3716458859608,20.26));
#877=CARTESIAN_POINT('',(-4.36767653725033,72.3716458859608,23.06));
#878=CARTESIAN_POINT('',(0.,72.3716458859608,20.26));
#879=CARTESIAN_POINT('',(0.,72.3716458859608,20.26));
#880=CARTESIAN_POINT('',(8.14413824100201E-15,72.3716458859608,11.53));
#881=CARTESIAN_POINT('Origin',(-4.36767653725033,79.9716458859608,23.06));
#882=CARTESIAN_POINT('',(-4.36767653725033,79.9716458859608,23.06));
#883=CARTESIAN_POINT('',(0.,79.9716458859608,23.06));
#884=CARTESIAN_POINT('',(-4.36767653725033,79.9716458859608,23.06));
#885=CARTESIAN_POINT('',(0.,79.9716458859608,20.26));
#886=CARTESIAN_POINT('',(8.88178419700125E-15,79.9716458859608,11.53));
#887=CARTESIAN_POINT('',(-4.36767653725033,79.9716458859608,20.26));
#888=CARTESIAN_POINT('',(-4.36767653725033,79.9716458859608,20.26));
#889=CARTESIAN_POINT('',(-4.36767653725033,79.9716458859608,23.06));
#890=CARTESIAN_POINT('Origin',(-4.36767653725033,76.1716458859608,23.06));
#891=CARTESIAN_POINT('Origin',(-4.36767653725033,76.1716458859608,23.06));
#892=CARTESIAN_POINT('Origin',(-4.36767653725033,76.1716458859608,20.26));
#893=CARTESIAN_POINT('Origin',(-4.08383826862516,76.1716458859608,20.26));
#894=CARTESIAN_POINT('',(8.88178419700125E-15,80.4608229429804,20.26));
#895=CARTESIAN_POINT('Origin',(84.6158258038989,57.1207584761132,23.06));
#896=CARTESIAN_POINT('',(82.6658258038989,57.1207584761132,20.26));
#897=CARTESIAN_POINT('Origin',(84.6158258038989,57.1207584761132,20.26));
#898=CARTESIAN_POINT('',(82.6658258038989,57.1207584761132,23.06));
#899=CARTESIAN_POINT('',(82.6658258038989,57.1207584761132,23.06));
#900=CARTESIAN_POINT('Origin',(84.6158258038989,57.1207584761132,23.06));
#901=CARTESIAN_POINT('Origin',(88.2809525664817,53.5420880584899,23.06));
#902=CARTESIAN_POINT('',(84.7022824096573,49.8769612990198,23.06));
#903=CARTESIAN_POINT('',(88.2809525664817,53.5420880584899,23.06));
#904=CARTESIAN_POINT('',(84.7022824096573,49.8769612990198,23.06));
#905=CARTESIAN_POINT('',(84.7022824096573,49.8769612990198,20.26));
#906=CARTESIAN_POINT('',(84.7022824096573,49.8769612990198,11.53));
#907=CARTESIAN_POINT('',(88.2809525664817,53.5420880584899,20.26));
#908=CARTESIAN_POINT('',(84.7022824096573,49.8769612990198,20.26));
#909=CARTESIAN_POINT('',(88.2809525664817,53.5420880584899,23.06));
#910=CARTESIAN_POINT('Origin',(84.6158258038989,57.1207584761132,23.06));
#911=CARTESIAN_POINT('',(88.1944960538495,60.7858854024135,23.06));
#912=CARTESIAN_POINT('Origin',(84.6158258038989,57.1207584761132,23.06));
#913=CARTESIAN_POINT('',(88.1944960538495,60.7858854024135,20.26));
#914=CARTESIAN_POINT('Origin',(84.6158258038989,57.1207584761132,20.26));
#915=CARTESIAN_POINT('',(88.1944960538495,60.7858854024135,23.06));
#916=CARTESIAN_POINT('Origin',(83.5012988199817,65.3683748995468,23.06));
#917=CARTESIAN_POINT('',(83.5012988199817,65.3683748995468,23.06));
#918=CARTESIAN_POINT('',(91.8596229809923,57.2072150818716,23.06));
#919=CARTESIAN_POINT('',(83.5012988199817,65.3683748995468,20.26));
#920=CARTESIAN_POINT('',(91.8596229809923,57.2072150818716,20.26));
#921=CARTESIAN_POINT('',(83.5012988199817,65.3683748995468,0.));
#922=CARTESIAN_POINT('Origin',(83.7775757292037,57.6226680992833,20.26));
#923=CARTESIAN_POINT('',(77.8168227366203,56.6,20.26));
#924=CARTESIAN_POINT('',(89.3285719241987,45.3598012363449,20.26));
#925=CARTESIAN_POINT('Origin',(44.,84.75,20.26));
#926=CARTESIAN_POINT('Origin',(44.,84.75,0.));
#927=CARTESIAN_POINT('Origin',(44.,84.75,23.06));
#928=CARTESIAN_POINT('',(77.8168227366204,56.6,0.));
#929=CARTESIAN_POINT('',(77.8168227366204,56.6,0.));
#930=CARTESIAN_POINT('',(9.53710127046888E-15,84.75,0.));
#931=CARTESIAN_POINT('Origin',(44.,84.75,0.));
#932=CARTESIAN_POINT('',(9.53710127046888E-15,84.75,23.06));
#933=CARTESIAN_POINT('',(9.53710127046888E-15,84.75,0.));
#934=CARTESIAN_POINT('Origin',(44.,84.75,23.06));
#935=CARTESIAN_POINT('Origin',(50.69,84.,23.06));
#936=CARTESIAN_POINT('',(18.54,84.,18.06));
#937=CARTESIAN_POINT('Origin',(50.69,84.,18.06));
#938=CARTESIAN_POINT('',(18.54,84.,21.06));
#939=CARTESIAN_POINT('',(18.54,84.,23.06));
#940=CARTESIAN_POINT('Origin',(50.69,84.,21.06));
#941=CARTESIAN_POINT('Origin',(50.69,84.,18.06));
#942=CARTESIAN_POINT('Origin',(44.,84.75,0.));
#943=CARTESIAN_POINT('',(75.0686743246732,56.4880560522211,2.));
#944=CARTESIAN_POINT('',(2.00000000000001,84.75,2.));
#945=CARTESIAN_POINT('Origin',(44.,84.75,2.));
#946=CARTESIAN_POINT('',(75.0686743246732,56.4880560522211,21.06));
#947=CARTESIAN_POINT('',(75.0686743246732,56.4880560522211,0.));
#948=CARTESIAN_POINT('',(2.00000000000001,84.75,21.06));
#949=CARTESIAN_POINT('Origin',(44.,84.75,21.06));
#950=CARTESIAN_POINT('',(2.00000000000001,84.75,0.));
#951=CARTESIAN_POINT('Origin',(96.9027649596175,35.169009349462,0.));
#952=CARTESIAN_POINT('',(96.3,35.7575556983676,2.));
#953=CARTESIAN_POINT('',(77.3802257095145,54.2310318072824,2.));
#954=CARTESIAN_POINT('',(96.3,35.7575556983676,21.06));
#955=CARTESIAN_POINT('',(96.3,35.7575556983676,0.));
#956=CARTESIAN_POINT('',(77.3802257095145,54.2310318072824,21.06));
#957=CARTESIAN_POINT('Origin',(96.3,-3.08148791101958E-31,0.));
#958=CARTESIAN_POINT('',(96.3,-2.01252821859061E-31,2.));
#959=CARTESIAN_POINT('',(96.3,32.1875,2.));
#960=CARTESIAN_POINT('',(96.3,-2.01252821859061E-31,21.06));
#961=CARTESIAN_POINT('',(96.3,-3.01879232788591E-31,0.));
#962=CARTESIAN_POINT('',(96.3,32.1875,21.06));
#963=CARTESIAN_POINT('Origin',(2.00000000000001,84.75,0.));
#964=CARTESIAN_POINT('',(2.,-2.08985277112213E-33,2.));
#965=CARTESIAN_POINT('',(2.00000000000001,74.5625,2.));
#966=CARTESIAN_POINT('',(2.,-2.08985277112213E-33,21.06));
#967=CARTESIAN_POINT('',(2.00000000000001,74.5625,21.06));
#968=CARTESIAN_POINT('',(2.,0.,0.));
#969=CARTESIAN_POINT('Origin',(49.15,64.375,21.06));
#970=CARTESIAN_POINT('',(24.575,0.,21.06));
#971=CARTESIAN_POINT('Origin',(49.15,64.375,2.));
#972=CARTESIAN_POINT('',(24.575,0.,2.));
#973=CARTESIAN_POINT('Origin',(50.69,84.,23.06));
#974=CARTESIAN_POINT('',(20.54,84.,23.06));
#975=CARTESIAN_POINT('Origin',(50.69,84.,23.06));
#976=CARTESIAN_POINT('',(20.54,84.,20.06));
#977=CARTESIAN_POINT('',(20.54,84.,23.06));
#978=CARTESIAN_POINT('Origin',(50.69,84.,20.06));
#979=CARTESIAN_POINT('Origin',(50.69,84.,20.06));
#980=CARTESIAN_POINT('Origin',(98.3,36.6,0.));
#981=CARTESIAN_POINT('',(98.3,36.6,23.06));
#982=CARTESIAN_POINT('',(98.3,36.6,23.06));
#983=CARTESIAN_POINT('',(98.3,36.6,0.));
#984=CARTESIAN_POINT('',(98.3,36.6,0.));
#985=CARTESIAN_POINT('',(98.3,36.6,0.));
#986=CARTESIAN_POINT('Origin',(98.3,-3.08148791101958E-31,0.));
#987=CARTESIAN_POINT('',(98.3,-3.08148791101958E-31,0.));
#988=CARTESIAN_POINT('',(98.3,-3.08148791101958E-31,0.));
#989=CARTESIAN_POINT('',(98.3,0.,23.06));
#990=CARTESIAN_POINT('',(98.3,-3.08148791101958E-31,23.06));
#991=CARTESIAN_POINT('',(98.3,-3.08148791101958E-31,0.));
#992=CARTESIAN_POINT('Origin',(0.,0.,0.));
#993=CARTESIAN_POINT('',(0.,0.,0.));
#994=CARTESIAN_POINT('',(0.,0.,0.));
#995=CARTESIAN_POINT('',(0.,0.,23.06));
#996=CARTESIAN_POINT('',(0.,0.,23.06));
#997=CARTESIAN_POINT('',(0.,0.,0.));
#998=CARTESIAN_POINT('Origin',(9.53710127046888E-15,84.75,0.));
#999=CARTESIAN_POINT('',(9.53710127046888E-15,84.75,23.06));
#1000=CARTESIAN_POINT('',(9.53710127046888E-15,84.75,0.));
#1001=CARTESIAN_POINT('',(9.53710127046888E-15,84.75,23.06));
#1002=CARTESIAN_POINT('Origin',(49.15,64.375,23.06));
#1003=CARTESIAN_POINT('Origin',(49.15,64.375,0.));
#1004=UNCERTAINTY_MEASURE_WITH_UNIT(LENGTH_MEASURE(0.01),#1008,
'DISTANCE_ACCURACY_VALUE',
'Maximum model space distance between geometric entities at asserted c
onnectivities');
#1005=UNCERTAINTY_MEASURE_WITH_UNIT(LENGTH_MEASURE(0.01),#1008,
'DISTANCE_ACCURACY_VALUE',
'Maximum model space distance between geometric entities at asserted c
onnectivities');
#1006=(
GEOMETRIC_REPRESENTATION_CONTEXT(3)
GLOBAL_UNCERTAINTY_ASSIGNED_CONTEXT((#1004))
GLOBAL_UNIT_ASSIGNED_CONTEXT((#1008,#1010,#1011))
REPRESENTATION_CONTEXT('','3D')
);
#1007=(
GEOMETRIC_REPRESENTATION_CONTEXT(3)
GLOBAL_UNCERTAINTY_ASSIGNED_CONTEXT((#1005))
GLOBAL_UNIT_ASSIGNED_CONTEXT((#1008,#1010,#1011))
REPRESENTATION_CONTEXT('','3D')
);
#1008=(
LENGTH_UNIT()
NAMED_UNIT(*)
SI_UNIT(.MILLI.,.METRE.)
);
#1009=(
LENGTH_UNIT()
NAMED_UNIT(*)
SI_UNIT($,.METRE.)
);
#1010=(
NAMED_UNIT(*)
PLANE_ANGLE_UNIT()
SI_UNIT($,.RADIAN.)
);
#1011=(
NAMED_UNIT(*)
SI_UNIT($,.STERADIAN.)
SOLID_ANGLE_UNIT()
);
#1012=SHAPE_DEFINITION_REPRESENTATION(#1013,#1014);
#1013=PRODUCT_DEFINITION_SHAPE('',$,#1016);
#1014=SHAPE_REPRESENTATION('',(#610),#1006);
#1015=PRODUCT_DEFINITION_CONTEXT('part definition',#1020,'design');
#1016=PRODUCT_DEFINITION('Fan - PVB120G12H-P01',
'Fan - PVB120G12H-P01 v4',#1017,#1015);
#1017=PRODUCT_DEFINITION_FORMATION('',$,#1022);
#1018=PRODUCT_RELATED_PRODUCT_CATEGORY('Fan - PVB120G12H-P01 v4',
'Fan - PVB120G12H-P01 v4',(#1022));
#1019=APPLICATION_PROTOCOL_DEFINITION('international standard',
'automotive_design',2009,#1020);
#1020=APPLICATION_CONTEXT(
'Core Data for Automotive Mechanical Design Process');
#1021=PRODUCT_CONTEXT('part definition',#1020,'mechanical');
#1022=PRODUCT('Fan - PVB120G12H-P01','Fan - PVB120G12H-P01 v4',$,(#1021));
#1023=PRESENTATION_STYLE_ASSIGNMENT((#1025));
#1024=PRESENTATION_STYLE_ASSIGNMENT((#1026));
#1025=SURFACE_STYLE_USAGE(.BOTH.,#1027);
#1026=SURFACE_STYLE_USAGE(.BOTH.,#1028);
#1027=SURFACE_SIDE_STYLE('',(#1029));
#1028=SURFACE_SIDE_STYLE('',(#1030));
#1029=SURFACE_STYLE_FILL_AREA(#1031);
#1030=SURFACE_STYLE_FILL_AREA(#1032);
#1031=FILL_AREA_STYLE('Acier - Satin\X\E9',(#1033));
#1032=FILL_AREA_STYLE('Plastique - Mat (noir)',(#1034));
#1033=FILL_AREA_STYLE_COLOUR('Acier - Satin\X\E9',#1035);
#1034=FILL_AREA_STYLE_COLOUR('Plastique - Mat (noir)',#1036);
#1035=COLOUR_RGB('Acier - Satin\X\E9',0.627450980392157,0.627450980392157,
0.627450980392157);
#1036=COLOUR_RGB('Plastique - Mat (noir)',0.0980392156862745,0.0980392156862745,
0.0980392156862745);
ENDSEC;
END-ISO-10303-21;
